%TF.GenerationSoftware,KiCad,Pcbnew,(6.0.9)*%
%TF.CreationDate,2023-01-29T03:00:28+01:00*%
%TF.ProjectId,Pi Pico Stepper controller,50692050-6963-46f2-9053-746570706572,0.1*%
%TF.SameCoordinates,Original*%
%TF.FileFunction,Legend,Top*%
%TF.FilePolarity,Positive*%
%FSLAX46Y46*%
G04 Gerber Fmt 4.6, Leading zero omitted, Abs format (unit mm)*
G04 Created by KiCad (PCBNEW (6.0.9)) date 2023-01-29 03:00:28*
%MOMM*%
%LPD*%
G01*
G04 APERTURE LIST*
%ADD10C,0.150000*%
%ADD11C,0.250000*%
%ADD12C,0.400000*%
%ADD13C,0.300000*%
%ADD14C,0.120000*%
G04 APERTURE END LIST*
D10*
X129270095Y-48252000D02*
X129365333Y-48299619D01*
X129508190Y-48299619D01*
X129651047Y-48252000D01*
X129746285Y-48156761D01*
X129793904Y-48061523D01*
X129841523Y-47871047D01*
X129841523Y-47728190D01*
X129793904Y-47537714D01*
X129746285Y-47442476D01*
X129651047Y-47347238D01*
X129508190Y-47299619D01*
X129412952Y-47299619D01*
X129270095Y-47347238D01*
X129222476Y-47394857D01*
X129222476Y-47728190D01*
X129412952Y-47728190D01*
X128793904Y-47299619D02*
X128793904Y-48299619D01*
X128555809Y-48299619D01*
X128412952Y-48252000D01*
X128317714Y-48156761D01*
X128270095Y-48061523D01*
X128222476Y-47871047D01*
X128222476Y-47728190D01*
X128270095Y-47537714D01*
X128317714Y-47442476D01*
X128412952Y-47347238D01*
X128555809Y-47299619D01*
X128793904Y-47299619D01*
X122523095Y-48299619D02*
X121904047Y-48299619D01*
X122237380Y-47918666D01*
X122094523Y-47918666D01*
X121999285Y-47871047D01*
X121951666Y-47823428D01*
X121904047Y-47728190D01*
X121904047Y-47490095D01*
X121951666Y-47394857D01*
X121999285Y-47347238D01*
X122094523Y-47299619D01*
X122380238Y-47299619D01*
X122475476Y-47347238D01*
X122523095Y-47394857D01*
X121618333Y-48299619D02*
X121285000Y-47299619D01*
X120951666Y-48299619D01*
X120713571Y-48299619D02*
X120094523Y-48299619D01*
X120427857Y-47918666D01*
X120285000Y-47918666D01*
X120189761Y-47871047D01*
X120142142Y-47823428D01*
X120094523Y-47728190D01*
X120094523Y-47490095D01*
X120142142Y-47394857D01*
X120189761Y-47347238D01*
X120285000Y-47299619D01*
X120570714Y-47299619D01*
X120665952Y-47347238D01*
X120713571Y-47394857D01*
D11*
X145278571Y-53842857D02*
X145278571Y-54700000D01*
X145278571Y-54271428D02*
X143778571Y-54271428D01*
X143992857Y-54414285D01*
X144135714Y-54557142D01*
X144207142Y-54700000D01*
X143921428Y-53271428D02*
X143850000Y-53200000D01*
X143778571Y-53057142D01*
X143778571Y-52700000D01*
X143850000Y-52557142D01*
X143921428Y-52485714D01*
X144064285Y-52414285D01*
X144207142Y-52414285D01*
X144421428Y-52485714D01*
X145278571Y-53342857D01*
X145278571Y-52414285D01*
X143778571Y-51985714D02*
X145278571Y-51485714D01*
X143778571Y-50985714D01*
X145278571Y-49342857D02*
X143778571Y-49342857D01*
X145278571Y-48628571D02*
X143778571Y-48628571D01*
X145278571Y-47771428D01*
X143778571Y-47771428D01*
D10*
X119332285Y-47585333D02*
X118856095Y-47585333D01*
X119427523Y-47299619D02*
X119094190Y-48299619D01*
X118760857Y-47299619D01*
X118522761Y-48299619D02*
X117903714Y-48299619D01*
X118237047Y-47918666D01*
X118094190Y-47918666D01*
X117998952Y-47871047D01*
X117951333Y-47823428D01*
X117903714Y-47728190D01*
X117903714Y-47490095D01*
X117951333Y-47394857D01*
X117998952Y-47347238D01*
X118094190Y-47299619D01*
X118379904Y-47299619D01*
X118475142Y-47347238D01*
X118522761Y-47394857D01*
X124793285Y-47585333D02*
X124317095Y-47585333D01*
X124888523Y-47299619D02*
X124555190Y-48299619D01*
X124221857Y-47299619D01*
X123936142Y-48204380D02*
X123888523Y-48252000D01*
X123793285Y-48299619D01*
X123555190Y-48299619D01*
X123459952Y-48252000D01*
X123412333Y-48204380D01*
X123364714Y-48109142D01*
X123364714Y-48013904D01*
X123412333Y-47871047D01*
X123983761Y-47299619D01*
X123364714Y-47299619D01*
D12*
X107114285Y-127604761D02*
X107114285Y-125604761D01*
X107800000Y-125604761D01*
X107971428Y-125700000D01*
X108057142Y-125795238D01*
X108142857Y-125985714D01*
X108142857Y-126271428D01*
X108057142Y-126461904D01*
X107971428Y-126557142D01*
X107800000Y-126652380D01*
X107114285Y-126652380D01*
X108914285Y-127604761D02*
X108914285Y-125604761D01*
X110114285Y-125604761D02*
X110457142Y-125604761D01*
X110628571Y-125700000D01*
X110800000Y-125890476D01*
X110885714Y-126271428D01*
X110885714Y-126938095D01*
X110800000Y-127319047D01*
X110628571Y-127509523D01*
X110457142Y-127604761D01*
X110114285Y-127604761D01*
X109942857Y-127509523D01*
X109771428Y-127319047D01*
X109685714Y-126938095D01*
X109685714Y-126271428D01*
X109771428Y-125890476D01*
X109942857Y-125700000D01*
X110114285Y-125604761D01*
X112942857Y-127509523D02*
X113200000Y-127604761D01*
X113628571Y-127604761D01*
X113800000Y-127509523D01*
X113885714Y-127414285D01*
X113971428Y-127223809D01*
X113971428Y-127033333D01*
X113885714Y-126842857D01*
X113800000Y-126747619D01*
X113628571Y-126652380D01*
X113285714Y-126557142D01*
X113114285Y-126461904D01*
X113028571Y-126366666D01*
X112942857Y-126176190D01*
X112942857Y-125985714D01*
X113028571Y-125795238D01*
X113114285Y-125700000D01*
X113285714Y-125604761D01*
X113714285Y-125604761D01*
X113971428Y-125700000D01*
X114485714Y-125604761D02*
X115514285Y-125604761D01*
X115000000Y-127604761D02*
X115000000Y-125604761D01*
X116114285Y-126557142D02*
X116714285Y-126557142D01*
X116971428Y-127604761D02*
X116114285Y-127604761D01*
X116114285Y-125604761D01*
X116971428Y-125604761D01*
X117742857Y-127604761D02*
X117742857Y-125604761D01*
X118428571Y-125604761D01*
X118600000Y-125700000D01*
X118685714Y-125795238D01*
X118771428Y-125985714D01*
X118771428Y-126271428D01*
X118685714Y-126461904D01*
X118600000Y-126557142D01*
X118428571Y-126652380D01*
X117742857Y-126652380D01*
X119542857Y-127604761D02*
X119542857Y-125604761D01*
X120228571Y-125604761D01*
X120400000Y-125700000D01*
X120485714Y-125795238D01*
X120571428Y-125985714D01*
X120571428Y-126271428D01*
X120485714Y-126461904D01*
X120400000Y-126557142D01*
X120228571Y-126652380D01*
X119542857Y-126652380D01*
X121342857Y-126557142D02*
X121942857Y-126557142D01*
X122200000Y-127604761D02*
X121342857Y-127604761D01*
X121342857Y-125604761D01*
X122200000Y-125604761D01*
X124000000Y-127604761D02*
X123400000Y-126652380D01*
X122971428Y-127604761D02*
X122971428Y-125604761D01*
X123657142Y-125604761D01*
X123828571Y-125700000D01*
X123914285Y-125795238D01*
X124000000Y-125985714D01*
X124000000Y-126271428D01*
X123914285Y-126461904D01*
X123828571Y-126557142D01*
X123657142Y-126652380D01*
X122971428Y-126652380D01*
X127171428Y-127414285D02*
X127085714Y-127509523D01*
X126828571Y-127604761D01*
X126657142Y-127604761D01*
X126400000Y-127509523D01*
X126228571Y-127319047D01*
X126142857Y-127128571D01*
X126057142Y-126747619D01*
X126057142Y-126461904D01*
X126142857Y-126080952D01*
X126228571Y-125890476D01*
X126400000Y-125700000D01*
X126657142Y-125604761D01*
X126828571Y-125604761D01*
X127085714Y-125700000D01*
X127171428Y-125795238D01*
X128285714Y-125604761D02*
X128628571Y-125604761D01*
X128800000Y-125700000D01*
X128971428Y-125890476D01*
X129057142Y-126271428D01*
X129057142Y-126938095D01*
X128971428Y-127319047D01*
X128800000Y-127509523D01*
X128628571Y-127604761D01*
X128285714Y-127604761D01*
X128114285Y-127509523D01*
X127942857Y-127319047D01*
X127857142Y-126938095D01*
X127857142Y-126271428D01*
X127942857Y-125890476D01*
X128114285Y-125700000D01*
X128285714Y-125604761D01*
X129828571Y-127604761D02*
X129828571Y-125604761D01*
X130857142Y-127604761D01*
X130857142Y-125604761D01*
X131457142Y-125604761D02*
X132485714Y-125604761D01*
X131971428Y-127604761D02*
X131971428Y-125604761D01*
X134114285Y-127604761D02*
X133514285Y-126652380D01*
X133085714Y-127604761D02*
X133085714Y-125604761D01*
X133771428Y-125604761D01*
X133942857Y-125700000D01*
X134028571Y-125795238D01*
X134114285Y-125985714D01*
X134114285Y-126271428D01*
X134028571Y-126461904D01*
X133942857Y-126557142D01*
X133771428Y-126652380D01*
X133085714Y-126652380D01*
X135228571Y-125604761D02*
X135571428Y-125604761D01*
X135742857Y-125700000D01*
X135914285Y-125890476D01*
X136000000Y-126271428D01*
X136000000Y-126938095D01*
X135914285Y-127319047D01*
X135742857Y-127509523D01*
X135571428Y-127604761D01*
X135228571Y-127604761D01*
X135057142Y-127509523D01*
X134885714Y-127319047D01*
X134800000Y-126938095D01*
X134800000Y-126271428D01*
X134885714Y-125890476D01*
X135057142Y-125700000D01*
X135228571Y-125604761D01*
X137628571Y-127604761D02*
X136771428Y-127604761D01*
X136771428Y-125604761D01*
X139085714Y-127604761D02*
X138228571Y-127604761D01*
X138228571Y-125604761D01*
X139685714Y-126557142D02*
X140285714Y-126557142D01*
X140542857Y-127604761D02*
X139685714Y-127604761D01*
X139685714Y-125604761D01*
X140542857Y-125604761D01*
X142342857Y-127604761D02*
X141742857Y-126652380D01*
X141314285Y-127604761D02*
X141314285Y-125604761D01*
X142000000Y-125604761D01*
X142171428Y-125700000D01*
X142257142Y-125795238D01*
X142342857Y-125985714D01*
X142342857Y-126271428D01*
X142257142Y-126461904D01*
X142171428Y-126557142D01*
X142000000Y-126652380D01*
X141314285Y-126652380D01*
X145000000Y-128366666D02*
X144914285Y-128271428D01*
X144742857Y-127985714D01*
X144657142Y-127795238D01*
X144571428Y-127509523D01*
X144485714Y-127033333D01*
X144485714Y-126652380D01*
X144571428Y-126176190D01*
X144657142Y-125890476D01*
X144742857Y-125700000D01*
X144914285Y-125414285D01*
X145000000Y-125319047D01*
X146714285Y-127604761D02*
X146114285Y-126652380D01*
X145685714Y-127604761D02*
X145685714Y-125604761D01*
X146371428Y-125604761D01*
X146542857Y-125700000D01*
X146628571Y-125795238D01*
X146714285Y-125985714D01*
X146714285Y-126271428D01*
X146628571Y-126461904D01*
X146542857Y-126557142D01*
X146371428Y-126652380D01*
X145685714Y-126652380D01*
X147485714Y-127604761D02*
X147485714Y-125604761D01*
X148171428Y-125604761D01*
X148342857Y-125700000D01*
X148428571Y-125795238D01*
X148514285Y-125985714D01*
X148514285Y-126271428D01*
X148428571Y-126461904D01*
X148342857Y-126557142D01*
X148171428Y-126652380D01*
X147485714Y-126652380D01*
X149200000Y-125795238D02*
X149285714Y-125700000D01*
X149457142Y-125604761D01*
X149885714Y-125604761D01*
X150057142Y-125700000D01*
X150142857Y-125795238D01*
X150228571Y-125985714D01*
X150228571Y-126176190D01*
X150142857Y-126461904D01*
X149114285Y-127604761D01*
X150228571Y-127604761D01*
X151342857Y-125604761D02*
X151514285Y-125604761D01*
X151685714Y-125700000D01*
X151771428Y-125795238D01*
X151857142Y-125985714D01*
X151942857Y-126366666D01*
X151942857Y-126842857D01*
X151857142Y-127223809D01*
X151771428Y-127414285D01*
X151685714Y-127509523D01*
X151514285Y-127604761D01*
X151342857Y-127604761D01*
X151171428Y-127509523D01*
X151085714Y-127414285D01*
X151000000Y-127223809D01*
X150914285Y-126842857D01*
X150914285Y-126366666D01*
X151000000Y-125985714D01*
X151085714Y-125795238D01*
X151171428Y-125700000D01*
X151342857Y-125604761D01*
X153485714Y-126271428D02*
X153485714Y-127604761D01*
X153057142Y-125509523D02*
X152628571Y-126938095D01*
X153742857Y-126938095D01*
X154771428Y-125604761D02*
X154942857Y-125604761D01*
X155114285Y-125700000D01*
X155200000Y-125795238D01*
X155285714Y-125985714D01*
X155371428Y-126366666D01*
X155371428Y-126842857D01*
X155285714Y-127223809D01*
X155200000Y-127414285D01*
X155114285Y-127509523D01*
X154942857Y-127604761D01*
X154771428Y-127604761D01*
X154600000Y-127509523D01*
X154514285Y-127414285D01*
X154428571Y-127223809D01*
X154342857Y-126842857D01*
X154342857Y-126366666D01*
X154428571Y-125985714D01*
X154514285Y-125795238D01*
X154600000Y-125700000D01*
X154771428Y-125604761D01*
X155971428Y-128366666D02*
X156057142Y-128271428D01*
X156228571Y-127985714D01*
X156314285Y-127795238D01*
X156400000Y-127509523D01*
X156485714Y-127033333D01*
X156485714Y-126652380D01*
X156400000Y-126176190D01*
X156314285Y-125890476D01*
X156228571Y-125700000D01*
X156057142Y-125414285D01*
X155971428Y-125319047D01*
D10*
X127253904Y-48204380D02*
X127206285Y-48252000D01*
X127111047Y-48299619D01*
X126872952Y-48299619D01*
X126777714Y-48252000D01*
X126730095Y-48204380D01*
X126682476Y-48109142D01*
X126682476Y-48013904D01*
X126730095Y-47871047D01*
X127301523Y-47299619D01*
X126682476Y-47299619D01*
X126349142Y-48299619D02*
X125730095Y-48299619D01*
X126063428Y-47918666D01*
X125920571Y-47918666D01*
X125825333Y-47871047D01*
X125777714Y-47823428D01*
X125730095Y-47728190D01*
X125730095Y-47490095D01*
X125777714Y-47394857D01*
X125825333Y-47347238D01*
X125920571Y-47299619D01*
X126206285Y-47299619D01*
X126301523Y-47347238D01*
X126349142Y-47394857D01*
%TO.C,C5*%
X141556142Y-59120066D02*
X141603761Y-59167685D01*
X141651380Y-59310542D01*
X141651380Y-59405780D01*
X141603761Y-59548638D01*
X141508523Y-59643876D01*
X141413285Y-59691495D01*
X141222809Y-59739114D01*
X141079952Y-59739114D01*
X140889476Y-59691495D01*
X140794238Y-59643876D01*
X140699000Y-59548638D01*
X140651380Y-59405780D01*
X140651380Y-59310542D01*
X140699000Y-59167685D01*
X140746619Y-59120066D01*
X140651380Y-58215304D02*
X140651380Y-58691495D01*
X141127571Y-58739114D01*
X141079952Y-58691495D01*
X141032333Y-58596257D01*
X141032333Y-58358161D01*
X141079952Y-58262923D01*
X141127571Y-58215304D01*
X141222809Y-58167685D01*
X141460904Y-58167685D01*
X141556142Y-58215304D01*
X141603761Y-58262923D01*
X141651380Y-58358161D01*
X141651380Y-58596257D01*
X141603761Y-58691495D01*
X141556142Y-58739114D01*
%TO.C,STEPPER3*%
X187094761Y-70095619D02*
X187142380Y-69952761D01*
X187142380Y-69714666D01*
X187094761Y-69619428D01*
X187047142Y-69571809D01*
X186951904Y-69524190D01*
X186856666Y-69524190D01*
X186761428Y-69571809D01*
X186713809Y-69619428D01*
X186666190Y-69714666D01*
X186618571Y-69905142D01*
X186570952Y-70000380D01*
X186523333Y-70048000D01*
X186428095Y-70095619D01*
X186332857Y-70095619D01*
X186237619Y-70048000D01*
X186190000Y-70000380D01*
X186142380Y-69905142D01*
X186142380Y-69667047D01*
X186190000Y-69524190D01*
X186142380Y-69238476D02*
X186142380Y-68667047D01*
X187142380Y-68952761D02*
X186142380Y-68952761D01*
X186618571Y-68333714D02*
X186618571Y-68000380D01*
X187142380Y-67857523D02*
X187142380Y-68333714D01*
X186142380Y-68333714D01*
X186142380Y-67857523D01*
X187142380Y-67428952D02*
X186142380Y-67428952D01*
X186142380Y-67048000D01*
X186190000Y-66952761D01*
X186237619Y-66905142D01*
X186332857Y-66857523D01*
X186475714Y-66857523D01*
X186570952Y-66905142D01*
X186618571Y-66952761D01*
X186666190Y-67048000D01*
X186666190Y-67428952D01*
X187142380Y-66428952D02*
X186142380Y-66428952D01*
X186142380Y-66048000D01*
X186190000Y-65952761D01*
X186237619Y-65905142D01*
X186332857Y-65857523D01*
X186475714Y-65857523D01*
X186570952Y-65905142D01*
X186618571Y-65952761D01*
X186666190Y-66048000D01*
X186666190Y-66428952D01*
X186618571Y-65428952D02*
X186618571Y-65095619D01*
X187142380Y-64952761D02*
X187142380Y-65428952D01*
X186142380Y-65428952D01*
X186142380Y-64952761D01*
X187142380Y-63952761D02*
X186666190Y-64286095D01*
X187142380Y-64524190D02*
X186142380Y-64524190D01*
X186142380Y-64143238D01*
X186190000Y-64048000D01*
X186237619Y-64000380D01*
X186332857Y-63952761D01*
X186475714Y-63952761D01*
X186570952Y-64000380D01*
X186618571Y-64048000D01*
X186666190Y-64143238D01*
X186666190Y-64524190D01*
X186142380Y-63619428D02*
X186142380Y-63000380D01*
X186523333Y-63333714D01*
X186523333Y-63190857D01*
X186570952Y-63095619D01*
X186618571Y-63048000D01*
X186713809Y-63000380D01*
X186951904Y-63000380D01*
X187047142Y-63048000D01*
X187094761Y-63095619D01*
X187142380Y-63190857D01*
X187142380Y-63476571D01*
X187094761Y-63571809D01*
X187047142Y-63619428D01*
%TO.C,D1*%
X159311904Y-51552380D02*
X159311904Y-50552380D01*
X159550000Y-50552380D01*
X159692857Y-50600000D01*
X159788095Y-50695238D01*
X159835714Y-50790476D01*
X159883333Y-50980952D01*
X159883333Y-51123809D01*
X159835714Y-51314285D01*
X159788095Y-51409523D01*
X159692857Y-51504761D01*
X159550000Y-51552380D01*
X159311904Y-51552380D01*
X160835714Y-51552380D02*
X160264285Y-51552380D01*
X160550000Y-51552380D02*
X160550000Y-50552380D01*
X160454761Y-50695238D01*
X160359523Y-50790476D01*
X160264285Y-50838095D01*
%TO.C,C1*%
X168235333Y-119914542D02*
X168187714Y-119962161D01*
X168044857Y-120009780D01*
X167949619Y-120009780D01*
X167806761Y-119962161D01*
X167711523Y-119866923D01*
X167663904Y-119771685D01*
X167616285Y-119581209D01*
X167616285Y-119438352D01*
X167663904Y-119247876D01*
X167711523Y-119152638D01*
X167806761Y-119057400D01*
X167949619Y-119009780D01*
X168044857Y-119009780D01*
X168187714Y-119057400D01*
X168235333Y-119105019D01*
X169187714Y-120009780D02*
X168616285Y-120009780D01*
X168902000Y-120009780D02*
X168902000Y-119009780D01*
X168806761Y-119152638D01*
X168711523Y-119247876D01*
X168616285Y-119295495D01*
%TO.C,A2*%
X167931714Y-103443066D02*
X168407904Y-103443066D01*
X167836476Y-103728780D02*
X168169809Y-102728780D01*
X168503142Y-103728780D01*
X168788857Y-102824019D02*
X168836476Y-102776400D01*
X168931714Y-102728780D01*
X169169809Y-102728780D01*
X169265047Y-102776400D01*
X169312666Y-102824019D01*
X169360285Y-102919257D01*
X169360285Y-103014495D01*
X169312666Y-103157352D01*
X168741238Y-103728780D01*
X169360285Y-103728780D01*
%TO.C,A3*%
X167931714Y-78043066D02*
X168407904Y-78043066D01*
X167836476Y-78328780D02*
X168169809Y-77328780D01*
X168503142Y-78328780D01*
X168741238Y-77328780D02*
X169360285Y-77328780D01*
X169026952Y-77709733D01*
X169169809Y-77709733D01*
X169265047Y-77757352D01*
X169312666Y-77804971D01*
X169360285Y-77900209D01*
X169360285Y-78138304D01*
X169312666Y-78233542D01*
X169265047Y-78281161D01*
X169169809Y-78328780D01*
X168884095Y-78328780D01*
X168788857Y-78281161D01*
X168741238Y-78233542D01*
%TO.C,A1*%
X167931714Y-128843066D02*
X168407904Y-128843066D01*
X167836476Y-129128780D02*
X168169809Y-128128780D01*
X168503142Y-129128780D01*
X169360285Y-129128780D02*
X168788857Y-129128780D01*
X169074571Y-129128780D02*
X169074571Y-128128780D01*
X168979333Y-128271638D01*
X168884095Y-128366876D01*
X168788857Y-128414495D01*
%TO.C,C2*%
X168086333Y-95276542D02*
X168038714Y-95324161D01*
X167895857Y-95371780D01*
X167800619Y-95371780D01*
X167657761Y-95324161D01*
X167562523Y-95228923D01*
X167514904Y-95133685D01*
X167467285Y-94943209D01*
X167467285Y-94800352D01*
X167514904Y-94609876D01*
X167562523Y-94514638D01*
X167657761Y-94419400D01*
X167800619Y-94371780D01*
X167895857Y-94371780D01*
X168038714Y-94419400D01*
X168086333Y-94467019D01*
X168467285Y-94467019D02*
X168514904Y-94419400D01*
X168610142Y-94371780D01*
X168848238Y-94371780D01*
X168943476Y-94419400D01*
X168991095Y-94467019D01*
X169038714Y-94562257D01*
X169038714Y-94657495D01*
X168991095Y-94800352D01*
X168419666Y-95371780D01*
X169038714Y-95371780D01*
%TO.C,U2*%
X137922095Y-51649380D02*
X137922095Y-52458904D01*
X137969714Y-52554142D01*
X138017333Y-52601761D01*
X138112571Y-52649380D01*
X138303047Y-52649380D01*
X138398285Y-52601761D01*
X138445904Y-52554142D01*
X138493523Y-52458904D01*
X138493523Y-51649380D01*
X138922095Y-51744619D02*
X138969714Y-51697000D01*
X139064952Y-51649380D01*
X139303047Y-51649380D01*
X139398285Y-51697000D01*
X139445904Y-51744619D01*
X139493523Y-51839857D01*
X139493523Y-51935095D01*
X139445904Y-52077952D01*
X138874476Y-52649380D01*
X139493523Y-52649380D01*
%TO.C,MISC5*%
X116554380Y-52443209D02*
X115554380Y-52443209D01*
X116268666Y-52109876D01*
X115554380Y-51776542D01*
X116554380Y-51776542D01*
X116554380Y-51300352D02*
X115554380Y-51300352D01*
X116506761Y-50871780D02*
X116554380Y-50728923D01*
X116554380Y-50490828D01*
X116506761Y-50395590D01*
X116459142Y-50347971D01*
X116363904Y-50300352D01*
X116268666Y-50300352D01*
X116173428Y-50347971D01*
X116125809Y-50395590D01*
X116078190Y-50490828D01*
X116030571Y-50681304D01*
X115982952Y-50776542D01*
X115935333Y-50824161D01*
X115840095Y-50871780D01*
X115744857Y-50871780D01*
X115649619Y-50824161D01*
X115602000Y-50776542D01*
X115554380Y-50681304D01*
X115554380Y-50443209D01*
X115602000Y-50300352D01*
X116459142Y-49300352D02*
X116506761Y-49347971D01*
X116554380Y-49490828D01*
X116554380Y-49586066D01*
X116506761Y-49728923D01*
X116411523Y-49824161D01*
X116316285Y-49871780D01*
X116125809Y-49919400D01*
X115982952Y-49919400D01*
X115792476Y-49871780D01*
X115697238Y-49824161D01*
X115602000Y-49728923D01*
X115554380Y-49586066D01*
X115554380Y-49490828D01*
X115602000Y-49347971D01*
X115649619Y-49300352D01*
X115554380Y-48395590D02*
X115554380Y-48871780D01*
X116030571Y-48919400D01*
X115982952Y-48871780D01*
X115935333Y-48776542D01*
X115935333Y-48538447D01*
X115982952Y-48443209D01*
X116030571Y-48395590D01*
X116125809Y-48347971D01*
X116363904Y-48347971D01*
X116459142Y-48395590D01*
X116506761Y-48443209D01*
X116554380Y-48538447D01*
X116554380Y-48776542D01*
X116506761Y-48871780D01*
X116459142Y-48919400D01*
%TO.C,U1*%
X125589095Y-77582780D02*
X125589095Y-78392304D01*
X125636714Y-78487542D01*
X125684333Y-78535161D01*
X125779571Y-78582780D01*
X125970047Y-78582780D01*
X126065285Y-78535161D01*
X126112904Y-78487542D01*
X126160523Y-78392304D01*
X126160523Y-77582780D01*
X127160523Y-78582780D02*
X126589095Y-78582780D01*
X126874809Y-78582780D02*
X126874809Y-77582780D01*
X126779571Y-77725638D01*
X126684333Y-77820876D01*
X126589095Y-77868495D01*
X100784380Y-95394019D02*
X101593904Y-95394019D01*
X101689142Y-95346400D01*
X101736761Y-95298780D01*
X101784380Y-95203542D01*
X101784380Y-95013066D01*
X101736761Y-94917828D01*
X101689142Y-94870209D01*
X101593904Y-94822590D01*
X100784380Y-94822590D01*
X101736761Y-94394019D02*
X101784380Y-94251161D01*
X101784380Y-94013066D01*
X101736761Y-93917828D01*
X101689142Y-93870209D01*
X101593904Y-93822590D01*
X101498666Y-93822590D01*
X101403428Y-93870209D01*
X101355809Y-93917828D01*
X101308190Y-94013066D01*
X101260571Y-94203542D01*
X101212952Y-94298780D01*
X101165333Y-94346400D01*
X101070095Y-94394019D01*
X100974857Y-94394019D01*
X100879619Y-94346400D01*
X100832000Y-94298780D01*
X100784380Y-94203542D01*
X100784380Y-93965447D01*
X100832000Y-93822590D01*
X101260571Y-93060685D02*
X101308190Y-92917828D01*
X101355809Y-92870209D01*
X101451047Y-92822590D01*
X101593904Y-92822590D01*
X101689142Y-92870209D01*
X101736761Y-92917828D01*
X101784380Y-93013066D01*
X101784380Y-93394019D01*
X100784380Y-93394019D01*
X100784380Y-93060685D01*
X100832000Y-92965447D01*
X100879619Y-92917828D01*
X100974857Y-92870209D01*
X101070095Y-92870209D01*
X101165333Y-92917828D01*
X101212952Y-92965447D01*
X101260571Y-93060685D01*
X101260571Y-93394019D01*
X101260571Y-91632114D02*
X101260571Y-91298780D01*
X101784380Y-91155923D02*
X101784380Y-91632114D01*
X100784380Y-91632114D01*
X100784380Y-91155923D01*
X101784380Y-90727352D02*
X100784380Y-90727352D01*
X100784380Y-90489257D01*
X100832000Y-90346400D01*
X100927238Y-90251161D01*
X101022476Y-90203542D01*
X101212952Y-90155923D01*
X101355809Y-90155923D01*
X101546285Y-90203542D01*
X101641523Y-90251161D01*
X101736761Y-90346400D01*
X101784380Y-90489257D01*
X101784380Y-90727352D01*
X100832000Y-89203542D02*
X100784380Y-89298780D01*
X100784380Y-89441638D01*
X100832000Y-89584495D01*
X100927238Y-89679733D01*
X101022476Y-89727352D01*
X101212952Y-89774971D01*
X101355809Y-89774971D01*
X101546285Y-89727352D01*
X101641523Y-89679733D01*
X101736761Y-89584495D01*
X101784380Y-89441638D01*
X101784380Y-89346400D01*
X101736761Y-89203542D01*
X101689142Y-89155923D01*
X101355809Y-89155923D01*
X101355809Y-89346400D01*
X101260571Y-88727352D02*
X101260571Y-88394019D01*
X101784380Y-88251161D02*
X101784380Y-88727352D01*
X100784380Y-88727352D01*
X100784380Y-88251161D01*
D13*
X103379761Y-85092114D02*
X101379761Y-85092114D01*
X101379761Y-84406400D01*
X101475000Y-84234971D01*
X101570238Y-84149257D01*
X101760714Y-84063542D01*
X102046428Y-84063542D01*
X102236904Y-84149257D01*
X102332142Y-84234971D01*
X102427380Y-84406400D01*
X102427380Y-85092114D01*
X103379761Y-83292114D02*
X101379761Y-83292114D01*
X103189285Y-81406400D02*
X103284523Y-81492114D01*
X103379761Y-81749257D01*
X103379761Y-81920685D01*
X103284523Y-82177828D01*
X103094047Y-82349257D01*
X102903571Y-82434971D01*
X102522619Y-82520685D01*
X102236904Y-82520685D01*
X101855952Y-82434971D01*
X101665476Y-82349257D01*
X101475000Y-82177828D01*
X101379761Y-81920685D01*
X101379761Y-81749257D01*
X101475000Y-81492114D01*
X101570238Y-81406400D01*
X101379761Y-80292114D02*
X101379761Y-79949257D01*
X101475000Y-79777828D01*
X101665476Y-79606400D01*
X102046428Y-79520685D01*
X102713095Y-79520685D01*
X103094047Y-79606400D01*
X103284523Y-79777828D01*
X103379761Y-79949257D01*
X103379761Y-80292114D01*
X103284523Y-80463542D01*
X103094047Y-80634971D01*
X102713095Y-80720685D01*
X102046428Y-80720685D01*
X101665476Y-80634971D01*
X101475000Y-80463542D01*
X101379761Y-80292114D01*
X103379761Y-77377828D02*
X101379761Y-77377828D01*
X101379761Y-76949257D01*
X101475000Y-76692114D01*
X101665476Y-76520685D01*
X101855952Y-76434971D01*
X102236904Y-76349257D01*
X102522619Y-76349257D01*
X102903571Y-76434971D01*
X103094047Y-76520685D01*
X103284523Y-76692114D01*
X103379761Y-76949257D01*
X103379761Y-77377828D01*
X102332142Y-75577828D02*
X102332142Y-74977828D01*
X103379761Y-74720685D02*
X103379761Y-75577828D01*
X101379761Y-75577828D01*
X101379761Y-74720685D01*
X101379761Y-74206400D02*
X103379761Y-73606400D01*
X101379761Y-73006400D01*
X103379761Y-71034971D02*
X101379761Y-71034971D01*
X102808333Y-70434971D01*
X101379761Y-69834971D01*
X103379761Y-69834971D01*
X101379761Y-69149257D02*
X101379761Y-68034971D01*
X102141666Y-68634971D01*
X102141666Y-68377828D01*
X102236904Y-68206400D01*
X102332142Y-68120685D01*
X102522619Y-68034971D01*
X102998809Y-68034971D01*
X103189285Y-68120685D01*
X103284523Y-68206400D01*
X103379761Y-68377828D01*
X103379761Y-68892114D01*
X103284523Y-69063542D01*
X103189285Y-69149257D01*
D10*
%TO.C,R1*%
X161779333Y-54536780D02*
X161446000Y-54060590D01*
X161207904Y-54536780D02*
X161207904Y-53536780D01*
X161588857Y-53536780D01*
X161684095Y-53584400D01*
X161731714Y-53632019D01*
X161779333Y-53727257D01*
X161779333Y-53870114D01*
X161731714Y-53965352D01*
X161684095Y-54012971D01*
X161588857Y-54060590D01*
X161207904Y-54060590D01*
X162731714Y-54536780D02*
X162160285Y-54536780D01*
X162446000Y-54536780D02*
X162446000Y-53536780D01*
X162350761Y-53679638D01*
X162255523Y-53774876D01*
X162160285Y-53822495D01*
%TO.C,C4*%
X132335142Y-58993066D02*
X132382761Y-59040685D01*
X132430380Y-59183542D01*
X132430380Y-59278780D01*
X132382761Y-59421638D01*
X132287523Y-59516876D01*
X132192285Y-59564495D01*
X132001809Y-59612114D01*
X131858952Y-59612114D01*
X131668476Y-59564495D01*
X131573238Y-59516876D01*
X131478000Y-59421638D01*
X131430380Y-59278780D01*
X131430380Y-59183542D01*
X131478000Y-59040685D01*
X131525619Y-58993066D01*
X131763714Y-58135923D02*
X132430380Y-58135923D01*
X131382761Y-58374019D02*
X132097047Y-58612114D01*
X132097047Y-57993066D01*
%TO.C,J4*%
X146452380Y-50083333D02*
X147166666Y-50083333D01*
X147309523Y-50130952D01*
X147404761Y-50226190D01*
X147452380Y-50369047D01*
X147452380Y-50464285D01*
X146785714Y-49178571D02*
X147452380Y-49178571D01*
X146404761Y-49416666D02*
X147119047Y-49654761D01*
X147119047Y-49035714D01*
%TO.C,SW1*%
X170362666Y-52986161D02*
X170505523Y-53033780D01*
X170743619Y-53033780D01*
X170838857Y-52986161D01*
X170886476Y-52938542D01*
X170934095Y-52843304D01*
X170934095Y-52748066D01*
X170886476Y-52652828D01*
X170838857Y-52605209D01*
X170743619Y-52557590D01*
X170553142Y-52509971D01*
X170457904Y-52462352D01*
X170410285Y-52414733D01*
X170362666Y-52319495D01*
X170362666Y-52224257D01*
X170410285Y-52129019D01*
X170457904Y-52081400D01*
X170553142Y-52033780D01*
X170791238Y-52033780D01*
X170934095Y-52081400D01*
X171267428Y-52033780D02*
X171505523Y-53033780D01*
X171696000Y-52319495D01*
X171886476Y-53033780D01*
X172124571Y-52033780D01*
X173029333Y-53033780D02*
X172457904Y-53033780D01*
X172743619Y-53033780D02*
X172743619Y-52033780D01*
X172648380Y-52176638D01*
X172553142Y-52271876D01*
X172457904Y-52319495D01*
%TO.C,STEPPER2*%
X187094761Y-95495619D02*
X187142380Y-95352761D01*
X187142380Y-95114666D01*
X187094761Y-95019428D01*
X187047142Y-94971809D01*
X186951904Y-94924190D01*
X186856666Y-94924190D01*
X186761428Y-94971809D01*
X186713809Y-95019428D01*
X186666190Y-95114666D01*
X186618571Y-95305142D01*
X186570952Y-95400380D01*
X186523333Y-95448000D01*
X186428095Y-95495619D01*
X186332857Y-95495619D01*
X186237619Y-95448000D01*
X186190000Y-95400380D01*
X186142380Y-95305142D01*
X186142380Y-95067047D01*
X186190000Y-94924190D01*
X186142380Y-94638476D02*
X186142380Y-94067047D01*
X187142380Y-94352761D02*
X186142380Y-94352761D01*
X186618571Y-93733714D02*
X186618571Y-93400380D01*
X187142380Y-93257523D02*
X187142380Y-93733714D01*
X186142380Y-93733714D01*
X186142380Y-93257523D01*
X187142380Y-92828952D02*
X186142380Y-92828952D01*
X186142380Y-92448000D01*
X186190000Y-92352761D01*
X186237619Y-92305142D01*
X186332857Y-92257523D01*
X186475714Y-92257523D01*
X186570952Y-92305142D01*
X186618571Y-92352761D01*
X186666190Y-92448000D01*
X186666190Y-92828952D01*
X187142380Y-91828952D02*
X186142380Y-91828952D01*
X186142380Y-91448000D01*
X186190000Y-91352761D01*
X186237619Y-91305142D01*
X186332857Y-91257523D01*
X186475714Y-91257523D01*
X186570952Y-91305142D01*
X186618571Y-91352761D01*
X186666190Y-91448000D01*
X186666190Y-91828952D01*
X186618571Y-90828952D02*
X186618571Y-90495619D01*
X187142380Y-90352761D02*
X187142380Y-90828952D01*
X186142380Y-90828952D01*
X186142380Y-90352761D01*
X187142380Y-89352761D02*
X186666190Y-89686095D01*
X187142380Y-89924190D02*
X186142380Y-89924190D01*
X186142380Y-89543238D01*
X186190000Y-89448000D01*
X186237619Y-89400380D01*
X186332857Y-89352761D01*
X186475714Y-89352761D01*
X186570952Y-89400380D01*
X186618571Y-89448000D01*
X186666190Y-89543238D01*
X186666190Y-89924190D01*
X186237619Y-88971809D02*
X186190000Y-88924190D01*
X186142380Y-88828952D01*
X186142380Y-88590857D01*
X186190000Y-88495619D01*
X186237619Y-88448000D01*
X186332857Y-88400380D01*
X186428095Y-88400380D01*
X186570952Y-88448000D01*
X187142380Y-89019428D01*
X187142380Y-88400380D01*
%TO.C,C3*%
X167854333Y-70257542D02*
X167806714Y-70305161D01*
X167663857Y-70352780D01*
X167568619Y-70352780D01*
X167425761Y-70305161D01*
X167330523Y-70209923D01*
X167282904Y-70114685D01*
X167235285Y-69924209D01*
X167235285Y-69781352D01*
X167282904Y-69590876D01*
X167330523Y-69495638D01*
X167425761Y-69400400D01*
X167568619Y-69352780D01*
X167663857Y-69352780D01*
X167806714Y-69400400D01*
X167854333Y-69448019D01*
X168187666Y-69352780D02*
X168806714Y-69352780D01*
X168473380Y-69733733D01*
X168616238Y-69733733D01*
X168711476Y-69781352D01*
X168759095Y-69828971D01*
X168806714Y-69924209D01*
X168806714Y-70162304D01*
X168759095Y-70257542D01*
X168711476Y-70305161D01*
X168616238Y-70352780D01*
X168330523Y-70352780D01*
X168235285Y-70305161D01*
X168187666Y-70257542D01*
%TO.C,STEPPER1*%
X187094761Y-120895619D02*
X187142380Y-120752761D01*
X187142380Y-120514666D01*
X187094761Y-120419428D01*
X187047142Y-120371809D01*
X186951904Y-120324190D01*
X186856666Y-120324190D01*
X186761428Y-120371809D01*
X186713809Y-120419428D01*
X186666190Y-120514666D01*
X186618571Y-120705142D01*
X186570952Y-120800380D01*
X186523333Y-120848000D01*
X186428095Y-120895619D01*
X186332857Y-120895619D01*
X186237619Y-120848000D01*
X186190000Y-120800380D01*
X186142380Y-120705142D01*
X186142380Y-120467047D01*
X186190000Y-120324190D01*
X186142380Y-120038476D02*
X186142380Y-119467047D01*
X187142380Y-119752761D02*
X186142380Y-119752761D01*
X186618571Y-119133714D02*
X186618571Y-118800380D01*
X187142380Y-118657523D02*
X187142380Y-119133714D01*
X186142380Y-119133714D01*
X186142380Y-118657523D01*
X187142380Y-118228952D02*
X186142380Y-118228952D01*
X186142380Y-117848000D01*
X186190000Y-117752761D01*
X186237619Y-117705142D01*
X186332857Y-117657523D01*
X186475714Y-117657523D01*
X186570952Y-117705142D01*
X186618571Y-117752761D01*
X186666190Y-117848000D01*
X186666190Y-118228952D01*
X187142380Y-117228952D02*
X186142380Y-117228952D01*
X186142380Y-116848000D01*
X186190000Y-116752761D01*
X186237619Y-116705142D01*
X186332857Y-116657523D01*
X186475714Y-116657523D01*
X186570952Y-116705142D01*
X186618571Y-116752761D01*
X186666190Y-116848000D01*
X186666190Y-117228952D01*
X186618571Y-116228952D02*
X186618571Y-115895619D01*
X187142380Y-115752761D02*
X187142380Y-116228952D01*
X186142380Y-116228952D01*
X186142380Y-115752761D01*
X187142380Y-114752761D02*
X186666190Y-115086095D01*
X187142380Y-115324190D02*
X186142380Y-115324190D01*
X186142380Y-114943238D01*
X186190000Y-114848000D01*
X186237619Y-114800380D01*
X186332857Y-114752761D01*
X186475714Y-114752761D01*
X186570952Y-114800380D01*
X186618571Y-114848000D01*
X186666190Y-114943238D01*
X186666190Y-115324190D01*
X187142380Y-113800380D02*
X187142380Y-114371809D01*
X187142380Y-114086095D02*
X186142380Y-114086095D01*
X186285238Y-114181333D01*
X186380476Y-114276571D01*
X186428095Y-114371809D01*
D14*
%TO.C,C5*%
X142839000Y-61953400D02*
X142839000Y-61453400D01*
X146659000Y-56693400D02*
X145459000Y-56693400D01*
X143203437Y-61213400D02*
X142139000Y-60148963D01*
X146659000Y-60148963D02*
X146659000Y-56693400D01*
X142589000Y-61703400D02*
X143089000Y-61703400D01*
X145594563Y-61213400D02*
X146659000Y-60148963D01*
X142139000Y-56693400D02*
X143339000Y-56693400D01*
X143203437Y-61213400D02*
X143339000Y-61213400D01*
X145594563Y-61213400D02*
X145459000Y-61213400D01*
X142139000Y-60148963D02*
X142139000Y-56693400D01*
%TO.C,STEPPER3*%
X185226000Y-61306400D02*
X182566000Y-61306400D01*
X185226000Y-70256400D02*
X185226000Y-71586400D01*
X182566000Y-68986400D02*
X182566000Y-61306400D01*
X185226000Y-68986400D02*
X185226000Y-61306400D01*
X185226000Y-71586400D02*
X183896000Y-71586400D01*
X185226000Y-68986400D02*
X182566000Y-68986400D01*
%TO.C,D1*%
X163393500Y-48871400D02*
X161108500Y-48871400D01*
X161108500Y-50341400D02*
X163393500Y-50341400D01*
X163393500Y-50341400D02*
X163393500Y-48871400D01*
%TO.C,C1*%
X169597563Y-118617400D02*
X166142000Y-118617400D01*
X166142000Y-118617400D02*
X166142000Y-117417400D01*
X170662000Y-115161837D02*
X169597563Y-114097400D01*
X169597563Y-114097400D02*
X166142000Y-114097400D01*
X170662000Y-115161837D02*
X170662000Y-115297400D01*
X171402000Y-117917400D02*
X170902000Y-117917400D01*
X170662000Y-117552963D02*
X169597563Y-118617400D01*
X166142000Y-114097400D02*
X166142000Y-115297400D01*
X171152000Y-118167400D02*
X171152000Y-117667400D01*
X170662000Y-117552963D02*
X170662000Y-117417400D01*
%TO.C,A2*%
X173726000Y-99466400D02*
X176396000Y-99466400D01*
X173726000Y-102136400D02*
X173726000Y-99466400D01*
X163566000Y-102136400D02*
X163566000Y-81556400D01*
X176396000Y-102136400D02*
X176396000Y-100736400D01*
X173726000Y-99466400D02*
X173726000Y-81556400D01*
X176396000Y-81556400D02*
X160896000Y-81556400D01*
X174996000Y-102136400D02*
X176396000Y-102136400D01*
X176396000Y-99466400D02*
X176396000Y-81556400D01*
X160896000Y-102136400D02*
X173726000Y-102136400D01*
X160896000Y-81556400D02*
X160896000Y-102136400D01*
%TO.C,A3*%
X176396000Y-74066400D02*
X176396000Y-56156400D01*
X160896000Y-76736400D02*
X173726000Y-76736400D01*
X163566000Y-76736400D02*
X163566000Y-56156400D01*
X174996000Y-76736400D02*
X176396000Y-76736400D01*
X173726000Y-74066400D02*
X173726000Y-56156400D01*
X173726000Y-74066400D02*
X176396000Y-74066400D01*
X176396000Y-56156400D02*
X160896000Y-56156400D01*
X176396000Y-76736400D02*
X176396000Y-75336400D01*
X160896000Y-56156400D02*
X160896000Y-76736400D01*
X173726000Y-76736400D02*
X173726000Y-74066400D01*
%TO.C,A1*%
X163566000Y-127536400D02*
X163566000Y-106956400D01*
X173726000Y-124866400D02*
X176396000Y-124866400D01*
X173726000Y-124866400D02*
X173726000Y-106956400D01*
X160896000Y-127536400D02*
X173726000Y-127536400D01*
X176396000Y-124866400D02*
X176396000Y-106956400D01*
X160896000Y-106956400D02*
X160896000Y-127536400D01*
X173726000Y-127536400D02*
X173726000Y-124866400D01*
X176396000Y-127536400D02*
X176396000Y-126136400D01*
X176396000Y-106956400D02*
X160896000Y-106956400D01*
X174996000Y-127536400D02*
X176396000Y-127536400D01*
%TO.C,G\u002A\u002A\u002A*%
G36*
X148262551Y-114963574D02*
G01*
X148406329Y-114964347D01*
X148521762Y-114965730D01*
X148611342Y-114967800D01*
X148677562Y-114970633D01*
X148722913Y-114974308D01*
X148749889Y-114978902D01*
X148760751Y-114984167D01*
X148767279Y-115004708D01*
X148778988Y-115054384D01*
X148795132Y-115129525D01*
X148814964Y-115226463D01*
X148837736Y-115341531D01*
X148862701Y-115471061D01*
X148889114Y-115611384D01*
X148895419Y-115645365D01*
X148922202Y-115787737D01*
X148947961Y-115920195D01*
X148971917Y-116039067D01*
X148993292Y-116140677D01*
X149011310Y-116221351D01*
X149025193Y-116277414D01*
X149034164Y-116305191D01*
X149035460Y-116307202D01*
X149058148Y-116320702D01*
X149107044Y-116344047D01*
X149177197Y-116375236D01*
X149263658Y-116412266D01*
X149361477Y-116453137D01*
X149465705Y-116495845D01*
X149571391Y-116538389D01*
X149673587Y-116578768D01*
X149767342Y-116614979D01*
X149847706Y-116645020D01*
X149909730Y-116666890D01*
X149948465Y-116678586D01*
X149957217Y-116680000D01*
X149984305Y-116670082D01*
X150037885Y-116640437D01*
X150117700Y-116591227D01*
X150223494Y-116522617D01*
X150355010Y-116434770D01*
X150511992Y-116327848D01*
X150533126Y-116313333D01*
X150652316Y-116231897D01*
X150763694Y-116156745D01*
X150864111Y-116089929D01*
X150950420Y-116033502D01*
X151019474Y-115989518D01*
X151068126Y-115960029D01*
X151093228Y-115947090D01*
X151095223Y-115946667D01*
X151113708Y-115958176D01*
X151152109Y-115990606D01*
X151207279Y-116040809D01*
X151276071Y-116105638D01*
X151355340Y-116181945D01*
X151441938Y-116266583D01*
X151532719Y-116356404D01*
X151624537Y-116448262D01*
X151714246Y-116539008D01*
X151798698Y-116625496D01*
X151874748Y-116704577D01*
X151939249Y-116773106D01*
X151989054Y-116827933D01*
X152021018Y-116865913D01*
X152032000Y-116883726D01*
X152022831Y-116903529D01*
X151996724Y-116947475D01*
X151955772Y-117012344D01*
X151902073Y-117094916D01*
X151837723Y-117191970D01*
X151764816Y-117300286D01*
X151685449Y-117416643D01*
X151680192Y-117424298D01*
X151599839Y-117541572D01*
X151525060Y-117651317D01*
X151458069Y-117750242D01*
X151401075Y-117835053D01*
X151356292Y-117902460D01*
X151325931Y-117949170D01*
X151312204Y-117971892D01*
X151312015Y-117972292D01*
X151309320Y-117987757D01*
X151312665Y-118012870D01*
X151323205Y-118050810D01*
X151342093Y-118104758D01*
X151370485Y-118177896D01*
X151409532Y-118273404D01*
X151460391Y-118394462D01*
X151492990Y-118471152D01*
X151553604Y-118611434D01*
X151606865Y-118730811D01*
X151651755Y-118827149D01*
X151687259Y-118898312D01*
X151712360Y-118942164D01*
X151723666Y-118955795D01*
X151747249Y-118963683D01*
X151799771Y-118976620D01*
X151877357Y-118993798D01*
X151976130Y-119014409D01*
X152092214Y-119037645D01*
X152221735Y-119062697D01*
X152360815Y-119088758D01*
X152365333Y-119089591D01*
X152504000Y-119115464D01*
X152632680Y-119140095D01*
X152747601Y-119162714D01*
X152844988Y-119182552D01*
X152921069Y-119198840D01*
X152972072Y-119210808D01*
X152994224Y-119217688D01*
X152994500Y-119217879D01*
X152999892Y-119238226D01*
X153004555Y-119287394D01*
X153008485Y-119361000D01*
X153011677Y-119454663D01*
X153014127Y-119564002D01*
X153015831Y-119684634D01*
X153016783Y-119812179D01*
X153016981Y-119942253D01*
X153016420Y-120070476D01*
X153015094Y-120192466D01*
X153013001Y-120303841D01*
X153010135Y-120400219D01*
X153006492Y-120477219D01*
X153002069Y-120530459D01*
X152996860Y-120555557D01*
X152995823Y-120556757D01*
X152975492Y-120562457D01*
X152926132Y-120573415D01*
X152851500Y-120588879D01*
X152755355Y-120608101D01*
X152641454Y-120630328D01*
X152513555Y-120654810D01*
X152375417Y-120680797D01*
X152367770Y-120682222D01*
X152229143Y-120708520D01*
X152100556Y-120733801D01*
X151985773Y-120757259D01*
X151888554Y-120778086D01*
X151812662Y-120795477D01*
X151761859Y-120808622D01*
X151739907Y-120816716D01*
X151739627Y-120816982D01*
X151726704Y-120839727D01*
X151704320Y-120888374D01*
X151674247Y-120958386D01*
X151638253Y-121045227D01*
X151598111Y-121144361D01*
X151555589Y-121251250D01*
X151512458Y-121361358D01*
X151470488Y-121470149D01*
X151431450Y-121573086D01*
X151397113Y-121665633D01*
X151369249Y-121743254D01*
X151349628Y-121801411D01*
X151340018Y-121835568D01*
X151339533Y-121842260D01*
X151350857Y-121861206D01*
X151378936Y-121904326D01*
X151421581Y-121968368D01*
X151476601Y-122050079D01*
X151541808Y-122146207D01*
X151615012Y-122253498D01*
X151690438Y-122363486D01*
X151768992Y-122478602D01*
X151841179Y-122586003D01*
X151904866Y-122682394D01*
X151957921Y-122764479D01*
X151998213Y-122828961D01*
X152023610Y-122872544D01*
X152031999Y-122891628D01*
X152020521Y-122910001D01*
X151988177Y-122948342D01*
X151938107Y-123003501D01*
X151873449Y-123072326D01*
X151797344Y-123151665D01*
X151712930Y-123238366D01*
X151623346Y-123329279D01*
X151531731Y-123421251D01*
X151441224Y-123511131D01*
X151354963Y-123595768D01*
X151276089Y-123672010D01*
X151207740Y-123736705D01*
X151153055Y-123786702D01*
X151115173Y-123818850D01*
X151097353Y-123830000D01*
X151078535Y-123820860D01*
X151035557Y-123794853D01*
X150971658Y-123754097D01*
X150890076Y-123700710D01*
X150794049Y-123636811D01*
X150686815Y-123564519D01*
X150575086Y-123488334D01*
X150459825Y-123409855D01*
X150352365Y-123337727D01*
X150255988Y-123274074D01*
X150173976Y-123221018D01*
X150109611Y-123180684D01*
X150066174Y-123155197D01*
X150047177Y-123146667D01*
X150022560Y-123154283D01*
X149974821Y-123175230D01*
X149909983Y-123206654D01*
X149834066Y-123245703D01*
X149800989Y-123263334D01*
X149722085Y-123304721D01*
X149651590Y-123339648D01*
X149595582Y-123365254D01*
X149560141Y-123378680D01*
X149552982Y-123380000D01*
X149544810Y-123375408D01*
X149533160Y-123360338D01*
X149517170Y-123332848D01*
X149495979Y-123290995D01*
X149468727Y-123232838D01*
X149434553Y-123156435D01*
X149392594Y-123059844D01*
X149341991Y-122941123D01*
X149281883Y-122798330D01*
X149211407Y-122629523D01*
X149129704Y-122432761D01*
X149083375Y-122320878D01*
X149009577Y-122142364D01*
X148939448Y-121972407D01*
X148874046Y-121813590D01*
X148814427Y-121668496D01*
X148761650Y-121539710D01*
X148716772Y-121429815D01*
X148680852Y-121341394D01*
X148654947Y-121277031D01*
X148640114Y-121239310D01*
X148636962Y-121230510D01*
X148640722Y-121204582D01*
X148668528Y-121175462D01*
X148701228Y-121152541D01*
X148892302Y-121017850D01*
X149052475Y-120879180D01*
X149184167Y-120733452D01*
X149289798Y-120577588D01*
X149371789Y-120408509D01*
X149432559Y-120223136D01*
X149432943Y-120221667D01*
X149453576Y-120113665D01*
X149465906Y-119987075D01*
X149469582Y-119854508D01*
X149464256Y-119728577D01*
X149449579Y-119621893D01*
X149449531Y-119621667D01*
X149390388Y-119419121D01*
X149302186Y-119229799D01*
X149187520Y-119056488D01*
X149048990Y-118901974D01*
X148889192Y-118769044D01*
X148710723Y-118660485D01*
X148516182Y-118579083D01*
X148462249Y-118562413D01*
X148328863Y-118534183D01*
X148178333Y-118518820D01*
X148024488Y-118516871D01*
X147881158Y-118528882D01*
X147831137Y-118537459D01*
X147624384Y-118595723D01*
X147432497Y-118682820D01*
X147257684Y-118796746D01*
X147102149Y-118935500D01*
X146968100Y-119097077D01*
X146857742Y-119279477D01*
X146773282Y-119480695D01*
X146765314Y-119505000D01*
X146746028Y-119577548D01*
X146732589Y-119659277D01*
X146723758Y-119759264D01*
X146719904Y-119838334D01*
X146720965Y-120014964D01*
X146739883Y-120172413D01*
X146778653Y-120320817D01*
X146839272Y-120470311D01*
X146847880Y-120488334D01*
X146930728Y-120638307D01*
X147027490Y-120771657D01*
X147143360Y-120894095D01*
X147283527Y-121011334D01*
X147396004Y-121091429D01*
X147455739Y-121133284D01*
X147504493Y-121170438D01*
X147535813Y-121197807D01*
X147543714Y-121207802D01*
X147538930Y-121226855D01*
X147522027Y-121274663D01*
X147493804Y-121349254D01*
X147455060Y-121448655D01*
X147406594Y-121570893D01*
X147349206Y-121713995D01*
X147283695Y-121875988D01*
X147210860Y-122054899D01*
X147131500Y-122248756D01*
X147046413Y-122455586D01*
X146956400Y-122673415D01*
X146862260Y-122900271D01*
X146764791Y-123134181D01*
X146719520Y-123242500D01*
X146687403Y-123314177D01*
X146662109Y-123357920D01*
X146641050Y-123377771D01*
X146631481Y-123380000D01*
X146606573Y-123372377D01*
X146558526Y-123351399D01*
X146493337Y-123319901D01*
X146417002Y-123280719D01*
X146381352Y-123261734D01*
X146284458Y-123211413D01*
X146207510Y-123175356D01*
X146153322Y-123154791D01*
X146126037Y-123150595D01*
X146104361Y-123161439D01*
X146058673Y-123189091D01*
X145992341Y-123231351D01*
X145908735Y-123286018D01*
X145811224Y-123350891D01*
X145703177Y-123423770D01*
X145600478Y-123493862D01*
X145486712Y-123571581D01*
X145381267Y-123642952D01*
X145287368Y-123705842D01*
X145208241Y-123758118D01*
X145147114Y-123797648D01*
X145107211Y-123822298D01*
X145092033Y-123830000D01*
X145076519Y-123818582D01*
X145040184Y-123786019D01*
X144985665Y-123734847D01*
X144915597Y-123667602D01*
X144832618Y-123586820D01*
X144739365Y-123495037D01*
X144638474Y-123394790D01*
X144611055Y-123367390D01*
X144509057Y-123264891D01*
X144414855Y-123169351D01*
X144330981Y-123083405D01*
X144259972Y-123009692D01*
X144204361Y-122950847D01*
X144166684Y-122909508D01*
X144149475Y-122888310D01*
X144148666Y-122886412D01*
X144157786Y-122868855D01*
X144183725Y-122827103D01*
X144224350Y-122764387D01*
X144277529Y-122683933D01*
X144341129Y-122588971D01*
X144413018Y-122482729D01*
X144484016Y-122378713D01*
X144562419Y-122263972D01*
X144635258Y-122156722D01*
X144700263Y-122060359D01*
X144755162Y-121978276D01*
X144797685Y-121913866D01*
X144825560Y-121870522D01*
X144836170Y-121852503D01*
X144839111Y-121837245D01*
X144836543Y-121812785D01*
X144827389Y-121775952D01*
X144810574Y-121723573D01*
X144785021Y-121652477D01*
X144749654Y-121559492D01*
X144703398Y-121441446D01*
X144657887Y-121326978D01*
X144609274Y-121206172D01*
X144563749Y-121094854D01*
X144522971Y-120996945D01*
X144488603Y-120916367D01*
X144462305Y-120857043D01*
X144445740Y-120822895D01*
X144441682Y-120816544D01*
X144420942Y-120808614D01*
X144371142Y-120795599D01*
X144296034Y-120778303D01*
X144199366Y-120757531D01*
X144084888Y-120734088D01*
X143956350Y-120708778D01*
X143817502Y-120682407D01*
X143811721Y-120681329D01*
X143673142Y-120655301D01*
X143544632Y-120630757D01*
X143429942Y-120608446D01*
X143332824Y-120589113D01*
X143257028Y-120573508D01*
X143206305Y-120562376D01*
X143184406Y-120556465D01*
X143184106Y-120556302D01*
X143178887Y-120536901D01*
X143174453Y-120488557D01*
X143170796Y-120415651D01*
X143167910Y-120322563D01*
X143165789Y-120213676D01*
X143164424Y-120093369D01*
X143163811Y-119966023D01*
X143163941Y-119836020D01*
X143164809Y-119707740D01*
X143166407Y-119585564D01*
X143168729Y-119473874D01*
X143171768Y-119377049D01*
X143175516Y-119299472D01*
X143179969Y-119245522D01*
X143185118Y-119219581D01*
X143186166Y-119218186D01*
X143206792Y-119211681D01*
X143256484Y-119200063D01*
X143331497Y-119184088D01*
X143428084Y-119164515D01*
X143542501Y-119142102D01*
X143671001Y-119117605D01*
X143809839Y-119091783D01*
X143823666Y-119089245D01*
X144005716Y-119055379D01*
X144155955Y-119026331D01*
X144275520Y-119001856D01*
X144365546Y-118981706D01*
X144427168Y-118965633D01*
X144461522Y-118953391D01*
X144468528Y-118948933D01*
X144483793Y-118925280D01*
X144509079Y-118876000D01*
X144542387Y-118805797D01*
X144581716Y-118719372D01*
X144625067Y-118621430D01*
X144670441Y-118516672D01*
X144715838Y-118409803D01*
X144759258Y-118305524D01*
X144798702Y-118208538D01*
X144832170Y-118123550D01*
X144857663Y-118055260D01*
X144873180Y-118008373D01*
X144876960Y-117988334D01*
X144866301Y-117967426D01*
X144838748Y-117922397D01*
X144796437Y-117856492D01*
X144741505Y-117772957D01*
X144676087Y-117675038D01*
X144602319Y-117565981D01*
X144522338Y-117449030D01*
X144515459Y-117439029D01*
X144435029Y-117321654D01*
X144360555Y-117212018D01*
X144294179Y-117113348D01*
X144238048Y-117028874D01*
X144194304Y-116961825D01*
X144165092Y-116915431D01*
X144152558Y-116892919D01*
X144152330Y-116892212D01*
X144156475Y-116877468D01*
X144174723Y-116850481D01*
X144208594Y-116809594D01*
X144259611Y-116753149D01*
X144329295Y-116679488D01*
X144419166Y-116586952D01*
X144530747Y-116473883D01*
X144600251Y-116404017D01*
X144712374Y-116292343D01*
X144813910Y-116192766D01*
X144902713Y-116107301D01*
X144976642Y-116037961D01*
X145033552Y-115986761D01*
X145071300Y-115955716D01*
X145086968Y-115946667D01*
X145107156Y-115955837D01*
X145151553Y-115981982D01*
X145216999Y-116023048D01*
X145300332Y-116076986D01*
X145398390Y-116141743D01*
X145508014Y-116215269D01*
X145626040Y-116295512D01*
X145652048Y-116313333D01*
X145802815Y-116416043D01*
X145932731Y-116502991D01*
X146040661Y-116573453D01*
X146125472Y-116626707D01*
X146186030Y-116662032D01*
X146221200Y-116678703D01*
X146227481Y-116680000D01*
X146255891Y-116673673D01*
X146309409Y-116656044D01*
X146383113Y-116629143D01*
X146472084Y-116595001D01*
X146571402Y-116555646D01*
X146676146Y-116513109D01*
X146781396Y-116469420D01*
X146882233Y-116426607D01*
X146973736Y-116386702D01*
X147050985Y-116351733D01*
X147109061Y-116323731D01*
X147143042Y-116304726D01*
X147149031Y-116299813D01*
X147158869Y-116274976D01*
X147173627Y-116219472D01*
X147192827Y-116135528D01*
X147215993Y-116025369D01*
X147242649Y-115891222D01*
X147272316Y-115735314D01*
X147287434Y-115653682D01*
X147313431Y-115513370D01*
X147338140Y-115382302D01*
X147360795Y-115264362D01*
X147380635Y-115163430D01*
X147396895Y-115083390D01*
X147408810Y-115028122D01*
X147415619Y-115001510D01*
X147415879Y-115000834D01*
X147431285Y-114963334D01*
X148087935Y-114963334D01*
X148262551Y-114963574D01*
G37*
G36*
X110050938Y-63454187D02*
G01*
X109853848Y-63454187D01*
X109853848Y-61705011D01*
X110050938Y-61705011D01*
X110050938Y-63454187D01*
G37*
G36*
X107652415Y-62254793D02*
G01*
X107728496Y-62269245D01*
X107762359Y-62279258D01*
X107804931Y-62293714D01*
X107807244Y-62389437D01*
X107807781Y-62426881D01*
X107807517Y-62457459D01*
X107806530Y-62477955D01*
X107804957Y-62485160D01*
X107795796Y-62481727D01*
X107776371Y-62472759D01*
X107752714Y-62461110D01*
X107688917Y-62434062D01*
X107622802Y-62417115D01*
X107549302Y-62409148D01*
X107513402Y-62408200D01*
X107471221Y-62408520D01*
X107440668Y-62410523D01*
X107416977Y-62414889D01*
X107395384Y-62422297D01*
X107386114Y-62426333D01*
X107335877Y-62455713D01*
X107300749Y-62491422D01*
X107280630Y-62533598D01*
X107275251Y-62574695D01*
X107277507Y-62607108D01*
X107285223Y-62635587D01*
X107299823Y-62661302D01*
X107322729Y-62685427D01*
X107355367Y-62709132D01*
X107399157Y-62733589D01*
X107455524Y-62759970D01*
X107525892Y-62789446D01*
X107545803Y-62797422D01*
X107631429Y-62834553D01*
X107701646Y-62872184D01*
X107757453Y-62911461D01*
X107799852Y-62953531D01*
X107829845Y-62999540D01*
X107848432Y-63050633D01*
X107856615Y-63107957D01*
X107856650Y-63153243D01*
X107853785Y-63194252D01*
X107848877Y-63224733D01*
X107840629Y-63250564D01*
X107830264Y-63272787D01*
X107792147Y-63329381D01*
X107740396Y-63378696D01*
X107676628Y-63419552D01*
X107602457Y-63450770D01*
X107574992Y-63459024D01*
X107544800Y-63464758D01*
X107502540Y-63469497D01*
X107452547Y-63473081D01*
X107399155Y-63475354D01*
X107346699Y-63476156D01*
X107299513Y-63475331D01*
X107261933Y-63472719D01*
X107249226Y-63470904D01*
X107209383Y-63462333D01*
X107167214Y-63451086D01*
X107128372Y-63438839D01*
X107098510Y-63427270D01*
X107092640Y-63424439D01*
X107069949Y-63412705D01*
X107069949Y-63310264D01*
X107070316Y-63271420D01*
X107071319Y-63239338D01*
X107072809Y-63217131D01*
X107074637Y-63207912D01*
X107074840Y-63207824D01*
X107084165Y-63212145D01*
X107100652Y-63222745D01*
X107103483Y-63224737D01*
X107131884Y-63241883D01*
X107170484Y-63261154D01*
X107213706Y-63280105D01*
X107255972Y-63296289D01*
X107291675Y-63307255D01*
X107325865Y-63312956D01*
X107369660Y-63316403D01*
X107417823Y-63317584D01*
X107465117Y-63316487D01*
X107506305Y-63313099D01*
X107534744Y-63307823D01*
X107586407Y-63286512D01*
X107624471Y-63256069D01*
X107648868Y-63216570D01*
X107659519Y-63168282D01*
X107658749Y-63128095D01*
X107649330Y-63092885D01*
X107629954Y-63061341D01*
X107599312Y-63032156D01*
X107556096Y-63004020D01*
X107498998Y-62975625D01*
X107443599Y-62952302D01*
X107353553Y-62914532D01*
X107278537Y-62878504D01*
X107217410Y-62843099D01*
X107169030Y-62807196D01*
X107132255Y-62769673D01*
X107105942Y-62729411D01*
X107088950Y-62685287D01*
X107080137Y-62636181D01*
X107078206Y-62593662D01*
X107079998Y-62544175D01*
X107086443Y-62504830D01*
X107099269Y-62469607D01*
X107120206Y-62432486D01*
X107127828Y-62420826D01*
X107169462Y-62371868D01*
X107224090Y-62328614D01*
X107288680Y-62293185D01*
X107337316Y-62274458D01*
X107407397Y-62257805D01*
X107486710Y-62249015D01*
X107570101Y-62248030D01*
X107652415Y-62254793D01*
G37*
G36*
X114191746Y-62284963D02*
G01*
X114248438Y-62291362D01*
X114292483Y-62300304D01*
X114376998Y-62331371D01*
X114455101Y-62375603D01*
X114524608Y-62431232D01*
X114583341Y-62496490D01*
X114629116Y-62569609D01*
X114632030Y-62575493D01*
X114646155Y-62604740D01*
X114657951Y-62630488D01*
X114667642Y-62654532D01*
X114675451Y-62678672D01*
X114681600Y-62704705D01*
X114686313Y-62734429D01*
X114689813Y-62769642D01*
X114692324Y-62812141D01*
X114694067Y-62863726D01*
X114695267Y-62926193D01*
X114696146Y-63001340D01*
X114696928Y-63090965D01*
X114696994Y-63099014D01*
X114699936Y-63454187D01*
X114263741Y-63454187D01*
X114263741Y-63164120D01*
X114263636Y-63080124D01*
X114263163Y-63010826D01*
X114262085Y-62954503D01*
X114260163Y-62909430D01*
X114257161Y-62873882D01*
X114252840Y-62846135D01*
X114246962Y-62824463D01*
X114239291Y-62807143D01*
X114229588Y-62792449D01*
X114217617Y-62778657D01*
X114209480Y-62770332D01*
X114170776Y-62741865D01*
X114128121Y-62727608D01*
X114084137Y-62726724D01*
X114041452Y-62738374D01*
X114002688Y-62761719D01*
X113970470Y-62795921D01*
X113947424Y-62840141D01*
X113942589Y-62855616D01*
X113937610Y-62880990D01*
X113938403Y-62904578D01*
X113945335Y-62934401D01*
X113946385Y-62938052D01*
X113967134Y-62983579D01*
X113998550Y-63017673D01*
X114038881Y-63039646D01*
X114086374Y-63048810D01*
X114139276Y-63044479D01*
X114183673Y-63031090D01*
X114187958Y-63030281D01*
X114191297Y-63032824D01*
X114193808Y-63040480D01*
X114195608Y-63055009D01*
X114196814Y-63078171D01*
X114197542Y-63111726D01*
X114197910Y-63157435D01*
X114198036Y-63217058D01*
X114198044Y-63247127D01*
X114197949Y-63313988D01*
X114197593Y-63366235D01*
X114196874Y-63405677D01*
X114195688Y-63434122D01*
X114193931Y-63453380D01*
X114191499Y-63465260D01*
X114188289Y-63471570D01*
X114185055Y-63473838D01*
X114167242Y-63476919D01*
X114137333Y-63478308D01*
X114099550Y-63478149D01*
X114058119Y-63476585D01*
X114017264Y-63473759D01*
X113981208Y-63469814D01*
X113959894Y-63466214D01*
X113870234Y-63439953D01*
X113788514Y-63400396D01*
X113712975Y-63346533D01*
X113653829Y-63290365D01*
X113595647Y-63219249D01*
X113551441Y-63143600D01*
X113520168Y-63061019D01*
X113500780Y-62969110D01*
X113496065Y-62928613D01*
X113495136Y-62833114D01*
X113509479Y-62740427D01*
X113537993Y-62652050D01*
X113579578Y-62569484D01*
X113633135Y-62494229D01*
X113697564Y-62427784D01*
X113771763Y-62371650D01*
X113854634Y-62327327D01*
X113945076Y-62296314D01*
X113962910Y-62292076D01*
X114009634Y-62285122D01*
X114066947Y-62281708D01*
X114129450Y-62281700D01*
X114191746Y-62284963D01*
G37*
G36*
X109951335Y-48587669D02*
G01*
X109985329Y-48604544D01*
X110028138Y-48632916D01*
X110080005Y-48672986D01*
X110141175Y-48724955D01*
X110211892Y-48789024D01*
X110292400Y-48865395D01*
X110382945Y-48954269D01*
X110408432Y-48979721D01*
X110568261Y-49143125D01*
X110734167Y-49318954D01*
X110904437Y-49505174D01*
X111077358Y-49699751D01*
X111251219Y-49900649D01*
X111424305Y-50105835D01*
X111594906Y-50313273D01*
X111761308Y-50520931D01*
X111921799Y-50726772D01*
X112074665Y-50928763D01*
X112218195Y-51124869D01*
X112240904Y-51156579D01*
X112379628Y-51352548D01*
X112510951Y-51541347D01*
X112634601Y-51722538D01*
X112750308Y-51895680D01*
X112857802Y-52060335D01*
X112956812Y-52216063D01*
X113047067Y-52362425D01*
X113128298Y-52498982D01*
X113200233Y-52625294D01*
X113262602Y-52740922D01*
X113315134Y-52845426D01*
X113357560Y-52938368D01*
X113389608Y-53019308D01*
X113392104Y-53026360D01*
X113418245Y-53117406D01*
X113437768Y-53222345D01*
X113450699Y-53341459D01*
X113457069Y-53475032D01*
X113456905Y-53623345D01*
X113456020Y-53657161D01*
X113440603Y-53924648D01*
X113410771Y-54195484D01*
X113367074Y-54466851D01*
X113310064Y-54735927D01*
X113240292Y-54999894D01*
X113158310Y-55255933D01*
X113125865Y-55345752D01*
X113090739Y-55436303D01*
X113049156Y-55537255D01*
X113002509Y-55645616D01*
X112952188Y-55758393D01*
X112899587Y-55872594D01*
X112846098Y-55985225D01*
X112793111Y-56093293D01*
X112742020Y-56193806D01*
X112694217Y-56283771D01*
X112666063Y-56334303D01*
X112566465Y-56500483D01*
X112466332Y-56650374D01*
X112365531Y-56784109D01*
X112263926Y-56901819D01*
X112161383Y-57003635D01*
X112057769Y-57089688D01*
X111952948Y-57160110D01*
X111846786Y-57215033D01*
X111739150Y-57254588D01*
X111718969Y-57260257D01*
X111682585Y-57269313D01*
X111650274Y-57275387D01*
X111616960Y-57279026D01*
X111577566Y-57280779D01*
X111527019Y-57281191D01*
X111525008Y-57281188D01*
X111449350Y-57278806D01*
X111381798Y-57271181D01*
X111317786Y-57257169D01*
X111252751Y-57235629D01*
X111182127Y-57205418D01*
X111139040Y-57184589D01*
X111070663Y-57148207D01*
X111006165Y-57108755D01*
X110943052Y-57064311D01*
X110878824Y-57012954D01*
X110810987Y-56952761D01*
X110737043Y-56881810D01*
X110707905Y-56852719D01*
X110622881Y-56764773D01*
X110548538Y-56682486D01*
X110482018Y-56602219D01*
X110420462Y-56520334D01*
X110361011Y-56433193D01*
X110300808Y-56337159D01*
X110294218Y-56326231D01*
X110192025Y-56144397D01*
X110094559Y-55946835D01*
X110001820Y-55733549D01*
X109913809Y-55504540D01*
X109830528Y-55259812D01*
X109751975Y-54999366D01*
X109678152Y-54723204D01*
X109609060Y-54431329D01*
X109544699Y-54123744D01*
X109485069Y-53800451D01*
X109430171Y-53461452D01*
X109380005Y-53106749D01*
X109334573Y-52736345D01*
X109293875Y-52350242D01*
X109258973Y-51961364D01*
X109253747Y-51896570D01*
X109247679Y-51818942D01*
X109241036Y-51732038D01*
X109234085Y-51639409D01*
X109227092Y-51544612D01*
X109220324Y-51451200D01*
X109214046Y-51362728D01*
X109213413Y-51353669D01*
X109205965Y-51248252D01*
X109199397Y-51158127D01*
X109193603Y-51082192D01*
X109188475Y-51019344D01*
X109183906Y-50968481D01*
X109179789Y-50928500D01*
X109176017Y-50898300D01*
X109172484Y-50876778D01*
X109169081Y-50862831D01*
X109165702Y-50855357D01*
X109164934Y-50854455D01*
X109153250Y-50853813D01*
X109133863Y-50866978D01*
X109107122Y-50893445D01*
X109073377Y-50932709D01*
X109032977Y-50984261D01*
X108986273Y-51047598D01*
X108933615Y-51122211D01*
X108875351Y-51207596D01*
X108811833Y-51303246D01*
X108743409Y-51408655D01*
X108670429Y-51523316D01*
X108593244Y-51646725D01*
X108512204Y-51778373D01*
X108427657Y-51917756D01*
X108411304Y-51944940D01*
X108348810Y-52049193D01*
X108294366Y-52140754D01*
X108247422Y-52220924D01*
X108207427Y-52291003D01*
X108173830Y-52352292D01*
X108146078Y-52406090D01*
X108123621Y-52453697D01*
X108105908Y-52496415D01*
X108092388Y-52535541D01*
X108082509Y-52572378D01*
X108075720Y-52608225D01*
X108071470Y-52644382D01*
X108069207Y-52682149D01*
X108068382Y-52722827D01*
X108068363Y-52753831D01*
X108068903Y-52881119D01*
X108136722Y-53111057D01*
X108243265Y-53462667D01*
X108351387Y-53799948D01*
X108461895Y-54124977D01*
X108575593Y-54439833D01*
X108693287Y-54746591D01*
X108815783Y-55047330D01*
X108943885Y-55344126D01*
X109078400Y-55639057D01*
X109220134Y-55934200D01*
X109271961Y-56038668D01*
X109367028Y-56226220D01*
X109457883Y-56400087D01*
X109545631Y-56562123D01*
X109631375Y-56714183D01*
X109716218Y-56858124D01*
X109801263Y-56995799D01*
X109887614Y-57129064D01*
X109976374Y-57259775D01*
X110068646Y-57389785D01*
X110105768Y-57440626D01*
X110239332Y-57616534D01*
X110369717Y-57776846D01*
X110496868Y-57921512D01*
X110620732Y-58050483D01*
X110741253Y-58163708D01*
X110858378Y-58261138D01*
X110972051Y-58342723D01*
X111082219Y-58408413D01*
X111188828Y-58458157D01*
X111233479Y-58474605D01*
X111265666Y-58484877D01*
X111293160Y-58491674D01*
X111321055Y-58495693D01*
X111354443Y-58497630D01*
X111398418Y-58498183D01*
X111405933Y-58498189D01*
X111449420Y-58497971D01*
X111480746Y-58496848D01*
X111504172Y-58494116D01*
X111523961Y-58489073D01*
X111544375Y-58481015D01*
X111563422Y-58472210D01*
X111593429Y-58457197D01*
X111623435Y-58440296D01*
X111655424Y-58420117D01*
X111691381Y-58395275D01*
X111733293Y-58364380D01*
X111783146Y-58326046D01*
X111842924Y-58278884D01*
X111863345Y-58262604D01*
X111972205Y-58174193D01*
X112074488Y-58087896D01*
X112173554Y-58000692D01*
X112272764Y-57909561D01*
X112375476Y-57811484D01*
X112482383Y-57706103D01*
X112568255Y-57619626D01*
X112644430Y-57541205D01*
X112713484Y-57467986D01*
X112777998Y-57397114D01*
X112840549Y-57325736D01*
X112903716Y-57250996D01*
X112970078Y-57170042D01*
X112998334Y-57134982D01*
X113095998Y-57010786D01*
X113187163Y-56889313D01*
X113272463Y-56769252D01*
X113352535Y-56649294D01*
X113428013Y-56528128D01*
X113499534Y-56404445D01*
X113567732Y-56276936D01*
X113633242Y-56144289D01*
X113696701Y-56005196D01*
X113758744Y-55858347D01*
X113820006Y-55702431D01*
X113881122Y-55536139D01*
X113942729Y-55358162D01*
X114005460Y-55167188D01*
X114069953Y-54961908D01*
X114099658Y-54864716D01*
X114127432Y-54773998D01*
X114151322Y-54697995D01*
X114171754Y-54635576D01*
X114189157Y-54585607D01*
X114203956Y-54546956D01*
X114216580Y-54518490D01*
X114227454Y-54499077D01*
X114237007Y-54487583D01*
X114243388Y-54483545D01*
X114255501Y-54483982D01*
X114272098Y-54494553D01*
X114295632Y-54516848D01*
X114297027Y-54518292D01*
X114323723Y-54551819D01*
X114353559Y-54599532D01*
X114385872Y-54659641D01*
X114419997Y-54730356D01*
X114455269Y-54809884D01*
X114491023Y-54896437D01*
X114526595Y-54988222D01*
X114561320Y-55083449D01*
X114594534Y-55180328D01*
X114625571Y-55277068D01*
X114653768Y-55371877D01*
X114678459Y-55462966D01*
X114698980Y-55548544D01*
X114714666Y-55626820D01*
X114719609Y-55656806D01*
X114729859Y-55743370D01*
X114736156Y-55839410D01*
X114738309Y-55938415D01*
X114736126Y-56033873D01*
X114732358Y-56090177D01*
X114718414Y-56211493D01*
X114698314Y-56322386D01*
X114670844Y-56428095D01*
X114634792Y-56533857D01*
X114622065Y-56566521D01*
X114493867Y-56869308D01*
X114351843Y-57172024D01*
X114197250Y-57472555D01*
X114031344Y-57768781D01*
X113855381Y-58058586D01*
X113670619Y-58339852D01*
X113478313Y-58610463D01*
X113279721Y-58868301D01*
X113192896Y-58974491D01*
X113083538Y-59103912D01*
X112973544Y-59230168D01*
X112860486Y-59355916D01*
X112741935Y-59483816D01*
X112615463Y-59616524D01*
X112478641Y-59756700D01*
X112473802Y-59761605D01*
X112366201Y-59869432D01*
X112257606Y-59975956D01*
X112148898Y-60080416D01*
X112040960Y-60182052D01*
X111934675Y-60280102D01*
X111830923Y-60373807D01*
X111730589Y-60462406D01*
X111634553Y-60545137D01*
X111543699Y-60621241D01*
X111458909Y-60689957D01*
X111381064Y-60750524D01*
X111311048Y-60802181D01*
X111249742Y-60844169D01*
X111198029Y-60875726D01*
X111158760Y-60895280D01*
X111138104Y-60902640D01*
X111124304Y-60902316D01*
X111109600Y-60894112D01*
X111109488Y-60894035D01*
X111097748Y-60885463D01*
X111087263Y-60876017D01*
X111075993Y-60863140D01*
X111061898Y-60844273D01*
X111042940Y-60816857D01*
X111017078Y-60778336D01*
X111016216Y-60777045D01*
X110998368Y-60749687D01*
X110979724Y-60719767D01*
X110959786Y-60686332D01*
X110938058Y-60648435D01*
X110914041Y-60605124D01*
X110887237Y-60555450D01*
X110857149Y-60498462D01*
X110823279Y-60433210D01*
X110785129Y-60358745D01*
X110742202Y-60274116D01*
X110694000Y-60178373D01*
X110640024Y-60070566D01*
X110579778Y-59949746D01*
X110523592Y-59836760D01*
X110435927Y-59660604D01*
X110354784Y-59498234D01*
X110279608Y-59348617D01*
X110209843Y-59210718D01*
X110144934Y-59083501D01*
X110084326Y-58965934D01*
X110027464Y-58856981D01*
X109973791Y-58755609D01*
X109922753Y-58660781D01*
X109873795Y-58571465D01*
X109826361Y-58486625D01*
X109779896Y-58405228D01*
X109733844Y-58326238D01*
X109687651Y-58248622D01*
X109640761Y-58171344D01*
X109592618Y-58093371D01*
X109558185Y-58038312D01*
X109469350Y-57898686D01*
X109375264Y-57754078D01*
X109276709Y-57605551D01*
X109174470Y-57454168D01*
X109069330Y-57300993D01*
X108962072Y-57147089D01*
X108853481Y-56993519D01*
X108744338Y-56841346D01*
X108635429Y-56691633D01*
X108527536Y-56545444D01*
X108421443Y-56403842D01*
X108317933Y-56267890D01*
X108217790Y-56138650D01*
X108121798Y-56017188D01*
X108030739Y-55904564D01*
X107945398Y-55801844D01*
X107866557Y-55710089D01*
X107795001Y-55630364D01*
X107743877Y-55576317D01*
X107694305Y-55526632D01*
X107654536Y-55489588D01*
X107624135Y-55464982D01*
X107602665Y-55452614D01*
X107589691Y-55452280D01*
X107584777Y-55463780D01*
X107587489Y-55486911D01*
X107592558Y-55506163D01*
X107598426Y-55524591D01*
X107606063Y-55545832D01*
X107616132Y-55571415D01*
X107629298Y-55602868D01*
X107646226Y-55641719D01*
X107667580Y-55689497D01*
X107694025Y-55747729D01*
X107726225Y-55817944D01*
X107759846Y-55890850D01*
X107868279Y-56131096D01*
X107966349Y-56360246D01*
X108054466Y-56579604D01*
X108133036Y-56790473D01*
X108202469Y-56994155D01*
X108263174Y-57191955D01*
X108315559Y-57385174D01*
X108360032Y-57575118D01*
X108397002Y-57763088D01*
X108426878Y-57950388D01*
X108442054Y-58067055D01*
X108449333Y-58140344D01*
X108455350Y-58225253D01*
X108460015Y-58317969D01*
X108463242Y-58414677D01*
X108464944Y-58511561D01*
X108465033Y-58604809D01*
X108463421Y-58690604D01*
X108460022Y-58765133D01*
X108458527Y-58786176D01*
X108448848Y-58891798D01*
X108436618Y-58992300D01*
X108421167Y-59091336D01*
X108401824Y-59192563D01*
X108377920Y-59299633D01*
X108348783Y-59416203D01*
X108330141Y-59486221D01*
X108283889Y-59651156D01*
X108236490Y-59809277D01*
X108188287Y-59959777D01*
X108139619Y-60101846D01*
X108090828Y-60234678D01*
X108042253Y-60357464D01*
X107994237Y-60469396D01*
X107947120Y-60569666D01*
X107901242Y-60657465D01*
X107856945Y-60731986D01*
X107814568Y-60792421D01*
X107774454Y-60837961D01*
X107751822Y-60857641D01*
X107728455Y-60873967D01*
X107709874Y-60881566D01*
X107688710Y-60882759D01*
X107675387Y-60881730D01*
X107645019Y-60874844D01*
X107610142Y-60859178D01*
X107569807Y-60834020D01*
X107523064Y-60798658D01*
X107468966Y-60752381D01*
X107406562Y-60694477D01*
X107344233Y-60633550D01*
X107228055Y-60513200D01*
X107107212Y-60379185D01*
X106982957Y-60233161D01*
X106856546Y-60076783D01*
X106729234Y-59911707D01*
X106602276Y-59739588D01*
X106476926Y-59562082D01*
X106354439Y-59380843D01*
X106236070Y-59197528D01*
X106148892Y-59056612D01*
X105977362Y-58758075D01*
X105820456Y-58452202D01*
X105678382Y-58139525D01*
X105551348Y-57820577D01*
X105439563Y-57495891D01*
X105343234Y-57166000D01*
X105262570Y-56831437D01*
X105242372Y-56734782D01*
X105232797Y-56684829D01*
X105225266Y-56638618D01*
X105219686Y-56593662D01*
X105215965Y-56547476D01*
X105214008Y-56497574D01*
X105213724Y-56441471D01*
X105215018Y-56376680D01*
X105217798Y-56300717D01*
X105221971Y-56211094D01*
X105222422Y-56202061D01*
X105238252Y-55967666D01*
X105262082Y-55741728D01*
X105294451Y-55522284D01*
X105335896Y-55307373D01*
X105386956Y-55095030D01*
X105448169Y-54883294D01*
X105520072Y-54670203D01*
X105603205Y-54453793D01*
X105698106Y-54232102D01*
X105805311Y-54003168D01*
X105850423Y-53911795D01*
X105965403Y-53690069D01*
X106093136Y-53458844D01*
X106233325Y-53218592D01*
X106385673Y-52969785D01*
X106549882Y-52712895D01*
X106725654Y-52448395D01*
X106912693Y-52176755D01*
X107110700Y-51898448D01*
X107175323Y-51809441D01*
X107270576Y-51680247D01*
X107375640Y-51540281D01*
X107489355Y-51390993D01*
X107610561Y-51233833D01*
X107738099Y-51070252D01*
X107870807Y-50901701D01*
X108007528Y-50729630D01*
X108147100Y-50555489D01*
X108288364Y-50380729D01*
X108430161Y-50206801D01*
X108571330Y-50035154D01*
X108710712Y-49867240D01*
X108847147Y-49704509D01*
X108979474Y-49548412D01*
X109036864Y-49481313D01*
X109160268Y-49338293D01*
X109274003Y-49208248D01*
X109378242Y-49091002D01*
X109473158Y-48986381D01*
X109558923Y-48894210D01*
X109635711Y-48814315D01*
X109703693Y-48746521D01*
X109763042Y-48690653D01*
X109813932Y-48646537D01*
X109856534Y-48613997D01*
X109891022Y-48592859D01*
X109917569Y-48582948D01*
X109925910Y-48582089D01*
X109951335Y-48587669D01*
G37*
G36*
X102364225Y-62698274D02*
G01*
X102400803Y-62602653D01*
X102437124Y-62507734D01*
X102472716Y-62414750D01*
X102507108Y-62324935D01*
X102539828Y-62239522D01*
X102570405Y-62159746D01*
X102598365Y-62086840D01*
X102623239Y-62022038D01*
X102644553Y-61966573D01*
X102661836Y-61921679D01*
X102673452Y-61891597D01*
X102710895Y-61794865D01*
X102814668Y-61797158D01*
X102918441Y-61799450D01*
X103235865Y-62624766D01*
X103553288Y-63450081D01*
X103446079Y-63452382D01*
X103405667Y-63452775D01*
X103371338Y-63452215D01*
X103346346Y-63450821D01*
X103333944Y-63448710D01*
X103333310Y-63448276D01*
X103329138Y-63439222D01*
X103320039Y-63416726D01*
X103306772Y-63382758D01*
X103290096Y-63339285D01*
X103270771Y-63288275D01*
X103249554Y-63231696D01*
X103242921Y-63213896D01*
X103158093Y-62985923D01*
X102809644Y-62988064D01*
X102461196Y-62990204D01*
X102378970Y-63222195D01*
X102296745Y-63454187D01*
X102186871Y-63454187D01*
X102146540Y-63453988D01*
X102112864Y-63453444D01*
X102088850Y-63452632D01*
X102077502Y-63451630D01*
X102076997Y-63451358D01*
X102079856Y-63443551D01*
X102088121Y-63421640D01*
X102101318Y-63386860D01*
X102118976Y-63340444D01*
X102140623Y-63283626D01*
X102165788Y-63217639D01*
X102193998Y-63143718D01*
X102224783Y-63063096D01*
X102257670Y-62977007D01*
X102292187Y-62886684D01*
X102322063Y-62808532D01*
X102528662Y-62808532D01*
X102536562Y-62809730D01*
X102559013Y-62810829D01*
X102594142Y-62811793D01*
X102640076Y-62812590D01*
X102694942Y-62813186D01*
X102756867Y-62813547D01*
X102811615Y-62813644D01*
X103094568Y-62813644D01*
X103083427Y-62782848D01*
X103078256Y-62768667D01*
X103068076Y-62740853D01*
X103053544Y-62701191D01*
X103035312Y-62651466D01*
X103014035Y-62593462D01*
X102990368Y-62528965D01*
X102964965Y-62459759D01*
X102951679Y-62423569D01*
X102925527Y-62351844D01*
X102900837Y-62283177D01*
X102878269Y-62219475D01*
X102858486Y-62162647D01*
X102842149Y-62114601D01*
X102829917Y-62077245D01*
X102822453Y-62052486D01*
X102820794Y-62045813D01*
X102810518Y-61996540D01*
X102799986Y-62041707D01*
X102795030Y-62058660D01*
X102785027Y-62089250D01*
X102770598Y-62131698D01*
X102752365Y-62184225D01*
X102730948Y-62245054D01*
X102706968Y-62312404D01*
X102681048Y-62384499D01*
X102659058Y-62445147D01*
X102632562Y-62518055D01*
X102607871Y-62586200D01*
X102585541Y-62648038D01*
X102566125Y-62702024D01*
X102550177Y-62746614D01*
X102538252Y-62780264D01*
X102530904Y-62801429D01*
X102528662Y-62808532D01*
X102322063Y-62808532D01*
X102327862Y-62793362D01*
X102364225Y-62698274D01*
G37*
G36*
X109421817Y-61728337D02*
G01*
X109459463Y-61747909D01*
X109486632Y-61778455D01*
X109501547Y-61818279D01*
X109503886Y-61844201D01*
X109496957Y-61889358D01*
X109476915Y-61925160D01*
X109444878Y-61950454D01*
X109401963Y-61964086D01*
X109386132Y-61965795D01*
X109353333Y-61965825D01*
X109329070Y-61959941D01*
X109313828Y-61951902D01*
X109281968Y-61923799D01*
X109262715Y-61889674D01*
X109255288Y-61852441D01*
X109258909Y-61815013D01*
X109272798Y-61780304D01*
X109296177Y-61751228D01*
X109328265Y-61730698D01*
X109368284Y-61721628D01*
X109375467Y-61721435D01*
X109421817Y-61728337D01*
G37*
G36*
X106428753Y-62249348D02*
G01*
X106477762Y-62252923D01*
X106520674Y-62258793D01*
X106552394Y-62266719D01*
X106552587Y-62266790D01*
X106616853Y-62298712D01*
X106671481Y-62343771D01*
X106716241Y-62401640D01*
X106750901Y-62471993D01*
X106775232Y-62554504D01*
X106782192Y-62591917D01*
X106784045Y-62612095D01*
X106785728Y-62647151D01*
X106787213Y-62695541D01*
X106788470Y-62755721D01*
X106789472Y-62826145D01*
X106790190Y-62905269D01*
X106790594Y-62991549D01*
X106790675Y-63049741D01*
X106790737Y-63454187D01*
X106593647Y-63454187D01*
X106593647Y-63061515D01*
X106593449Y-62961654D01*
X106592866Y-62872547D01*
X106591918Y-62795135D01*
X106590623Y-62730359D01*
X106589001Y-62679160D01*
X106587070Y-62642478D01*
X106584850Y-62621256D01*
X106584794Y-62620953D01*
X106566459Y-62552880D01*
X106538893Y-62498305D01*
X106501703Y-62456877D01*
X106454493Y-62428250D01*
X106396866Y-62412073D01*
X106343178Y-62407863D01*
X106304125Y-62408754D01*
X106275093Y-62412843D01*
X106249816Y-62421236D01*
X106238944Y-62426244D01*
X106185513Y-62461061D01*
X106137824Y-62509381D01*
X106097878Y-62568717D01*
X106067675Y-62636579D01*
X106066109Y-62641190D01*
X106061928Y-62654341D01*
X106058438Y-62667553D01*
X106055563Y-62682428D01*
X106053225Y-62700567D01*
X106051349Y-62723569D01*
X106049856Y-62753038D01*
X106048671Y-62790572D01*
X106047715Y-62837775D01*
X106046913Y-62896245D01*
X106046186Y-62967586D01*
X106045459Y-63053397D01*
X106045292Y-63074378D01*
X106042273Y-63454187D01*
X105855656Y-63454187D01*
X105852917Y-63045635D01*
X105852279Y-62953118D01*
X105851666Y-62875504D01*
X105851006Y-62811273D01*
X105850230Y-62758905D01*
X105849266Y-62716880D01*
X105848045Y-62683678D01*
X105846494Y-62657777D01*
X105844545Y-62637658D01*
X105842126Y-62621800D01*
X105839167Y-62608683D01*
X105835598Y-62596787D01*
X105831540Y-62585131D01*
X105806448Y-62526845D01*
X105776988Y-62482541D01*
X105740791Y-62449897D01*
X105695490Y-62426594D01*
X105657736Y-62414760D01*
X105593753Y-62406164D01*
X105532593Y-62412890D01*
X105475697Y-62433892D01*
X105424507Y-62468126D01*
X105380464Y-62514547D01*
X105345009Y-62572110D01*
X105319583Y-62639771D01*
X105313631Y-62664177D01*
X105310987Y-62685768D01*
X105308778Y-62723591D01*
X105307011Y-62777459D01*
X105305687Y-62847186D01*
X105304812Y-62932583D01*
X105304390Y-63033466D01*
X105304349Y-63080941D01*
X105304349Y-63454187D01*
X105107259Y-63454187D01*
X105107259Y-62271646D01*
X105303793Y-62271646D01*
X105306124Y-62357331D01*
X105308455Y-62443017D01*
X105345409Y-62396638D01*
X105398100Y-62342509D01*
X105461269Y-62297490D01*
X105517012Y-62270113D01*
X105540055Y-62262025D01*
X105563461Y-62256648D01*
X105591483Y-62253452D01*
X105628372Y-62251902D01*
X105665681Y-62251496D01*
X105709052Y-62251540D01*
X105740261Y-62252517D01*
X105763573Y-62255125D01*
X105783247Y-62260063D01*
X105803546Y-62268031D01*
X105823959Y-62277465D01*
X105877158Y-62309281D01*
X105925805Y-62350783D01*
X105965605Y-62397843D01*
X105986958Y-62434073D01*
X106007529Y-62477426D01*
X106039051Y-62431658D01*
X106090406Y-62369943D01*
X106151187Y-62318858D01*
X106218678Y-62280271D01*
X106290162Y-62256053D01*
X106296056Y-62254775D01*
X106332807Y-62250035D01*
X106378737Y-62248306D01*
X106428753Y-62249348D01*
G37*
G36*
X113239047Y-62398337D02*
G01*
X113239520Y-62503659D01*
X113239973Y-62593801D01*
X113240451Y-62670008D01*
X113240997Y-62733524D01*
X113241657Y-62785594D01*
X113242475Y-62827462D01*
X113243496Y-62860373D01*
X113244763Y-62885570D01*
X113246321Y-62904299D01*
X113248216Y-62917804D01*
X113250491Y-62927328D01*
X113253191Y-62934118D01*
X113256360Y-62939417D01*
X113258498Y-62942388D01*
X113282334Y-62966438D01*
X113313571Y-62982106D01*
X113355586Y-62990804D01*
X113378888Y-62992820D01*
X113434320Y-62996163D01*
X113434320Y-63454187D01*
X113321404Y-63453534D01*
X113274780Y-63452470D01*
X113229225Y-63450037D01*
X113189699Y-63446588D01*
X113161164Y-63442472D01*
X113159215Y-63442061D01*
X113070114Y-63414968D01*
X112991450Y-63375230D01*
X112923457Y-63323074D01*
X112866371Y-63258726D01*
X112820423Y-63182412D01*
X112785851Y-63094359D01*
X112780617Y-63076431D01*
X112777722Y-63064901D01*
X112775211Y-63051851D01*
X112773050Y-63036041D01*
X112771204Y-63016232D01*
X112769637Y-62991186D01*
X112768315Y-62959662D01*
X112767203Y-62920423D01*
X112766265Y-62872228D01*
X112765468Y-62813839D01*
X112764776Y-62744017D01*
X112764154Y-62661522D01*
X112763567Y-62565115D01*
X112762980Y-62453557D01*
X112762964Y-62450259D01*
X112760104Y-61877465D01*
X113236759Y-61877465D01*
X113239047Y-62398337D01*
G37*
G36*
X109476092Y-63454187D02*
G01*
X109279001Y-63454187D01*
X109279001Y-62271646D01*
X109476092Y-62271646D01*
X109476092Y-63454187D01*
G37*
G36*
X115357658Y-62396880D02*
G01*
X115358150Y-62505647D01*
X115358628Y-62599252D01*
X115359210Y-62678959D01*
X115360015Y-62746029D01*
X115361162Y-62801726D01*
X115362769Y-62847311D01*
X115364956Y-62884047D01*
X115367841Y-62913196D01*
X115371542Y-62936021D01*
X115376180Y-62953784D01*
X115381871Y-62967748D01*
X115388736Y-62979175D01*
X115396892Y-62989327D01*
X115406459Y-62999468D01*
X115415178Y-63008389D01*
X115450772Y-63034261D01*
X115492376Y-63047210D01*
X115536691Y-63047845D01*
X115580419Y-63036776D01*
X115620261Y-63014610D01*
X115652917Y-62981957D01*
X115665344Y-62962223D01*
X115681290Y-62916151D01*
X115682938Y-62869139D01*
X115671559Y-62824214D01*
X115648423Y-62784404D01*
X115614803Y-62752738D01*
X115571967Y-62732244D01*
X115568403Y-62731237D01*
X115528704Y-62726395D01*
X115487714Y-62734124D01*
X115452441Y-62749116D01*
X115421646Y-62764705D01*
X115421646Y-62288383D01*
X115442602Y-62283123D01*
X115459012Y-62281356D01*
X115487611Y-62280558D01*
X115524192Y-62280776D01*
X115559624Y-62281843D01*
X115653698Y-62291644D01*
X115738514Y-62313505D01*
X115816318Y-62348474D01*
X115889356Y-62397600D01*
X115959875Y-62461931D01*
X115971292Y-62473938D01*
X116032010Y-62550538D01*
X116078068Y-62634419D01*
X116109280Y-62725099D01*
X116125460Y-62822097D01*
X116127886Y-62879340D01*
X116122653Y-62966362D01*
X116106011Y-63046445D01*
X116076547Y-63125684D01*
X116065152Y-63149885D01*
X116044908Y-63188716D01*
X116025002Y-63220403D01*
X116001599Y-63250160D01*
X115970865Y-63283200D01*
X115956334Y-63297831D01*
X115887685Y-63359488D01*
X115819076Y-63406544D01*
X115747338Y-63440354D01*
X115669300Y-63462274D01*
X115581792Y-63473661D01*
X115540721Y-63475650D01*
X115488257Y-63476431D01*
X115447422Y-63475195D01*
X115413510Y-63471602D01*
X115381813Y-63465315D01*
X115375591Y-63463773D01*
X115337674Y-63452234D01*
X115294695Y-63436360D01*
X115256516Y-63419841D01*
X115172758Y-63372485D01*
X115101976Y-63316346D01*
X115043127Y-63250195D01*
X114995171Y-63172802D01*
X114957067Y-63082940D01*
X114948116Y-63055680D01*
X114925261Y-62981992D01*
X114922559Y-62429728D01*
X114919857Y-61877465D01*
X115355260Y-61877465D01*
X115357658Y-62396880D01*
G37*
G36*
X117039428Y-62778679D02*
G01*
X117000421Y-62783880D01*
X116955654Y-62795574D01*
X116920498Y-62816541D01*
X116897671Y-62845076D01*
X116895598Y-62849616D01*
X116889324Y-62870432D01*
X116882646Y-62901859D01*
X116876730Y-62938158D01*
X116875168Y-62950034D01*
X116857789Y-63053975D01*
X116832587Y-63144509D01*
X116798980Y-63222969D01*
X116756381Y-63290693D01*
X116704207Y-63349015D01*
X116698110Y-63354685D01*
X116646534Y-63396616D01*
X116592626Y-63429196D01*
X116533554Y-63453406D01*
X116466487Y-63470229D01*
X116388592Y-63480647D01*
X116322923Y-63484785D01*
X116210007Y-63489332D01*
X116210007Y-63037492D01*
X116260045Y-63031830D01*
X116305130Y-63024678D01*
X116341087Y-63013340D01*
X116369140Y-62996002D01*
X116390512Y-62970853D01*
X116406425Y-62936080D01*
X116418101Y-62889869D01*
X116426763Y-62830409D01*
X116431938Y-62776972D01*
X116436086Y-62732416D01*
X116440779Y-62689717D01*
X116445442Y-62653710D01*
X116449501Y-62629229D01*
X116449516Y-62629155D01*
X116470055Y-62567711D01*
X116504928Y-62507360D01*
X116552192Y-62451386D01*
X116558133Y-62445571D01*
X116610522Y-62401662D01*
X116666469Y-62368187D01*
X116728511Y-62344297D01*
X116799182Y-62329140D01*
X116881018Y-62321867D01*
X116929878Y-62320918D01*
X117039428Y-62320918D01*
X117039428Y-62778679D01*
G37*
G36*
X110625784Y-63454187D02*
G01*
X110428694Y-63454187D01*
X110428694Y-61705011D01*
X110625784Y-61705011D01*
X110625784Y-63454187D01*
G37*
G36*
X109037682Y-62380215D02*
G01*
X109026878Y-62407538D01*
X109010662Y-62448413D01*
X108989709Y-62501141D01*
X108964698Y-62564021D01*
X108936304Y-62635353D01*
X108905205Y-62713435D01*
X108872078Y-62796569D01*
X108837599Y-62883053D01*
X108802445Y-62971186D01*
X108802229Y-62971726D01*
X108609741Y-63454187D01*
X108417912Y-63454187D01*
X108401742Y-63411073D01*
X108396164Y-63396281D01*
X108385278Y-63367484D01*
X108369596Y-63326037D01*
X108349631Y-63273294D01*
X108325895Y-63210608D01*
X108298902Y-63139334D01*
X108269164Y-63060825D01*
X108237193Y-62976436D01*
X108203503Y-62887519D01*
X108179425Y-62823980D01*
X108145342Y-62733983D01*
X108113018Y-62648520D01*
X108082917Y-62568824D01*
X108055503Y-62496129D01*
X108031240Y-62431669D01*
X108010593Y-62376677D01*
X107994024Y-62332386D01*
X107981998Y-62300032D01*
X107974979Y-62280846D01*
X107973279Y-62275823D01*
X107980979Y-62274258D01*
X108002031Y-62272961D01*
X108033363Y-62272052D01*
X108071906Y-62271654D01*
X108078494Y-62271646D01*
X108183709Y-62271646D01*
X108320683Y-62663773D01*
X108357571Y-62769461D01*
X108389406Y-62860880D01*
X108416601Y-62939250D01*
X108439569Y-63005788D01*
X108458722Y-63061715D01*
X108474475Y-63108250D01*
X108487240Y-63146611D01*
X108497430Y-63178017D01*
X108505458Y-63203688D01*
X108511737Y-63224842D01*
X108516139Y-63240672D01*
X108526053Y-63277627D01*
X108536844Y-63226291D01*
X108541617Y-63209173D01*
X108551507Y-63178203D01*
X108565971Y-63134945D01*
X108584464Y-63080964D01*
X108606444Y-63017825D01*
X108631366Y-62947093D01*
X108658686Y-62870333D01*
X108687860Y-62789109D01*
X108710939Y-62725353D01*
X108874243Y-62275752D01*
X108977445Y-62273458D01*
X109080646Y-62271164D01*
X109037682Y-62380215D01*
G37*
G36*
X103965778Y-62461471D02*
G01*
X104004785Y-62410104D01*
X104052892Y-62358295D01*
X104112176Y-62312911D01*
X104177618Y-62277650D01*
X104192923Y-62271396D01*
X104232866Y-62260318D01*
X104283431Y-62252480D01*
X104339069Y-62248226D01*
X104394236Y-62247902D01*
X104443384Y-62251851D01*
X104460459Y-62254775D01*
X104528077Y-62276206D01*
X104589761Y-62310180D01*
X104642778Y-62354612D01*
X104684396Y-62407420D01*
X104700947Y-62438203D01*
X104711099Y-62460630D01*
X104719718Y-62480919D01*
X104726940Y-62500597D01*
X104732901Y-62521189D01*
X104737734Y-62544221D01*
X104741576Y-62571219D01*
X104744561Y-62603709D01*
X104746824Y-62643218D01*
X104748500Y-62691270D01*
X104749725Y-62749393D01*
X104750632Y-62819112D01*
X104751359Y-62901953D01*
X104752038Y-62999442D01*
X104752154Y-63016893D01*
X104755059Y-63454187D01*
X104565261Y-63454187D01*
X104565118Y-63115438D01*
X104564850Y-63008127D01*
X104564039Y-62915786D01*
X104562529Y-62836964D01*
X104560162Y-62770213D01*
X104556784Y-62714081D01*
X104552237Y-62667120D01*
X104546366Y-62627879D01*
X104539013Y-62594909D01*
X104530023Y-62566759D01*
X104519240Y-62541980D01*
X104506506Y-62519121D01*
X104499682Y-62508445D01*
X104465796Y-62468029D01*
X104423679Y-62438450D01*
X104370200Y-62417642D01*
X104356450Y-62413999D01*
X104289678Y-62405447D01*
X104224826Y-62412217D01*
X104163535Y-62433208D01*
X104107447Y-62467321D01*
X104058206Y-62513454D01*
X104017452Y-62570508D01*
X103986829Y-62637382D01*
X103977437Y-62667928D01*
X103974557Y-62682190D01*
X103972165Y-62702325D01*
X103970225Y-62729720D01*
X103968696Y-62765762D01*
X103967541Y-62811839D01*
X103966720Y-62869339D01*
X103966196Y-62939649D01*
X103965928Y-63024158D01*
X103965875Y-63082590D01*
X103965778Y-63454187D01*
X103768688Y-63454187D01*
X103768688Y-61705011D01*
X103965778Y-61705011D01*
X103965778Y-62461471D01*
G37*
G36*
X110940644Y-62694568D02*
G01*
X110969604Y-62601040D01*
X111011867Y-62514837D01*
X111066239Y-62437559D01*
X111131529Y-62370807D01*
X111206544Y-62316182D01*
X111234117Y-62300622D01*
X111298769Y-62272565D01*
X111367197Y-62255242D01*
X111443817Y-62247664D01*
X111472369Y-62247131D01*
X111565927Y-62253833D01*
X111650293Y-62274127D01*
X111725238Y-62307838D01*
X111790528Y-62354794D01*
X111845934Y-62414820D01*
X111891224Y-62487744D01*
X111926167Y-62573392D01*
X111931899Y-62592051D01*
X111939879Y-62623712D01*
X111945729Y-62658271D01*
X111949895Y-62699588D01*
X111952825Y-62751520D01*
X111953971Y-62782848D01*
X111958106Y-62912189D01*
X111126722Y-62912189D01*
X111126843Y-62947090D01*
X111130942Y-62991391D01*
X111141825Y-63042840D01*
X111157769Y-63094534D01*
X111172591Y-63130541D01*
X111208804Y-63188963D01*
X111256160Y-63236917D01*
X111312971Y-63274189D01*
X111377550Y-63300569D01*
X111448211Y-63315842D01*
X111523268Y-63319797D01*
X111601033Y-63312221D01*
X111679820Y-63292901D01*
X111757942Y-63261626D01*
X111833712Y-63218182D01*
X111839121Y-63214518D01*
X111874022Y-63190611D01*
X111874022Y-63379381D01*
X111814485Y-63408578D01*
X111759483Y-63432920D01*
X111705173Y-63450893D01*
X111647447Y-63463361D01*
X111582196Y-63471188D01*
X111505311Y-63475238D01*
X111496266Y-63475483D01*
X111442125Y-63476423D01*
X111400531Y-63475999D01*
X111367647Y-63473967D01*
X111339635Y-63470086D01*
X111312656Y-63464113D01*
X111311494Y-63463814D01*
X111225036Y-63434148D01*
X111149887Y-63392665D01*
X111085757Y-63339182D01*
X111047097Y-63294276D01*
X111012736Y-63244642D01*
X110986548Y-63196514D01*
X110965638Y-63143769D01*
X110948441Y-63085373D01*
X110936228Y-63023544D01*
X110928540Y-62951910D01*
X110925487Y-62875941D01*
X110927177Y-62801104D01*
X110932274Y-62747947D01*
X111125978Y-62747947D01*
X111759053Y-62747947D01*
X111759053Y-62720325D01*
X111753151Y-62660328D01*
X111736762Y-62599002D01*
X111711866Y-62541906D01*
X111680442Y-62494597D01*
X111677452Y-62491113D01*
X111645771Y-62463633D01*
X111603407Y-62438689D01*
X111556102Y-62419067D01*
X111509596Y-62407551D01*
X111503520Y-62406749D01*
X111436250Y-62406961D01*
X111368771Y-62422173D01*
X111304488Y-62451365D01*
X111264739Y-62478363D01*
X111229910Y-62513055D01*
X111196489Y-62559470D01*
X111167073Y-62612951D01*
X111144260Y-62668843D01*
X111131557Y-62717152D01*
X111125978Y-62747947D01*
X110932274Y-62747947D01*
X110933720Y-62732869D01*
X110940644Y-62694568D01*
G37*
%TO.C,C2*%
X170513000Y-90523837D02*
X169448563Y-89459400D01*
X169448563Y-93979400D02*
X165993000Y-93979400D01*
X165993000Y-89459400D02*
X165993000Y-90659400D01*
X170513000Y-90523837D02*
X170513000Y-90659400D01*
X171003000Y-93529400D02*
X171003000Y-93029400D01*
X169448563Y-89459400D02*
X165993000Y-89459400D01*
X170513000Y-92914963D02*
X169448563Y-93979400D01*
X165993000Y-93979400D02*
X165993000Y-92779400D01*
X170513000Y-92914963D02*
X170513000Y-92779400D01*
X171253000Y-93279400D02*
X170753000Y-93279400D01*
%TO.C,U2*%
X133242000Y-59847400D02*
X134502000Y-59847400D01*
X140062000Y-53837400D02*
X140062000Y-59847400D01*
X133242000Y-56087400D02*
X133242000Y-59847400D01*
X140062000Y-59847400D02*
X138802000Y-59847400D01*
%TO.C,MISC5*%
X117542000Y-49089400D02*
X118872000Y-49089400D01*
X120142000Y-51749400D02*
X130362000Y-51749400D01*
X130362000Y-51749400D02*
X130362000Y-49089400D01*
X120142000Y-49089400D02*
X130362000Y-49089400D01*
X120142000Y-51749400D02*
X120142000Y-49089400D01*
X117542000Y-50419400D02*
X117542000Y-49089400D01*
%TO.C,R1*%
X162183258Y-53176900D02*
X161708742Y-53176900D01*
X162183258Y-52131900D02*
X161708742Y-52131900D01*
%TO.C,C4*%
X130338000Y-55826400D02*
X130338000Y-56326400D01*
X126518000Y-61086400D02*
X127718000Y-61086400D01*
X129973563Y-56566400D02*
X129838000Y-56566400D01*
X129973563Y-56566400D02*
X131038000Y-57630837D01*
X131038000Y-57630837D02*
X131038000Y-61086400D01*
X131038000Y-61086400D02*
X129838000Y-61086400D01*
X126518000Y-57630837D02*
X126518000Y-61086400D01*
X130588000Y-56076400D02*
X130088000Y-56076400D01*
X127582437Y-56566400D02*
X126518000Y-57630837D01*
X127582437Y-56566400D02*
X127718000Y-56566400D01*
%TO.C,J4*%
X148460400Y-58100800D02*
X148460400Y-56200800D01*
X157660400Y-47294800D02*
X157660400Y-58100800D01*
X156810400Y-58300800D02*
X157860400Y-58300800D01*
X148460400Y-47294800D02*
X157660400Y-47294800D01*
X148488400Y-52120800D02*
X148460400Y-47294800D01*
X157660400Y-58100800D02*
X155346400Y-58100800D01*
X150774400Y-58100800D02*
X148460400Y-58100800D01*
X157860400Y-57250800D02*
X157860400Y-58300800D01*
%TO.C,SW1*%
X175146000Y-49451400D02*
X175146000Y-48661400D01*
X173296000Y-50501400D02*
X171596000Y-50501400D01*
X168246000Y-48661400D02*
X168246000Y-49451400D01*
X174546000Y-47651400D02*
X168846000Y-47651400D01*
X170296000Y-50501400D02*
X170096000Y-50501400D01*
%TO.C,STEPPER2*%
X182541000Y-94376400D02*
X182541000Y-86696400D01*
X185201000Y-94376400D02*
X182541000Y-94376400D01*
X185201000Y-94376400D02*
X185201000Y-86696400D01*
X185201000Y-96976400D02*
X183871000Y-96976400D01*
X185201000Y-86696400D02*
X182541000Y-86696400D01*
X185201000Y-95646400D02*
X185201000Y-96976400D01*
%TO.C,C3*%
X165761000Y-68960400D02*
X165761000Y-67760400D01*
X169216563Y-68960400D02*
X165761000Y-68960400D01*
X170281000Y-65504837D02*
X169216563Y-64440400D01*
X170771000Y-68510400D02*
X170771000Y-68010400D01*
X165761000Y-64440400D02*
X165761000Y-65640400D01*
X169216563Y-64440400D02*
X165761000Y-64440400D01*
X171021000Y-68260400D02*
X170521000Y-68260400D01*
X170281000Y-67895963D02*
X170281000Y-67760400D01*
X170281000Y-65504837D02*
X170281000Y-65640400D01*
X170281000Y-67895963D02*
X169216563Y-68960400D01*
%TO.C,STEPPER1*%
X185201000Y-119776400D02*
X182541000Y-119776400D01*
X185201000Y-112096400D02*
X182541000Y-112096400D01*
X185201000Y-121046400D02*
X185201000Y-122376400D01*
X185201000Y-119776400D02*
X185201000Y-112096400D01*
X185201000Y-122376400D02*
X183871000Y-122376400D01*
X182541000Y-119776400D02*
X182541000Y-112096400D01*
%TD*%
M02*
