%TF.GenerationSoftware,KiCad,Pcbnew,(6.0.9)*%
%TF.CreationDate,2023-01-29T03:00:28+01:00*%
%TF.ProjectId,Pi Pico Stepper controller,50692050-6963-46f2-9053-746570706572,0.1*%
%TF.SameCoordinates,Original*%
%TF.FileFunction,Soldermask,Bot*%
%TF.FilePolarity,Negative*%
%FSLAX46Y46*%
G04 Gerber Fmt 4.6, Leading zero omitted, Abs format (unit mm)*
G04 Created by KiCad (PCBNEW (6.0.9)) date 2023-01-29 03:00:28*
%MOMM*%
%LPD*%
G01*
G04 APERTURE LIST*
G04 Aperture macros list*
%AMRoundRect*
0 Rectangle with rounded corners*
0 $1 Rounding radius*
0 $2 $3 $4 $5 $6 $7 $8 $9 X,Y pos of 4 corners*
0 Add a 4 corners polygon primitive as box body*
4,1,4,$2,$3,$4,$5,$6,$7,$8,$9,$2,$3,0*
0 Add four circle primitives for the rounded corners*
1,1,$1+$1,$2,$3*
1,1,$1+$1,$4,$5*
1,1,$1+$1,$6,$7*
1,1,$1+$1,$8,$9*
0 Add four rect primitives between the rounded corners*
20,1,$1+$1,$2,$3,$4,$5,0*
20,1,$1+$1,$4,$5,$6,$7,0*
20,1,$1+$1,$6,$7,$8,$9,0*
20,1,$1+$1,$8,$9,$2,$3,0*%
G04 Aperture macros list end*
%ADD10R,1.700000X1.700000*%
%ADD11O,1.700000X1.700000*%
%ADD12R,1.600000X1.600000*%
%ADD13O,1.600000X1.600000*%
%ADD14C,2.200000*%
%ADD15RoundRect,0.550000X-0.353158X-1.131494X1.131247X0.353948X0.353158X1.131494X-1.131247X-0.353948X0*%
%ADD16RoundRect,0.550000X-0.151311X-1.175630X1.052599X0.545010X0.151311X1.175630X-1.052599X-0.545010X0*%
%ADD17RoundRect,0.550000X0.055133X-1.184044X0.941967X0.719512X-0.055133X1.184044X-0.941967X-0.719512X0*%
%ADD18RoundRect,0.550000X0.259903X-1.156482X0.802715X0.872152X-0.259903X1.156482X-0.802715X-0.872152X0*%
%ADD19RoundRect,0.550000X0.456775X-1.093781X0.639072X0.998292X-0.456775X1.093781X-0.639072X-0.998292X0*%
%ADD20RoundRect,0.550000X0.639769X-0.997846X0.456012X1.094099X-0.639769X0.997846X-0.456012X-1.094099X0*%
%ADD21RoundRect,0.550000X0.803323X-0.871591X0.259095X1.156663X-0.803323X0.871591X-0.259095X-1.156663X0*%
%ADD22RoundRect,0.550000X0.942469X-0.718854X0.054307X1.184082X-0.942469X0.718854X-0.054307X-1.184082X0*%
%ADD23RoundRect,0.550000X1.052979X-0.544275X-0.152132X1.175524X-1.052979X0.544275X0.152132X-1.175524X0*%
%ADD24RoundRect,0.550000X1.131494X-0.353158X-0.353948X1.131247X-1.131494X0.353158X0.353948X-1.131247X0*%
%ADD25RoundRect,0.550000X1.175630X-0.151311X-0.545010X1.052599X-1.175630X0.151311X0.545010X-1.052599X0*%
%ADD26RoundRect,0.550000X1.184044X0.055133X-0.719512X0.941967X-1.184044X-0.055133X0.719512X-0.941967X0*%
%ADD27RoundRect,0.550000X1.156482X0.259903X-0.872152X0.802715X-1.156482X-0.259903X0.872152X-0.802715X0*%
%ADD28RoundRect,0.550000X1.093781X0.456775X-0.998292X0.639072X-1.093781X-0.456775X0.998292X-0.639072X0*%
%ADD29RoundRect,0.550000X0.997846X0.639769X-1.094099X0.456012X-0.997846X-0.639769X1.094099X-0.456012X0*%
%ADD30RoundRect,0.550000X0.871591X0.803323X-1.156663X0.259095X-0.871591X-0.803323X1.156663X-0.259095X0*%
%ADD31RoundRect,0.550000X0.718854X0.942469X-1.184082X0.054307X-0.718854X-0.942469X1.184082X-0.054307X0*%
%ADD32RoundRect,0.550000X0.544275X1.052979X-1.175524X-0.152132X-0.544275X-1.052979X1.175524X0.152132X0*%
%ADD33RoundRect,0.550000X0.353158X1.131494X-1.131247X-0.353948X-0.353158X-1.131494X1.131247X0.353948X0*%
%ADD34RoundRect,0.550000X0.151311X1.175630X-1.052599X-0.545010X-0.151311X-1.175630X1.052599X0.545010X0*%
%ADD35RoundRect,0.550000X-0.055133X1.184044X-0.941967X-0.719512X0.055133X-1.184044X0.941967X0.719512X0*%
%ADD36RoundRect,0.550000X-0.259903X1.156482X-0.802715X-0.872152X0.259903X-1.156482X0.802715X0.872152X0*%
%ADD37RoundRect,0.550000X-0.456775X1.093781X-0.639072X-0.998292X0.456775X-1.093781X0.639072X0.998292X0*%
%ADD38RoundRect,0.550000X-0.639769X0.997846X-0.456012X-1.094099X0.639769X-0.997846X0.456012X1.094099X0*%
%ADD39RoundRect,0.550000X-0.803323X0.871591X-0.259095X-1.156663X0.803323X-0.871591X0.259095X1.156663X0*%
%ADD40RoundRect,0.550000X-0.942469X0.718854X-0.054307X-1.184082X0.942469X-0.718854X0.054307X1.184082X0*%
%ADD41RoundRect,0.550000X-1.052979X0.544275X0.152132X-1.175524X1.052979X-0.544275X-0.152132X1.175524X0*%
%ADD42RoundRect,0.550000X-1.131494X0.353158X0.353948X-1.131247X1.131494X-0.353158X-0.353948X1.131247X0*%
%ADD43R,3.500000X3.500000*%
%ADD44RoundRect,0.750000X-1.000000X0.750000X-1.000000X-0.750000X1.000000X-0.750000X1.000000X0.750000X0*%
%ADD45RoundRect,0.875000X-0.875000X0.875000X-0.875000X-0.875000X0.875000X-0.875000X0.875000X0.875000X0*%
%ADD46C,0.900000*%
G04 APERTURE END LIST*
D10*
%TO.C,STEPPER3*%
X183896000Y-70256400D03*
D11*
X183896000Y-67716400D03*
X183896000Y-65176400D03*
X183896000Y-62636400D03*
%TD*%
D12*
%TO.C,A2*%
X174996000Y-100736400D03*
D13*
X174996000Y-98196400D03*
X174996000Y-95656400D03*
X174996000Y-93116400D03*
X174996000Y-90576400D03*
X174996000Y-88036400D03*
X174996000Y-85496400D03*
X174996000Y-82956400D03*
X162296000Y-82956400D03*
X162296000Y-85496400D03*
X162296000Y-88036400D03*
X162296000Y-90576400D03*
X162296000Y-93116400D03*
X162296000Y-95656400D03*
X162296000Y-98196400D03*
X162296000Y-100736400D03*
%TD*%
D12*
%TO.C,A3*%
X174996000Y-75336400D03*
D13*
X174996000Y-72796400D03*
X174996000Y-70256400D03*
X174996000Y-67716400D03*
X174996000Y-65176400D03*
X174996000Y-62636400D03*
X174996000Y-60096400D03*
X174996000Y-57556400D03*
X162296000Y-57556400D03*
X162296000Y-60096400D03*
X162296000Y-62636400D03*
X162296000Y-65176400D03*
X162296000Y-67716400D03*
X162296000Y-70256400D03*
X162296000Y-72796400D03*
X162296000Y-75336400D03*
%TD*%
D12*
%TO.C,A1*%
X174996000Y-126136400D03*
D13*
X174996000Y-123596400D03*
X174996000Y-121056400D03*
X174996000Y-118516400D03*
X174996000Y-115976400D03*
X174996000Y-113436400D03*
X174996000Y-110896400D03*
X174996000Y-108356400D03*
X162296000Y-108356400D03*
X162296000Y-110896400D03*
X162296000Y-113436400D03*
X162296000Y-115976400D03*
X162296000Y-118516400D03*
X162296000Y-121056400D03*
X162296000Y-123596400D03*
X162296000Y-126136400D03*
%TD*%
D14*
%TO.C,H4*%
X184150000Y-127000000D03*
%TD*%
%TO.C,H3*%
X104140000Y-127000000D03*
%TD*%
%TO.C,H1*%
X104140000Y-50800000D03*
%TD*%
D10*
%TO.C,MISC5*%
X118872000Y-50419400D03*
D11*
X121412000Y-50419400D03*
X123952000Y-50419400D03*
X126492000Y-50419400D03*
X129032000Y-50419400D03*
%TD*%
D15*
%TO.C,U1*%
X108317000Y-109880400D03*
D16*
X111722548Y-112737994D03*
D17*
X115572575Y-114960808D03*
D18*
X119750098Y-116481302D03*
D19*
X124128186Y-117253277D03*
D20*
X128573814Y-117253277D03*
D21*
X132951902Y-116481302D03*
D22*
X137129425Y-114960808D03*
D23*
X140979452Y-112737994D03*
D24*
X144385000Y-109880400D03*
D25*
X147242594Y-106474852D03*
D26*
X149465408Y-102624825D03*
D27*
X150985902Y-98447302D03*
D28*
X151757877Y-94069214D03*
D29*
X151757877Y-89623586D03*
D30*
X150985902Y-85245498D03*
D31*
X149465408Y-81067975D03*
D32*
X147242594Y-77217948D03*
D33*
X144385000Y-73812400D03*
D34*
X140979452Y-70954806D03*
D35*
X137129425Y-68731992D03*
D36*
X132951902Y-67211498D03*
D37*
X128573814Y-66439523D03*
D38*
X124128186Y-66439523D03*
D39*
X119750098Y-67211498D03*
D40*
X115572575Y-68731992D03*
D41*
X111722548Y-70954806D03*
D42*
X108317000Y-73812400D03*
%TD*%
D14*
%TO.C,H2*%
X184150000Y-50800000D03*
%TD*%
D43*
%TO.C,J4*%
X153060400Y-57200800D03*
D44*
X153060400Y-51200800D03*
D45*
X148360400Y-54200800D03*
%TD*%
D46*
%TO.C,SW1*%
X173196000Y-49051400D03*
X170196000Y-49051400D03*
%TD*%
D10*
%TO.C,STEPPER2*%
X183871000Y-95646400D03*
D11*
X183871000Y-93106400D03*
X183871000Y-90566400D03*
X183871000Y-88026400D03*
%TD*%
D10*
%TO.C,STEPPER1*%
X183871000Y-121046400D03*
D11*
X183871000Y-118506400D03*
X183871000Y-115966400D03*
X183871000Y-113426400D03*
%TD*%
M02*
