M48
; DRILL file {KiCad (6.0.9)} date Sun Jan 29 03:00:26 2023
; FORMAT={-:-/ absolute / metric / decimal}
; #@! TF.CreationDate,2023-01-29T03:00:26+01:00
; #@! TF.GenerationSoftware,Kicad,Pcbnew,(6.0.9)
; #@! TF.FileFunction,MixedPlating,1,2
FMAT,2
METRIC
; #@! TA.AperFunction,Plated,PTH,ComponentDrill
T1C0.254
; #@! TA.AperFunction,Plated,PTH,ComponentDrill
T2C0.800
; #@! TA.AperFunction,Plated,PTH,ComponentDrill
T3C1.000
; #@! TA.AperFunction,Plated,PTH,ViaDrill
T4C1.100
; #@! TA.AperFunction,NonPlated,NPTH,ComponentDrill
T5C0.900
; #@! TA.AperFunction,NonPlated,NPTH,ComponentDrill
T6C2.200
%
G90
G05
T1
X108.317Y-73.812
X108.317Y-109.88
X111.723Y-70.955
X111.723Y-112.738
X115.573Y-68.732
X115.573Y-114.961
X119.75Y-67.211
X119.75Y-116.481
X124.128Y-66.44
X124.128Y-117.253
X128.574Y-66.44
X128.574Y-117.253
X132.952Y-67.211
X132.952Y-116.481
X137.129Y-68.732
X137.129Y-114.961
X140.979Y-70.955
X140.979Y-112.738
X144.385Y-73.812
X144.385Y-109.88
X147.243Y-77.218
X147.243Y-106.475
X149.465Y-81.068
X149.465Y-102.625
X150.986Y-85.245
X150.986Y-98.447
X151.758Y-89.624
X151.758Y-94.069
T2
X162.296Y-57.556
X162.296Y-60.096
X162.296Y-62.636
X162.296Y-65.176
X162.296Y-67.716
X162.296Y-70.256
X162.296Y-72.796
X162.296Y-75.336
X162.296Y-82.956
X162.296Y-85.496
X162.296Y-88.036
X162.296Y-90.576
X162.296Y-93.116
X162.296Y-95.656
X162.296Y-98.196
X162.296Y-100.736
X162.296Y-108.356
X162.296Y-110.896
X162.296Y-113.436
X162.296Y-115.976
X162.296Y-118.516
X162.296Y-121.056
X162.296Y-123.596
X162.296Y-126.136
X174.996Y-57.556
X174.996Y-60.096
X174.996Y-62.636
X174.996Y-65.176
X174.996Y-67.716
X174.996Y-70.256
X174.996Y-72.796
X174.996Y-75.336
X174.996Y-82.956
X174.996Y-85.496
X174.996Y-88.036
X174.996Y-90.576
X174.996Y-93.116
X174.996Y-95.656
X174.996Y-98.196
X174.996Y-100.736
X174.996Y-108.356
X174.996Y-110.896
X174.996Y-113.436
X174.996Y-115.976
X174.996Y-118.516
X174.996Y-121.056
X174.996Y-123.596
X174.996Y-126.136
T3
X118.872Y-50.419
X121.412Y-50.419
X123.952Y-50.419
X126.492Y-50.419
X129.032Y-50.419
X183.871Y-88.026
X183.871Y-90.566
X183.871Y-93.106
X183.871Y-95.646
X183.871Y-113.426
X183.871Y-115.966
X183.871Y-118.506
X183.871Y-121.046
X183.896Y-62.636
X183.896Y-65.176
X183.896Y-67.716
X183.896Y-70.256
T4
X131.064Y-53.746
X132.588Y-62.738
X148.463Y-63.246
X151.384Y-69.24
X153.162Y-100.838
X154.686Y-63.652
X154.686Y-69.24
X154.94Y-119.278
X155.448Y-74.93
X156.972Y-84.556
X157.226Y-113.944
X157.48Y-123.342
X158.242Y-74.828
X158.319Y-87.427
X158.496Y-127.66
X159.004Y-80.924
X159.258Y-121.564
X159.766Y-90.83
X159.841Y-98.196
X163.322Y-105.562
X164.084Y-103.276
X165.151Y-51.968
X167.132Y-81.813
X172.588Y-72.669
X172.593Y-122.834
X172.778Y-98.069
X174.196Y-53.606
T5
X170.196Y-49.051
X173.196Y-49.051
T6
X104.14Y-50.8
X104.14Y-127.0
X184.15Y-50.8
X184.15Y-127.0
T3
G00X148.36Y-53.201
M15
G01X148.36Y-55.201
M16
G05
G00X154.06Y-51.201
M15
G01X152.06Y-51.201
M16
G05
G00X154.06Y-57.201
M15
G01X152.06Y-57.201
M16
G05
T0
M30
