%TF.GenerationSoftware,KiCad,Pcbnew,(6.0.9)*%
%TF.CreationDate,2023-01-29T03:00:28+01:00*%
%TF.ProjectId,Pi Pico Stepper controller,50692050-6963-46f2-9053-746570706572,0.1*%
%TF.SameCoordinates,Original*%
%TF.FileFunction,Legend,Bot*%
%TF.FilePolarity,Positive*%
%FSLAX46Y46*%
G04 Gerber Fmt 4.6, Leading zero omitted, Abs format (unit mm)*
G04 Created by KiCad (PCBNEW (6.0.9)) date 2023-01-29 03:00:28*
%MOMM*%
%LPD*%
G01*
G04 APERTURE LIST*
G04 APERTURE END LIST*
%TO.C,G\u002A\u002A\u002A*%
G36*
X142657211Y-129395272D02*
G01*
X142657185Y-129411268D01*
X142645672Y-129543698D01*
X142587905Y-129596142D01*
X142447045Y-129605437D01*
X142431049Y-129605411D01*
X142298619Y-129593899D01*
X142246175Y-129536131D01*
X142236880Y-129395272D01*
X142236906Y-129379275D01*
X142248418Y-129246846D01*
X142306186Y-129194402D01*
X142447045Y-129185106D01*
X142657211Y-129185106D01*
X142657211Y-129395272D01*
G37*
G36*
X144985028Y-124141161D02*
G01*
X145117457Y-124152673D01*
X145169901Y-124210440D01*
X145179197Y-124351300D01*
X145179223Y-124367297D01*
X145190735Y-124499726D01*
X145248502Y-124552170D01*
X145389362Y-124561465D01*
X145405359Y-124561492D01*
X145537788Y-124573004D01*
X145590232Y-124630771D01*
X145599527Y-124771631D01*
X145599501Y-124787628D01*
X145587989Y-124920057D01*
X145530222Y-124972501D01*
X145389362Y-124981796D01*
X145373365Y-124981770D01*
X145240936Y-124970258D01*
X145188492Y-124912490D01*
X145179197Y-124771631D01*
X145179170Y-124755634D01*
X145167658Y-124623205D01*
X145109891Y-124570761D01*
X144969031Y-124561465D01*
X144758866Y-124561465D01*
X144758866Y-125402127D01*
X144338535Y-125402127D01*
X144338535Y-124561465D01*
X144548700Y-124561465D01*
X144564697Y-124561439D01*
X144697126Y-124549927D01*
X144749570Y-124492160D01*
X144758866Y-124351300D01*
X144758892Y-124335303D01*
X144770404Y-124202874D01*
X144828171Y-124150430D01*
X144969031Y-124141134D01*
X144985028Y-124141161D01*
G37*
G36*
X142042711Y-126663146D02*
G01*
X142175140Y-126674659D01*
X142227584Y-126732426D01*
X142236880Y-126873286D01*
X142236854Y-126889282D01*
X142225341Y-127021712D01*
X142167574Y-127074156D01*
X142026714Y-127083451D01*
X142010718Y-127083425D01*
X141878288Y-127071913D01*
X141825844Y-127014145D01*
X141816549Y-126873286D01*
X141816575Y-126857289D01*
X141828087Y-126724860D01*
X141885855Y-126672416D01*
X142026714Y-126663120D01*
X142042711Y-126663146D01*
G37*
G36*
X147086683Y-118256527D02*
G01*
X147219112Y-118268039D01*
X147271556Y-118325807D01*
X147280851Y-118466666D01*
X147280825Y-118482663D01*
X147269313Y-118615092D01*
X147211545Y-118667536D01*
X147070686Y-118676832D01*
X147054689Y-118676806D01*
X146922260Y-118665294D01*
X146869816Y-118607526D01*
X146860520Y-118466666D01*
X146860547Y-118450670D01*
X146872059Y-118318240D01*
X146929826Y-118265796D01*
X147070686Y-118256501D01*
X147086683Y-118256527D01*
G37*
G36*
X151063830Y-124561465D02*
G01*
X150223168Y-124561465D01*
X150223168Y-124351300D01*
X150223194Y-124335303D01*
X150234706Y-124202874D01*
X150292474Y-124150430D01*
X150433334Y-124141134D01*
X150449330Y-124141108D01*
X150581760Y-124129596D01*
X150634204Y-124071829D01*
X150643499Y-123930969D01*
X150643525Y-123914972D01*
X150655037Y-123782543D01*
X150712805Y-123730099D01*
X150853665Y-123720803D01*
X151063830Y-123720803D01*
X151063830Y-124561465D01*
G37*
G36*
X144564697Y-116995534D02*
G01*
X144697126Y-117007046D01*
X144749570Y-117064814D01*
X144758866Y-117205673D01*
X144758839Y-117221670D01*
X144747327Y-117354099D01*
X144689560Y-117406543D01*
X144548700Y-117415839D01*
X144532703Y-117415813D01*
X144400274Y-117404301D01*
X144347830Y-117346533D01*
X144338535Y-117205673D01*
X144338561Y-117189677D01*
X144350073Y-117057247D01*
X144407840Y-117004803D01*
X144548700Y-116995508D01*
X144564697Y-116995534D01*
G37*
G36*
X139714894Y-127503782D02*
G01*
X139294563Y-127503782D01*
X139294563Y-126663120D01*
X139714894Y-126663120D01*
X139714894Y-127503782D01*
G37*
G36*
X139294563Y-118676832D02*
G01*
X139294563Y-118256501D01*
X139714894Y-118256501D01*
X141816549Y-118256501D01*
X141816549Y-116154846D01*
X139714894Y-116154846D01*
X139714894Y-118256501D01*
X139294563Y-118256501D01*
X139294563Y-115734515D01*
X142236880Y-115734515D01*
X142236880Y-118676832D01*
X139294563Y-118676832D01*
G37*
G36*
X141396218Y-117836170D02*
G01*
X140135225Y-117836170D01*
X140135225Y-116575177D01*
X141396218Y-116575177D01*
X141396218Y-117836170D01*
G37*
G36*
X145405359Y-126663146D02*
G01*
X145537788Y-126674659D01*
X145590232Y-126732426D01*
X145599527Y-126873286D01*
X145599501Y-126889282D01*
X145587989Y-127021712D01*
X145530222Y-127074156D01*
X145389362Y-127083451D01*
X145373365Y-127083425D01*
X145240936Y-127071913D01*
X145188492Y-127014145D01*
X145179197Y-126873286D01*
X145179223Y-126857289D01*
X145190735Y-126724860D01*
X145248502Y-126672416D01*
X145389362Y-126663120D01*
X145405359Y-126663146D01*
G37*
G36*
X150223168Y-118676832D02*
G01*
X150223168Y-118256501D01*
X150643499Y-118256501D01*
X152745154Y-118256501D01*
X152745154Y-116154846D01*
X150643499Y-116154846D01*
X150643499Y-118256501D01*
X150223168Y-118256501D01*
X150223168Y-115734515D01*
X153165485Y-115734515D01*
X153165485Y-118676832D01*
X150223168Y-118676832D01*
G37*
G36*
X144338535Y-126242789D02*
G01*
X143918204Y-126242789D01*
X143918204Y-125402127D01*
X144338535Y-125402127D01*
X144338535Y-126242789D01*
G37*
G36*
X144564697Y-118256527D02*
G01*
X144697126Y-118268039D01*
X144749570Y-118325807D01*
X144758866Y-118466666D01*
X144758892Y-118482663D01*
X144770404Y-118615092D01*
X144828171Y-118667536D01*
X144969031Y-118676832D01*
X145179197Y-118676832D01*
X145179197Y-119517494D01*
X145389362Y-119517494D01*
X145405359Y-119517520D01*
X145537788Y-119529032D01*
X145590232Y-119586800D01*
X145599527Y-119727659D01*
X145599527Y-119937825D01*
X144758866Y-119937825D01*
X144758866Y-120778487D01*
X143918204Y-120778487D01*
X143918204Y-120568321D01*
X143918230Y-120552325D01*
X143929742Y-120419895D01*
X143987510Y-120367451D01*
X144128369Y-120358156D01*
X144338535Y-120358156D01*
X144338535Y-119517494D01*
X144128369Y-119517494D01*
X144112372Y-119517468D01*
X143979943Y-119505955D01*
X143927499Y-119448188D01*
X143918204Y-119307328D01*
X143918230Y-119291332D01*
X143929742Y-119158902D01*
X143987510Y-119106458D01*
X144128369Y-119097163D01*
X144144366Y-119097189D01*
X144276795Y-119108701D01*
X144329239Y-119166469D01*
X144338535Y-119307328D01*
X144338561Y-119323325D01*
X144350073Y-119455754D01*
X144407840Y-119508198D01*
X144548700Y-119517494D01*
X144758866Y-119517494D01*
X144758866Y-118676832D01*
X144548700Y-118676832D01*
X144532703Y-118676806D01*
X144400274Y-118665294D01*
X144347830Y-118607526D01*
X144338535Y-118466666D01*
X144338561Y-118450670D01*
X144350073Y-118318240D01*
X144407840Y-118265796D01*
X144548700Y-118256501D01*
X144564697Y-118256527D01*
G37*
G36*
X152324823Y-117836170D02*
G01*
X151063830Y-117836170D01*
X151063830Y-116575177D01*
X152324823Y-116575177D01*
X152324823Y-117836170D01*
G37*
G36*
X144985028Y-123300499D02*
G01*
X145117457Y-123312011D01*
X145169901Y-123369778D01*
X145179197Y-123510638D01*
X145179170Y-123526635D01*
X145167658Y-123659064D01*
X145109891Y-123711508D01*
X144969031Y-123720803D01*
X144953034Y-123720777D01*
X144820605Y-123709265D01*
X144768161Y-123651498D01*
X144758866Y-123510638D01*
X144758892Y-123494641D01*
X144770404Y-123362212D01*
X144828171Y-123309768D01*
X144969031Y-123300473D01*
X144985028Y-123300499D01*
G37*
G36*
X148768006Y-122880168D02*
G01*
X148900436Y-122891680D01*
X148952880Y-122949447D01*
X148962175Y-123090307D01*
X148962201Y-123106304D01*
X148973714Y-123238733D01*
X149031481Y-123291177D01*
X149172341Y-123300473D01*
X149188337Y-123300499D01*
X149320767Y-123312011D01*
X149373211Y-123369778D01*
X149382506Y-123510638D01*
X149382532Y-123526635D01*
X149394045Y-123659064D01*
X149451812Y-123711508D01*
X149592672Y-123720803D01*
X149608668Y-123720830D01*
X149741098Y-123732342D01*
X149793542Y-123790109D01*
X149802837Y-123930969D01*
X149802811Y-123946966D01*
X149791299Y-124079395D01*
X149733531Y-124131839D01*
X149592672Y-124141134D01*
X149576675Y-124141108D01*
X149444246Y-124129596D01*
X149391802Y-124071829D01*
X149382506Y-123930969D01*
X149382480Y-123914972D01*
X149370968Y-123782543D01*
X149313200Y-123730099D01*
X149172341Y-123720803D01*
X149156344Y-123720777D01*
X149023915Y-123709265D01*
X148971471Y-123651498D01*
X148962175Y-123510638D01*
X148962149Y-123494641D01*
X148950637Y-123362212D01*
X148892869Y-123309768D01*
X148752010Y-123300473D01*
X148736013Y-123300499D01*
X148603584Y-123312011D01*
X148551140Y-123369778D01*
X148541844Y-123510638D01*
X148541818Y-123526635D01*
X148530306Y-123659064D01*
X148472538Y-123711508D01*
X148331679Y-123720803D01*
X148315682Y-123720777D01*
X148183253Y-123709265D01*
X148130809Y-123651498D01*
X148121513Y-123510638D01*
X148121539Y-123494641D01*
X148133052Y-123362212D01*
X148190819Y-123309768D01*
X148331679Y-123300473D01*
X148347675Y-123300446D01*
X148480105Y-123288934D01*
X148532549Y-123231167D01*
X148541844Y-123090307D01*
X148541870Y-123074310D01*
X148553383Y-122941881D01*
X148611150Y-122889437D01*
X148752010Y-122880142D01*
X148768006Y-122880168D01*
G37*
G36*
X152324823Y-128764775D02*
G01*
X151063830Y-128764775D01*
X151063830Y-127503782D01*
X152324823Y-127503782D01*
X152324823Y-128764775D01*
G37*
G36*
X145405359Y-120358182D02*
G01*
X145537788Y-120369694D01*
X145590232Y-120427462D01*
X145599527Y-120568321D01*
X145599554Y-120584318D01*
X145611066Y-120716747D01*
X145668833Y-120769191D01*
X145809693Y-120778487D01*
X145825690Y-120778513D01*
X145958119Y-120790025D01*
X146010563Y-120847793D01*
X146019858Y-120988652D01*
X146019858Y-121198818D01*
X144758866Y-121198818D01*
X144758866Y-120778487D01*
X144969031Y-120778487D01*
X144985028Y-120778461D01*
X145117457Y-120766948D01*
X145169901Y-120709181D01*
X145179197Y-120568321D01*
X145179223Y-120552325D01*
X145190735Y-120419895D01*
X145248502Y-120367451D01*
X145389362Y-120358156D01*
X145405359Y-120358182D01*
G37*
G36*
X139520725Y-121619175D02*
G01*
X139653154Y-121630687D01*
X139705598Y-121688455D01*
X139714894Y-121829314D01*
X139714920Y-121845311D01*
X139726432Y-121977740D01*
X139784200Y-122030184D01*
X139925059Y-122039480D01*
X139941056Y-122039506D01*
X140073485Y-122051018D01*
X140125929Y-122108786D01*
X140135225Y-122249645D01*
X140135199Y-122265642D01*
X140123687Y-122398071D01*
X140065919Y-122450515D01*
X139925059Y-122459811D01*
X139909063Y-122459837D01*
X139776633Y-122471349D01*
X139724189Y-122529116D01*
X139714894Y-122669976D01*
X139714868Y-122685973D01*
X139703356Y-122818402D01*
X139645588Y-122870846D01*
X139504728Y-122880142D01*
X139294563Y-122880142D01*
X139294563Y-121619149D01*
X139504728Y-121619149D01*
X139520725Y-121619175D01*
G37*
G36*
X150449330Y-122459837D02*
G01*
X150581760Y-122471349D01*
X150634204Y-122529116D01*
X150643499Y-122669976D01*
X150643473Y-122685973D01*
X150631961Y-122818402D01*
X150574193Y-122870846D01*
X150433334Y-122880142D01*
X150417337Y-122880115D01*
X150284908Y-122868603D01*
X150232464Y-122810836D01*
X150223168Y-122669976D01*
X150223194Y-122653979D01*
X150234706Y-122521550D01*
X150292474Y-122469106D01*
X150433334Y-122459811D01*
X150449330Y-122459837D01*
G37*
G36*
X140135225Y-119517494D02*
G01*
X139294563Y-119517494D01*
X139294563Y-119097163D01*
X140135225Y-119097163D01*
X140135225Y-119517494D01*
G37*
G36*
X148541844Y-119937825D02*
G01*
X148541844Y-119097163D01*
X147701182Y-119097163D01*
X147701182Y-119937825D01*
X147491017Y-119937825D01*
X147475020Y-119937799D01*
X147342591Y-119926286D01*
X147290147Y-119868519D01*
X147280851Y-119727659D01*
X147280851Y-119517494D01*
X146440189Y-119517494D01*
X146440189Y-120358156D01*
X146860520Y-120358156D01*
X146860520Y-121619149D01*
X147701182Y-121619149D01*
X147701182Y-121408983D01*
X147701156Y-121392986D01*
X147689644Y-121260557D01*
X147631876Y-121208113D01*
X147491017Y-121198818D01*
X147280851Y-121198818D01*
X147280851Y-120358156D01*
X147491017Y-120358156D01*
X147507014Y-120358182D01*
X147639443Y-120369694D01*
X147691887Y-120427462D01*
X147701182Y-120568321D01*
X147701182Y-120778487D01*
X148541844Y-120778487D01*
X148541844Y-120988652D01*
X148541818Y-121004649D01*
X148530306Y-121137078D01*
X148472538Y-121189522D01*
X148331679Y-121198818D01*
X148121513Y-121198818D01*
X148121513Y-122039480D01*
X148962175Y-122039480D01*
X148962175Y-120358156D01*
X149172341Y-120358156D01*
X149188337Y-120358182D01*
X149320767Y-120369694D01*
X149373211Y-120427462D01*
X149382506Y-120568321D01*
X149382506Y-120778487D01*
X150643499Y-120778487D01*
X150643499Y-121198818D01*
X149802837Y-121198818D01*
X149802837Y-122039480D01*
X150013003Y-122039480D01*
X150028999Y-122039453D01*
X150161429Y-122027941D01*
X150213873Y-121970174D01*
X150223168Y-121829314D01*
X151063830Y-121829314D01*
X151063856Y-121845311D01*
X151075368Y-121977740D01*
X151133136Y-122030184D01*
X151273996Y-122039480D01*
X151484161Y-122039480D01*
X151484161Y-122880142D01*
X151904492Y-122880142D01*
X151904492Y-122039480D01*
X152114658Y-122039480D01*
X152130654Y-122039506D01*
X152263083Y-122051018D01*
X152315528Y-122108786D01*
X152324823Y-122249645D01*
X152324849Y-122265642D01*
X152336361Y-122398071D01*
X152394129Y-122450515D01*
X152534988Y-122459811D01*
X152550985Y-122459784D01*
X152683414Y-122448272D01*
X152735859Y-122390505D01*
X152745154Y-122249645D01*
X152745128Y-122233648D01*
X152733616Y-122101219D01*
X152675848Y-122048775D01*
X152534988Y-122039480D01*
X152518992Y-122039453D01*
X152386563Y-122027941D01*
X152334118Y-121970174D01*
X152324823Y-121829314D01*
X152324797Y-121813317D01*
X152313285Y-121680888D01*
X152255517Y-121628444D01*
X152114658Y-121619149D01*
X152098661Y-121619175D01*
X151966232Y-121630687D01*
X151913787Y-121688455D01*
X151904492Y-121829314D01*
X151904466Y-121845311D01*
X151892954Y-121977740D01*
X151835186Y-122030184D01*
X151694327Y-122039480D01*
X151678330Y-122039453D01*
X151545901Y-122027941D01*
X151493457Y-121970174D01*
X151484161Y-121829314D01*
X151484135Y-121813317D01*
X151472623Y-121680888D01*
X151414855Y-121628444D01*
X151273996Y-121619149D01*
X151257999Y-121619175D01*
X151125570Y-121630687D01*
X151073126Y-121688455D01*
X151063830Y-121829314D01*
X150223168Y-121829314D01*
X150223168Y-121619149D01*
X151063830Y-121619149D01*
X151063830Y-121408983D01*
X151063856Y-121392986D01*
X151075368Y-121260557D01*
X151133136Y-121208113D01*
X151273996Y-121198818D01*
X151484161Y-121198818D01*
X151484161Y-120358156D01*
X151273996Y-120358156D01*
X151257999Y-120358130D01*
X151125570Y-120346617D01*
X151073126Y-120288850D01*
X151063830Y-120147990D01*
X151063804Y-120131994D01*
X151052292Y-119999564D01*
X150994524Y-119947120D01*
X150853665Y-119937825D01*
X150837668Y-119937851D01*
X150705239Y-119949363D01*
X150652795Y-120007131D01*
X150643499Y-120147990D01*
X150643473Y-120163987D01*
X150631961Y-120296416D01*
X150574193Y-120348860D01*
X150433334Y-120358156D01*
X150417337Y-120358130D01*
X150284908Y-120346617D01*
X150232464Y-120288850D01*
X150223168Y-120147990D01*
X150223194Y-120131994D01*
X150234706Y-119999564D01*
X150292474Y-119947120D01*
X150433334Y-119937825D01*
X150449330Y-119937799D01*
X150581760Y-119926286D01*
X150634204Y-119868519D01*
X150643499Y-119727659D01*
X150643473Y-119711663D01*
X150631961Y-119579233D01*
X150574193Y-119526789D01*
X150433334Y-119517494D01*
X150417337Y-119517468D01*
X150284908Y-119505955D01*
X150232464Y-119448188D01*
X150223168Y-119307328D01*
X150223168Y-119097163D01*
X151063830Y-119097163D01*
X151063830Y-119307328D01*
X151063856Y-119323325D01*
X151075368Y-119455754D01*
X151133136Y-119508198D01*
X151273996Y-119517494D01*
X151289992Y-119517520D01*
X151422422Y-119529032D01*
X151474866Y-119586800D01*
X151484161Y-119727659D01*
X151484187Y-119743656D01*
X151495699Y-119876085D01*
X151553467Y-119928529D01*
X151694327Y-119937825D01*
X151904492Y-119937825D01*
X151904492Y-119097163D01*
X153165485Y-119097163D01*
X153165485Y-119517494D01*
X152324823Y-119517494D01*
X152324823Y-119937825D01*
X153165485Y-119937825D01*
X153165485Y-121198818D01*
X152955319Y-121198818D01*
X152939323Y-121198792D01*
X152806893Y-121187279D01*
X152754449Y-121129512D01*
X152745154Y-120988652D01*
X152745128Y-120972655D01*
X152733616Y-120840226D01*
X152675848Y-120787782D01*
X152534988Y-120778487D01*
X152518992Y-120778461D01*
X152386563Y-120766948D01*
X152334118Y-120709181D01*
X152324823Y-120568321D01*
X152324797Y-120552325D01*
X152313285Y-120419895D01*
X152255517Y-120367451D01*
X152114658Y-120358156D01*
X151904492Y-120358156D01*
X151904492Y-121198818D01*
X152114658Y-121198818D01*
X152130654Y-121198844D01*
X152263083Y-121210356D01*
X152315528Y-121268124D01*
X152324823Y-121408983D01*
X152324849Y-121424980D01*
X152336361Y-121557409D01*
X152394129Y-121609853D01*
X152534988Y-121619149D01*
X152550985Y-121619175D01*
X152683414Y-121630687D01*
X152735859Y-121688455D01*
X152745154Y-121829314D01*
X152745180Y-121845311D01*
X152756692Y-121977740D01*
X152814460Y-122030184D01*
X152955319Y-122039480D01*
X152971316Y-122039506D01*
X153103745Y-122051018D01*
X153156189Y-122108786D01*
X153165485Y-122249645D01*
X153165459Y-122265642D01*
X153153947Y-122398071D01*
X153096179Y-122450515D01*
X152955319Y-122459811D01*
X152939323Y-122459837D01*
X152806893Y-122471349D01*
X152754449Y-122529116D01*
X152745154Y-122669976D01*
X152745180Y-122685973D01*
X152756692Y-122818402D01*
X152814460Y-122870846D01*
X152955319Y-122880142D01*
X153165485Y-122880142D01*
X153165485Y-124141134D01*
X152745154Y-124141134D01*
X152745154Y-124981796D01*
X152955319Y-124981796D01*
X152971316Y-124981823D01*
X153103745Y-124993335D01*
X153156189Y-125051102D01*
X153165485Y-125191962D01*
X153165485Y-125402127D01*
X152324823Y-125402127D01*
X152324823Y-125822458D01*
X153165485Y-125822458D01*
X153165485Y-126242789D01*
X152324823Y-126242789D01*
X152324823Y-126032624D01*
X152324797Y-126016627D01*
X152313285Y-125884198D01*
X152255517Y-125831754D01*
X152114658Y-125822458D01*
X152098661Y-125822432D01*
X151966232Y-125810920D01*
X151913787Y-125753152D01*
X151904492Y-125612293D01*
X151904466Y-125596296D01*
X151892954Y-125463867D01*
X151835186Y-125411423D01*
X151694327Y-125402127D01*
X151484161Y-125402127D01*
X151484161Y-126242789D01*
X150223168Y-126242789D01*
X150223168Y-126032624D01*
X150223142Y-126016627D01*
X150211630Y-125884198D01*
X150153862Y-125831754D01*
X150013003Y-125822458D01*
X150223168Y-125822458D01*
X151063830Y-125822458D01*
X151063830Y-125402127D01*
X150223168Y-125402127D01*
X150223168Y-125822458D01*
X150013003Y-125822458D01*
X149802837Y-125822458D01*
X149802837Y-126663120D01*
X149592672Y-126663120D01*
X149576675Y-126663146D01*
X149444246Y-126674659D01*
X149391802Y-126732426D01*
X149382506Y-126873286D01*
X149382532Y-126889282D01*
X149394045Y-127021712D01*
X149451812Y-127074156D01*
X149592672Y-127083451D01*
X149608668Y-127083477D01*
X149741098Y-127094990D01*
X149793542Y-127152757D01*
X149802837Y-127293617D01*
X149802811Y-127309613D01*
X149791299Y-127442043D01*
X149733531Y-127494487D01*
X149592672Y-127503782D01*
X149382506Y-127503782D01*
X149382506Y-128344444D01*
X149802837Y-128344444D01*
X149802837Y-129605437D01*
X149592672Y-129605437D01*
X149576675Y-129605411D01*
X149444246Y-129593899D01*
X149391802Y-129536131D01*
X149382506Y-129395272D01*
X149382480Y-129379275D01*
X149370968Y-129246846D01*
X149313200Y-129194402D01*
X149172341Y-129185106D01*
X148962175Y-129185106D01*
X148962175Y-127924113D01*
X148121513Y-127924113D01*
X148121513Y-128764775D01*
X148331679Y-128764775D01*
X148347675Y-128764801D01*
X148480105Y-128776313D01*
X148532549Y-128834081D01*
X148541844Y-128974941D01*
X148541844Y-129185106D01*
X147701182Y-129185106D01*
X147701182Y-129605437D01*
X146440189Y-129605437D01*
X146440189Y-129395272D01*
X146440163Y-129379275D01*
X146428651Y-129246846D01*
X146370884Y-129194402D01*
X146230024Y-129185106D01*
X146214027Y-129185080D01*
X146081598Y-129173568D01*
X146029154Y-129115800D01*
X146019858Y-128974941D01*
X147280851Y-128974941D01*
X147280877Y-128990937D01*
X147292390Y-129123367D01*
X147350157Y-129175811D01*
X147491017Y-129185106D01*
X147507014Y-129185080D01*
X147639443Y-129173568D01*
X147691887Y-129115800D01*
X147701182Y-128974941D01*
X147701156Y-128958944D01*
X147689644Y-128826515D01*
X147631876Y-128774071D01*
X147491017Y-128764775D01*
X147475020Y-128764801D01*
X147342591Y-128776313D01*
X147290147Y-128834081D01*
X147280851Y-128974941D01*
X146019858Y-128974941D01*
X146019832Y-128958944D01*
X146008320Y-128826515D01*
X145950553Y-128774071D01*
X145809693Y-128764775D01*
X145793696Y-128764749D01*
X145661267Y-128753237D01*
X145608823Y-128695469D01*
X145599527Y-128554610D01*
X146440189Y-128554610D01*
X146440216Y-128570606D01*
X146451728Y-128703036D01*
X146509495Y-128755480D01*
X146650355Y-128764775D01*
X146666352Y-128764749D01*
X146798781Y-128753237D01*
X146851225Y-128695469D01*
X146860520Y-128554610D01*
X146860520Y-128344444D01*
X146650355Y-128344444D01*
X146634358Y-128344470D01*
X146501929Y-128355982D01*
X146449485Y-128413750D01*
X146440189Y-128554610D01*
X145599527Y-128554610D01*
X145599501Y-128538613D01*
X145587989Y-128406184D01*
X145530222Y-128353740D01*
X145389362Y-128344444D01*
X145179197Y-128344444D01*
X145179197Y-129185106D01*
X145389362Y-129185106D01*
X145405359Y-129185132D01*
X145537788Y-129196644D01*
X145590232Y-129254412D01*
X145599527Y-129395272D01*
X145599527Y-129605437D01*
X144758866Y-129605437D01*
X144758866Y-129395272D01*
X144758839Y-129379275D01*
X144747327Y-129246846D01*
X144689560Y-129194402D01*
X144548700Y-129185106D01*
X144532703Y-129185132D01*
X144400274Y-129196644D01*
X144347830Y-129254412D01*
X144338535Y-129395272D01*
X144338535Y-129605437D01*
X143497873Y-129605437D01*
X143497873Y-129185106D01*
X142657211Y-129185106D01*
X142657211Y-128344444D01*
X142447045Y-128344444D01*
X142431049Y-128344470D01*
X142298619Y-128355982D01*
X142246175Y-128413750D01*
X142236880Y-128554610D01*
X142236880Y-128764775D01*
X141396218Y-128764775D01*
X141396218Y-127924113D01*
X140975887Y-127924113D01*
X140975887Y-128764775D01*
X141396218Y-128764775D01*
X141396218Y-129605437D01*
X141186052Y-129605437D01*
X141170056Y-129605411D01*
X141037626Y-129593899D01*
X140985182Y-129536131D01*
X140975887Y-129395272D01*
X140975861Y-129379275D01*
X140964348Y-129246846D01*
X140906581Y-129194402D01*
X140765721Y-129185106D01*
X140555556Y-129185106D01*
X140555556Y-127924113D01*
X140765721Y-127924113D01*
X140781718Y-127924087D01*
X140914147Y-127912575D01*
X140966591Y-127854807D01*
X140975887Y-127713948D01*
X140975887Y-127503782D01*
X141396218Y-127503782D01*
X142657211Y-127503782D01*
X142657211Y-126242789D01*
X141396218Y-126242789D01*
X141396218Y-127503782D01*
X140975887Y-127503782D01*
X140135225Y-127503782D01*
X140135225Y-129185106D01*
X139925059Y-129185106D01*
X139909063Y-129185132D01*
X139776633Y-129196644D01*
X139724189Y-129254412D01*
X139714894Y-129395272D01*
X139714868Y-129411268D01*
X139703356Y-129543698D01*
X139645588Y-129596142D01*
X139504728Y-129605437D01*
X139294563Y-129605437D01*
X139294563Y-128344444D01*
X139714894Y-128344444D01*
X139714894Y-127503782D01*
X139925059Y-127503782D01*
X139941056Y-127503756D01*
X140073485Y-127492244D01*
X140125929Y-127434476D01*
X140135225Y-127293617D01*
X140135251Y-127277620D01*
X140146763Y-127145191D01*
X140204531Y-127092747D01*
X140345390Y-127083451D01*
X140361387Y-127083425D01*
X140493816Y-127071913D01*
X140546260Y-127014145D01*
X140555556Y-126873286D01*
X140555582Y-126857289D01*
X140567094Y-126724860D01*
X140624862Y-126672416D01*
X140765721Y-126663120D01*
X140975887Y-126663120D01*
X140975887Y-125822458D01*
X140135225Y-125822458D01*
X140135225Y-126242789D01*
X139294563Y-126242789D01*
X139294563Y-125402127D01*
X139504728Y-125402127D01*
X139520725Y-125402101D01*
X139653154Y-125390589D01*
X139705598Y-125332821D01*
X139714894Y-125191962D01*
X139714868Y-125175965D01*
X139703356Y-125043536D01*
X139645588Y-124991092D01*
X139504728Y-124981796D01*
X139294563Y-124981796D01*
X139294563Y-124561465D01*
X139714894Y-124561465D01*
X140135225Y-124561465D01*
X140135225Y-125402127D01*
X140345390Y-125402127D01*
X140361387Y-125402101D01*
X140493816Y-125390589D01*
X140546260Y-125332821D01*
X140555556Y-125191962D01*
X140555582Y-125175965D01*
X140567094Y-125043536D01*
X140624862Y-124991092D01*
X140765721Y-124981796D01*
X140975887Y-124981796D01*
X140975887Y-125822458D01*
X141186052Y-125822458D01*
X141202049Y-125822432D01*
X141334478Y-125810920D01*
X141386922Y-125753152D01*
X141396218Y-125612293D01*
X141396244Y-125596296D01*
X141407756Y-125463867D01*
X141465524Y-125411423D01*
X141606383Y-125402127D01*
X141622380Y-125402101D01*
X141754809Y-125390589D01*
X141807253Y-125332821D01*
X141816549Y-125191962D01*
X141816523Y-125175965D01*
X141805010Y-125043536D01*
X141747243Y-124991092D01*
X141606383Y-124981796D01*
X141590387Y-124981770D01*
X141457957Y-124970258D01*
X141405513Y-124912490D01*
X141396218Y-124771631D01*
X141396218Y-124561465D01*
X140555556Y-124561465D01*
X140555556Y-124351300D01*
X140555530Y-124335303D01*
X140544018Y-124202874D01*
X140486250Y-124150430D01*
X140345390Y-124141134D01*
X140329394Y-124141108D01*
X140196964Y-124129596D01*
X140144520Y-124071829D01*
X140135225Y-123930969D01*
X140135199Y-123914972D01*
X140123687Y-123782543D01*
X140065919Y-123730099D01*
X139925059Y-123720803D01*
X139714894Y-123720803D01*
X139714894Y-124561465D01*
X139294563Y-124561465D01*
X139294563Y-123720803D01*
X139504728Y-123720803D01*
X139520725Y-123720777D01*
X139653154Y-123709265D01*
X139705598Y-123651498D01*
X139714894Y-123510638D01*
X139714920Y-123494641D01*
X139726432Y-123362212D01*
X139784200Y-123309768D01*
X139925059Y-123300473D01*
X139941056Y-123300499D01*
X140073485Y-123312011D01*
X140125929Y-123369778D01*
X140135225Y-123510638D01*
X140135251Y-123526635D01*
X140146763Y-123659064D01*
X140204531Y-123711508D01*
X140345390Y-123720803D01*
X140361387Y-123720830D01*
X140493816Y-123732342D01*
X140546260Y-123790109D01*
X140555556Y-123930969D01*
X140555556Y-124141134D01*
X141396218Y-124141134D01*
X141396218Y-123300473D01*
X140975887Y-123300473D01*
X140975887Y-123090307D01*
X141396218Y-123090307D01*
X141396244Y-123106304D01*
X141407756Y-123238733D01*
X141465524Y-123291177D01*
X141606383Y-123300473D01*
X141622380Y-123300446D01*
X141754809Y-123288934D01*
X141807253Y-123231167D01*
X141816549Y-123090307D01*
X141816523Y-123074310D01*
X141805010Y-122941881D01*
X141747243Y-122889437D01*
X141606383Y-122880142D01*
X141590387Y-122880168D01*
X141457957Y-122891680D01*
X141405513Y-122949447D01*
X141396218Y-123090307D01*
X140975887Y-123090307D01*
X140975887Y-122459811D01*
X141186052Y-122459811D01*
X141202049Y-122459784D01*
X141334478Y-122448272D01*
X141386922Y-122390505D01*
X141396218Y-122249645D01*
X141396244Y-122233648D01*
X141407756Y-122101219D01*
X141465524Y-122048775D01*
X141606383Y-122039480D01*
X141622380Y-122039453D01*
X141754809Y-122027941D01*
X141807253Y-121970174D01*
X141816549Y-121829314D01*
X141816523Y-121813317D01*
X141805010Y-121680888D01*
X141747243Y-121628444D01*
X141606383Y-121619149D01*
X141590387Y-121619123D01*
X141457957Y-121607610D01*
X141405513Y-121549843D01*
X141396218Y-121408983D01*
X141396192Y-121392986D01*
X141384679Y-121260557D01*
X141326912Y-121208113D01*
X141186052Y-121198818D01*
X141396218Y-121198818D01*
X142236880Y-121198818D01*
X142236880Y-122459811D01*
X142447045Y-122459811D01*
X142463042Y-122459837D01*
X142595471Y-122471349D01*
X142647915Y-122529116D01*
X142657211Y-122669976D01*
X142657237Y-122685973D01*
X142668749Y-122818402D01*
X142726517Y-122870846D01*
X142867376Y-122880142D01*
X143077542Y-122880142D01*
X143077542Y-123720803D01*
X143287707Y-123720803D01*
X143303704Y-123720830D01*
X143436133Y-123732342D01*
X143488577Y-123790109D01*
X143497873Y-123930969D01*
X143497899Y-123946966D01*
X143509411Y-124079395D01*
X143567179Y-124131839D01*
X143708038Y-124141134D01*
X143724035Y-124141108D01*
X143856464Y-124129596D01*
X143908908Y-124071829D01*
X143918204Y-123930969D01*
X143918204Y-123720803D01*
X144758866Y-123720803D01*
X144758866Y-123930969D01*
X144758839Y-123946966D01*
X144747327Y-124079395D01*
X144689560Y-124131839D01*
X144548700Y-124141134D01*
X144532703Y-124141161D01*
X144400274Y-124152673D01*
X144347830Y-124210440D01*
X144338535Y-124351300D01*
X144338508Y-124367297D01*
X144326996Y-124499726D01*
X144269229Y-124552170D01*
X144128369Y-124561465D01*
X143918204Y-124561465D01*
X143918204Y-125402127D01*
X143497873Y-125402127D01*
X143497873Y-124561465D01*
X142657211Y-124561465D01*
X142657211Y-123300473D01*
X142236880Y-123300473D01*
X142236880Y-124141134D01*
X142026714Y-124141134D01*
X142010718Y-124141161D01*
X141878288Y-124152673D01*
X141825844Y-124210440D01*
X141816549Y-124351300D01*
X141816549Y-124561465D01*
X142657211Y-124561465D01*
X142657211Y-124771631D01*
X142657185Y-124787628D01*
X142645672Y-124920057D01*
X142587905Y-124972501D01*
X142447045Y-124981796D01*
X142236880Y-124981796D01*
X142236880Y-125822458D01*
X142657211Y-125822458D01*
X142657211Y-124981796D01*
X142867376Y-124981796D01*
X142883373Y-124981823D01*
X143015802Y-124993335D01*
X143068246Y-125051102D01*
X143077542Y-125191962D01*
X143077568Y-125207959D01*
X143089080Y-125340388D01*
X143146848Y-125392832D01*
X143287707Y-125402127D01*
X143497873Y-125402127D01*
X143497873Y-126242789D01*
X143708038Y-126242789D01*
X143724035Y-126242815D01*
X143856464Y-126254328D01*
X143908908Y-126312095D01*
X143918204Y-126452955D01*
X143918177Y-126468951D01*
X143906665Y-126601381D01*
X143848898Y-126653825D01*
X143708038Y-126663120D01*
X143692041Y-126663146D01*
X143559612Y-126674659D01*
X143507168Y-126732426D01*
X143497873Y-126873286D01*
X143497847Y-126889282D01*
X143486334Y-127021712D01*
X143428567Y-127074156D01*
X143287707Y-127083451D01*
X143271710Y-127083477D01*
X143139281Y-127094990D01*
X143086837Y-127152757D01*
X143077542Y-127293617D01*
X143077568Y-127309613D01*
X143089080Y-127442043D01*
X143146848Y-127494487D01*
X143287707Y-127503782D01*
X143303704Y-127503756D01*
X143436133Y-127492244D01*
X143488577Y-127434476D01*
X143497873Y-127293617D01*
X143497899Y-127277620D01*
X143509411Y-127145191D01*
X143567179Y-127092747D01*
X143708038Y-127083451D01*
X143724035Y-127083477D01*
X143856464Y-127094990D01*
X143908908Y-127152757D01*
X143918204Y-127293617D01*
X143918230Y-127309613D01*
X143929742Y-127442043D01*
X143987510Y-127494487D01*
X144128369Y-127503782D01*
X144144366Y-127503808D01*
X144276795Y-127515321D01*
X144329239Y-127573088D01*
X144338535Y-127713948D01*
X144338535Y-127924113D01*
X143077542Y-127924113D01*
X143077542Y-128764775D01*
X143287707Y-128764775D01*
X143303704Y-128764801D01*
X143436133Y-128776313D01*
X143488577Y-128834081D01*
X143497873Y-128974941D01*
X143497899Y-128990937D01*
X143509411Y-129123367D01*
X143567179Y-129175811D01*
X143708038Y-129185106D01*
X143724035Y-129185080D01*
X143856464Y-129173568D01*
X143908908Y-129115800D01*
X143918204Y-128974941D01*
X143918230Y-128958944D01*
X143929742Y-128826515D01*
X143987510Y-128774071D01*
X144128369Y-128764775D01*
X144144366Y-128764749D01*
X144276795Y-128753237D01*
X144329239Y-128695469D01*
X144338535Y-128554610D01*
X144338561Y-128538613D01*
X144350073Y-128406184D01*
X144407840Y-128353740D01*
X144548700Y-128344444D01*
X144758866Y-128344444D01*
X144758866Y-127503782D01*
X144548700Y-127503782D01*
X144532703Y-127503756D01*
X144400274Y-127492244D01*
X144347830Y-127434476D01*
X144338535Y-127293617D01*
X144338508Y-127277620D01*
X144326996Y-127145191D01*
X144269229Y-127092747D01*
X144128369Y-127083451D01*
X144112372Y-127083425D01*
X143979943Y-127071913D01*
X143927499Y-127014145D01*
X143918204Y-126873286D01*
X143918230Y-126857289D01*
X143929742Y-126724860D01*
X143987510Y-126672416D01*
X144128369Y-126663120D01*
X144144366Y-126663094D01*
X144276795Y-126651582D01*
X144329239Y-126593814D01*
X144338535Y-126452955D01*
X144338561Y-126436958D01*
X144350073Y-126304529D01*
X144407840Y-126252085D01*
X144548700Y-126242789D01*
X144758866Y-126242789D01*
X144758866Y-125402127D01*
X145599527Y-125402127D01*
X145599527Y-126242789D01*
X145389362Y-126242789D01*
X145373365Y-126242815D01*
X145240936Y-126254328D01*
X145188492Y-126312095D01*
X145179197Y-126452955D01*
X145179170Y-126468951D01*
X145167658Y-126601381D01*
X145109891Y-126653825D01*
X144969031Y-126663120D01*
X144953034Y-126663146D01*
X144820605Y-126674659D01*
X144768161Y-126732426D01*
X144758866Y-126873286D01*
X144758892Y-126889282D01*
X144770404Y-127021712D01*
X144828171Y-127074156D01*
X144969031Y-127083451D01*
X145179197Y-127083451D01*
X145179197Y-127924113D01*
X145389362Y-127924113D01*
X145405359Y-127924139D01*
X145537788Y-127935652D01*
X145590232Y-127993419D01*
X145599527Y-128134279D01*
X145599554Y-128150275D01*
X145611066Y-128282705D01*
X145668833Y-128335149D01*
X145809693Y-128344444D01*
X145825690Y-128344418D01*
X145958119Y-128332906D01*
X146010563Y-128275138D01*
X146019858Y-128134279D01*
X146019885Y-128118282D01*
X146031397Y-127985853D01*
X146089164Y-127933409D01*
X146230024Y-127924113D01*
X146246021Y-127924087D01*
X146378450Y-127912575D01*
X146430894Y-127854807D01*
X146440189Y-127713948D01*
X146440163Y-127697951D01*
X146428651Y-127565522D01*
X146370884Y-127513078D01*
X146230024Y-127503782D01*
X146214027Y-127503808D01*
X146081598Y-127515321D01*
X146029154Y-127573088D01*
X146019858Y-127713948D01*
X146019832Y-127729944D01*
X146008320Y-127862374D01*
X145950553Y-127914818D01*
X145809693Y-127924113D01*
X145599527Y-127924113D01*
X145599527Y-127083451D01*
X146019858Y-127083451D01*
X146019858Y-125402127D01*
X146230024Y-125402127D01*
X146246021Y-125402101D01*
X146378450Y-125390589D01*
X146430894Y-125332821D01*
X146440189Y-125191962D01*
X146440189Y-124981796D01*
X147701182Y-124981796D01*
X147701182Y-124771631D01*
X147701156Y-124755634D01*
X147689644Y-124623205D01*
X147631876Y-124570761D01*
X147491017Y-124561465D01*
X147280851Y-124561465D01*
X147280851Y-123720803D01*
X147491017Y-123720803D01*
X147507014Y-123720830D01*
X147639443Y-123732342D01*
X147691887Y-123790109D01*
X147701182Y-123930969D01*
X147701182Y-124141134D01*
X148962175Y-124141134D01*
X148962175Y-124561465D01*
X149802837Y-124561465D01*
X149802837Y-124981796D01*
X148541844Y-124981796D01*
X148541844Y-124771631D01*
X148541818Y-124755634D01*
X148530306Y-124623205D01*
X148472538Y-124570761D01*
X148331679Y-124561465D01*
X148121513Y-124561465D01*
X148121513Y-125402127D01*
X148962175Y-125402127D01*
X148962175Y-125822458D01*
X147701182Y-125822458D01*
X147701182Y-125612293D01*
X147701156Y-125596296D01*
X147689644Y-125463867D01*
X147631876Y-125411423D01*
X147491017Y-125402127D01*
X147475020Y-125402153D01*
X147342591Y-125413666D01*
X147290147Y-125471433D01*
X147280851Y-125612293D01*
X147280877Y-125628290D01*
X147292390Y-125760719D01*
X147350157Y-125813163D01*
X147491017Y-125822458D01*
X147701182Y-125822458D01*
X147701182Y-126663120D01*
X146440189Y-126663120D01*
X146440189Y-126873286D01*
X146440216Y-126889282D01*
X146451728Y-127021712D01*
X146509495Y-127074156D01*
X146650355Y-127083451D01*
X146860520Y-127083451D01*
X146860520Y-128344444D01*
X147701182Y-128344444D01*
X147701182Y-128134279D01*
X147701156Y-128118282D01*
X147689644Y-127985853D01*
X147631876Y-127933409D01*
X147491017Y-127924113D01*
X147280851Y-127924113D01*
X147280851Y-127083451D01*
X147491017Y-127083451D01*
X147507014Y-127083477D01*
X147639443Y-127094990D01*
X147691887Y-127152757D01*
X147701182Y-127293617D01*
X147701182Y-127503782D01*
X148541844Y-127503782D01*
X148541844Y-127293617D01*
X148962175Y-127293617D01*
X148962201Y-127309613D01*
X148973714Y-127442043D01*
X149031481Y-127494487D01*
X149172341Y-127503782D01*
X149188337Y-127503756D01*
X149320767Y-127492244D01*
X149373211Y-127434476D01*
X149382506Y-127293617D01*
X149382480Y-127277620D01*
X149370968Y-127145191D01*
X149313200Y-127092747D01*
X149172341Y-127083451D01*
X149156344Y-127083477D01*
X149023915Y-127094990D01*
X148971471Y-127152757D01*
X148962175Y-127293617D01*
X148541844Y-127293617D01*
X148541818Y-127277620D01*
X148530306Y-127145191D01*
X148472538Y-127092747D01*
X148331679Y-127083451D01*
X148315682Y-127083425D01*
X148183253Y-127071913D01*
X148130809Y-127014145D01*
X148121513Y-126873286D01*
X148121539Y-126857289D01*
X148133052Y-126724860D01*
X148190819Y-126672416D01*
X148331679Y-126663120D01*
X148347675Y-126663094D01*
X148480105Y-126651582D01*
X148532549Y-126593814D01*
X148541844Y-126452955D01*
X148541870Y-126436958D01*
X148553383Y-126304529D01*
X148611150Y-126252085D01*
X148752010Y-126242789D01*
X148768006Y-126242815D01*
X148900436Y-126254328D01*
X148952880Y-126312095D01*
X148962175Y-126452955D01*
X148962201Y-126468951D01*
X148973714Y-126601381D01*
X149031481Y-126653825D01*
X149172341Y-126663120D01*
X149188337Y-126663094D01*
X149320767Y-126651582D01*
X149373211Y-126593814D01*
X149382506Y-126452955D01*
X149382480Y-126436958D01*
X149370968Y-126304529D01*
X149313200Y-126252085D01*
X149172341Y-126242789D01*
X149156344Y-126242763D01*
X149023915Y-126231251D01*
X148971471Y-126173483D01*
X148962175Y-126032624D01*
X148962201Y-126016627D01*
X148973714Y-125884198D01*
X149031481Y-125831754D01*
X149172341Y-125822458D01*
X149188337Y-125822432D01*
X149320767Y-125810920D01*
X149373211Y-125753152D01*
X149382506Y-125612293D01*
X149382506Y-125402127D01*
X150223168Y-125402127D01*
X150223168Y-124981796D01*
X151063830Y-124981796D01*
X151904492Y-124981796D01*
X152324823Y-124981796D01*
X152324823Y-123720803D01*
X151904492Y-123720803D01*
X151904492Y-124981796D01*
X151063830Y-124981796D01*
X151063830Y-124771631D01*
X151063856Y-124755634D01*
X151075368Y-124623205D01*
X151133136Y-124570761D01*
X151273996Y-124561465D01*
X151484161Y-124561465D01*
X151484161Y-123300473D01*
X151063830Y-123300473D01*
X151063830Y-122459811D01*
X150853665Y-122459811D01*
X150837668Y-122459784D01*
X150705239Y-122448272D01*
X150652795Y-122390505D01*
X150643499Y-122249645D01*
X150643473Y-122233648D01*
X150631961Y-122101219D01*
X150574193Y-122048775D01*
X150433334Y-122039480D01*
X150417337Y-122039506D01*
X150284908Y-122051018D01*
X150232464Y-122108786D01*
X150223168Y-122249645D01*
X150223142Y-122265642D01*
X150211630Y-122398071D01*
X150153862Y-122450515D01*
X150013003Y-122459811D01*
X149997006Y-122459837D01*
X149864577Y-122471349D01*
X149812133Y-122529116D01*
X149802837Y-122669976D01*
X149802863Y-122685973D01*
X149814376Y-122818402D01*
X149872143Y-122870846D01*
X150013003Y-122880142D01*
X150028999Y-122880168D01*
X150161429Y-122891680D01*
X150213873Y-122949447D01*
X150223168Y-123090307D01*
X150223194Y-123106304D01*
X150234706Y-123238733D01*
X150292474Y-123291177D01*
X150433334Y-123300473D01*
X150449330Y-123300499D01*
X150581760Y-123312011D01*
X150634204Y-123369778D01*
X150643499Y-123510638D01*
X150643499Y-123720803D01*
X149802837Y-123720803D01*
X149802837Y-123510638D01*
X149802811Y-123494641D01*
X149791299Y-123362212D01*
X149733531Y-123309768D01*
X149592672Y-123300473D01*
X149382506Y-123300473D01*
X149382506Y-122039480D01*
X149172341Y-122039480D01*
X149156344Y-122039506D01*
X149023915Y-122051018D01*
X148971471Y-122108786D01*
X148962175Y-122249645D01*
X148962175Y-122459811D01*
X147701182Y-122459811D01*
X147701182Y-122249645D01*
X147701156Y-122233648D01*
X147689644Y-122101219D01*
X147631876Y-122048775D01*
X147491017Y-122039480D01*
X147475020Y-122039506D01*
X147342591Y-122051018D01*
X147290147Y-122108786D01*
X147280851Y-122249645D01*
X147280877Y-122265642D01*
X147292390Y-122398071D01*
X147350157Y-122450515D01*
X147491017Y-122459811D01*
X147701182Y-122459811D01*
X147701182Y-123300473D01*
X146860520Y-123300473D01*
X146860520Y-124561465D01*
X146650355Y-124561465D01*
X146634358Y-124561492D01*
X146501929Y-124573004D01*
X146449485Y-124630771D01*
X146440189Y-124771631D01*
X146440163Y-124787628D01*
X146428651Y-124920057D01*
X146370884Y-124972501D01*
X146230024Y-124981796D01*
X146214027Y-124981770D01*
X146081598Y-124970258D01*
X146029154Y-124912490D01*
X146019858Y-124771631D01*
X146019832Y-124755634D01*
X146008320Y-124623205D01*
X145950553Y-124570761D01*
X145809693Y-124561465D01*
X145793696Y-124561439D01*
X145661267Y-124549927D01*
X145608823Y-124492160D01*
X145599527Y-124351300D01*
X145599554Y-124335303D01*
X145611066Y-124202874D01*
X145668833Y-124150430D01*
X145809693Y-124141134D01*
X145825690Y-124141108D01*
X145958119Y-124129596D01*
X146010563Y-124071829D01*
X146019858Y-123930969D01*
X146019885Y-123914972D01*
X146031397Y-123782543D01*
X146089164Y-123730099D01*
X146230024Y-123720803D01*
X146440189Y-123720803D01*
X146440189Y-122880142D01*
X143077542Y-122880142D01*
X143077542Y-122669976D01*
X143077516Y-122653979D01*
X143066003Y-122521550D01*
X143008236Y-122469106D01*
X142867376Y-122459811D01*
X142851379Y-122459784D01*
X142718950Y-122448272D01*
X142666506Y-122390505D01*
X142657211Y-122249645D01*
X142657237Y-122233648D01*
X142668749Y-122101219D01*
X142726517Y-122048775D01*
X142867376Y-122039480D01*
X143077542Y-122039480D01*
X143077542Y-120778487D01*
X142867376Y-120778487D01*
X142851379Y-120778461D01*
X142718950Y-120766948D01*
X142666506Y-120709181D01*
X142657211Y-120568321D01*
X142657237Y-120552325D01*
X142668749Y-120419895D01*
X142726517Y-120367451D01*
X142867376Y-120358156D01*
X142883373Y-120358130D01*
X143015802Y-120346617D01*
X143068246Y-120288850D01*
X143077542Y-120147990D01*
X143077516Y-120131994D01*
X143066003Y-119999564D01*
X143008236Y-119947120D01*
X142867376Y-119937825D01*
X142851379Y-119937799D01*
X142718950Y-119926286D01*
X142666506Y-119868519D01*
X142657211Y-119727659D01*
X142657185Y-119711663D01*
X142645672Y-119579233D01*
X142587905Y-119526789D01*
X142447045Y-119517494D01*
X142431049Y-119517520D01*
X142298619Y-119529032D01*
X142246175Y-119586800D01*
X142236880Y-119727659D01*
X142236906Y-119743656D01*
X142248418Y-119876085D01*
X142306186Y-119928529D01*
X142447045Y-119937825D01*
X142463042Y-119937851D01*
X142595471Y-119949363D01*
X142647915Y-120007131D01*
X142657211Y-120147990D01*
X142657185Y-120163987D01*
X142645672Y-120296416D01*
X142587905Y-120348860D01*
X142447045Y-120358156D01*
X142431049Y-120358182D01*
X142298619Y-120369694D01*
X142246175Y-120427462D01*
X142236880Y-120568321D01*
X142236880Y-120778487D01*
X141396218Y-120778487D01*
X141396218Y-121198818D01*
X141186052Y-121198818D01*
X141170056Y-121198844D01*
X141037626Y-121210356D01*
X140985182Y-121268124D01*
X140975887Y-121408983D01*
X140975861Y-121424980D01*
X140964348Y-121557409D01*
X140906581Y-121609853D01*
X140765721Y-121619149D01*
X140749725Y-121619123D01*
X140617295Y-121607610D01*
X140564851Y-121549843D01*
X140555556Y-121408983D01*
X140555530Y-121392986D01*
X140544018Y-121260557D01*
X140486250Y-121208113D01*
X140345390Y-121198818D01*
X140329394Y-121198792D01*
X140196964Y-121187279D01*
X140144520Y-121129512D01*
X140135225Y-120988652D01*
X140135199Y-120972655D01*
X140123687Y-120840226D01*
X140065919Y-120787782D01*
X139925059Y-120778487D01*
X139909063Y-120778513D01*
X139776633Y-120790025D01*
X139724189Y-120847793D01*
X139714894Y-120988652D01*
X139714868Y-121004649D01*
X139703356Y-121137078D01*
X139645588Y-121189522D01*
X139504728Y-121198818D01*
X139294563Y-121198818D01*
X139294563Y-119937825D01*
X139504728Y-119937825D01*
X139520725Y-119937851D01*
X139653154Y-119949363D01*
X139705598Y-120007131D01*
X139714894Y-120147990D01*
X139714920Y-120163987D01*
X139726432Y-120296416D01*
X139784200Y-120348860D01*
X139925059Y-120358156D01*
X139941056Y-120358182D01*
X140073485Y-120369694D01*
X140125929Y-120427462D01*
X140135225Y-120568321D01*
X140135225Y-120778487D01*
X141396218Y-120778487D01*
X141396218Y-119937825D01*
X141606383Y-119937825D01*
X141622380Y-119937799D01*
X141754809Y-119926286D01*
X141807253Y-119868519D01*
X141816549Y-119727659D01*
X141816549Y-119517494D01*
X140975887Y-119517494D01*
X140975887Y-119727659D01*
X140975861Y-119743656D01*
X140964348Y-119876085D01*
X140906581Y-119928529D01*
X140765721Y-119937825D01*
X140749725Y-119937799D01*
X140617295Y-119926286D01*
X140564851Y-119868519D01*
X140555556Y-119727659D01*
X140555582Y-119711663D01*
X140567094Y-119579233D01*
X140624862Y-119526789D01*
X140765721Y-119517494D01*
X140781718Y-119517468D01*
X140914147Y-119505955D01*
X140966591Y-119448188D01*
X140975887Y-119307328D01*
X140975887Y-119097163D01*
X142657211Y-119097163D01*
X142657211Y-118466666D01*
X143077542Y-118466666D01*
X143077568Y-118482663D01*
X143089080Y-118615092D01*
X143146848Y-118667536D01*
X143287707Y-118676832D01*
X143497873Y-118676832D01*
X143497873Y-119517494D01*
X143918204Y-119517494D01*
X143918204Y-120358156D01*
X143497873Y-120358156D01*
X143497873Y-121198818D01*
X143708038Y-121198818D01*
X143724035Y-121198844D01*
X143856464Y-121210356D01*
X143908908Y-121268124D01*
X143918204Y-121408983D01*
X143918177Y-121424980D01*
X143906665Y-121557409D01*
X143848898Y-121609853D01*
X143708038Y-121619149D01*
X143692041Y-121619175D01*
X143559612Y-121630687D01*
X143507168Y-121688455D01*
X143497873Y-121829314D01*
X143497899Y-121845311D01*
X143509411Y-121977740D01*
X143567179Y-122030184D01*
X143708038Y-122039480D01*
X143724035Y-122039506D01*
X143856464Y-122051018D01*
X143908908Y-122108786D01*
X143918204Y-122249645D01*
X143918230Y-122265642D01*
X143929742Y-122398071D01*
X143987510Y-122450515D01*
X144128369Y-122459811D01*
X144144366Y-122459784D01*
X144276795Y-122448272D01*
X144329239Y-122390505D01*
X144338535Y-122249645D01*
X144338508Y-122233648D01*
X144326996Y-122101219D01*
X144269229Y-122048775D01*
X144128369Y-122039480D01*
X144112372Y-122039453D01*
X143979943Y-122027941D01*
X143927499Y-121970174D01*
X143918204Y-121829314D01*
X143918204Y-121619149D01*
X144758866Y-121619149D01*
X144758866Y-122459811D01*
X144969031Y-122459811D01*
X144985028Y-122459784D01*
X145117457Y-122448272D01*
X145169901Y-122390505D01*
X145179197Y-122249645D01*
X145179223Y-122233648D01*
X145190735Y-122101219D01*
X145248502Y-122048775D01*
X145389362Y-122039480D01*
X145405359Y-122039506D01*
X145537788Y-122051018D01*
X145590232Y-122108786D01*
X145599527Y-122249645D01*
X145599554Y-122265642D01*
X145611066Y-122398071D01*
X145668833Y-122450515D01*
X145809693Y-122459811D01*
X146019858Y-122459811D01*
X146019858Y-121829314D01*
X146440189Y-121829314D01*
X146440216Y-121845311D01*
X146451728Y-121977740D01*
X146509495Y-122030184D01*
X146650355Y-122039480D01*
X146666352Y-122039453D01*
X146798781Y-122027941D01*
X146851225Y-121970174D01*
X146860520Y-121829314D01*
X146860494Y-121813317D01*
X146848982Y-121680888D01*
X146791214Y-121628444D01*
X146650355Y-121619149D01*
X146634358Y-121619175D01*
X146501929Y-121630687D01*
X146449485Y-121688455D01*
X146440189Y-121829314D01*
X146019858Y-121829314D01*
X146019858Y-121198818D01*
X146230024Y-121198818D01*
X146246021Y-121198792D01*
X146378450Y-121187279D01*
X146430894Y-121129512D01*
X146440189Y-120988652D01*
X146440163Y-120972655D01*
X146428651Y-120840226D01*
X146370884Y-120787782D01*
X146230024Y-120778487D01*
X146019858Y-120778487D01*
X146019858Y-119517494D01*
X145809693Y-119517494D01*
X145793696Y-119517468D01*
X145661267Y-119505955D01*
X145608823Y-119448188D01*
X145599527Y-119307328D01*
X145599554Y-119291332D01*
X145611066Y-119158902D01*
X145668833Y-119106458D01*
X145809693Y-119097163D01*
X146019858Y-119097163D01*
X146019858Y-118466666D01*
X146440189Y-118466666D01*
X146440216Y-118482663D01*
X146451728Y-118615092D01*
X146509495Y-118667536D01*
X146650355Y-118676832D01*
X146666352Y-118676858D01*
X146798781Y-118688370D01*
X146851225Y-118746138D01*
X146860520Y-118886997D01*
X146860520Y-119097163D01*
X147701182Y-119097163D01*
X147701182Y-118256501D01*
X147911348Y-118256501D01*
X147927345Y-118256527D01*
X148059774Y-118268039D01*
X148112218Y-118325807D01*
X148121513Y-118466666D01*
X148121539Y-118482663D01*
X148133052Y-118615092D01*
X148190819Y-118667536D01*
X148331679Y-118676832D01*
X148347675Y-118676806D01*
X148480105Y-118665294D01*
X148532549Y-118607526D01*
X148541844Y-118466666D01*
X148541870Y-118450670D01*
X148553383Y-118318240D01*
X148611150Y-118265796D01*
X148752010Y-118256501D01*
X148962175Y-118256501D01*
X148962175Y-119097163D01*
X149382506Y-119097163D01*
X149382506Y-117836170D01*
X148541844Y-117836170D01*
X148541844Y-118046335D01*
X148541818Y-118062332D01*
X148530306Y-118194761D01*
X148472538Y-118247205D01*
X148331679Y-118256501D01*
X148121513Y-118256501D01*
X148121513Y-117415839D01*
X148331679Y-117415839D01*
X148347675Y-117415813D01*
X148480105Y-117404301D01*
X148532549Y-117346533D01*
X148541844Y-117205673D01*
X148541844Y-116995508D01*
X147701182Y-116995508D01*
X147701182Y-117836170D01*
X146860520Y-117836170D01*
X146860520Y-118046335D01*
X146860494Y-118062332D01*
X146848982Y-118194761D01*
X146791214Y-118247205D01*
X146650355Y-118256501D01*
X146634358Y-118256527D01*
X146501929Y-118268039D01*
X146449485Y-118325807D01*
X146440189Y-118466666D01*
X146019858Y-118466666D01*
X146019858Y-118256501D01*
X145809693Y-118256501D01*
X145793696Y-118256527D01*
X145661267Y-118268039D01*
X145608823Y-118325807D01*
X145599527Y-118466666D01*
X145599501Y-118482663D01*
X145587989Y-118615092D01*
X145530222Y-118667536D01*
X145389362Y-118676832D01*
X145373365Y-118676806D01*
X145240936Y-118665294D01*
X145188492Y-118607526D01*
X145179197Y-118466666D01*
X145179170Y-118450670D01*
X145167658Y-118318240D01*
X145109891Y-118265796D01*
X144969031Y-118256501D01*
X144758866Y-118256501D01*
X144758866Y-117415839D01*
X144969031Y-117415839D01*
X144985028Y-117415813D01*
X145117457Y-117404301D01*
X145169901Y-117346533D01*
X145179197Y-117205673D01*
X145179223Y-117189677D01*
X145190735Y-117057247D01*
X145248502Y-117004803D01*
X145389362Y-116995508D01*
X145405359Y-116995482D01*
X145537788Y-116983970D01*
X145590232Y-116926202D01*
X145599527Y-116785342D01*
X145599501Y-116769346D01*
X145587989Y-116636917D01*
X145530222Y-116584472D01*
X145389362Y-116575177D01*
X145373365Y-116575203D01*
X145240936Y-116586715D01*
X145188492Y-116644483D01*
X145179197Y-116785342D01*
X145179170Y-116801339D01*
X145167658Y-116933768D01*
X145109891Y-116986213D01*
X144969031Y-116995508D01*
X144953034Y-116995482D01*
X144820605Y-116983970D01*
X144768161Y-116926202D01*
X144758866Y-116785342D01*
X144758866Y-116575177D01*
X143918204Y-116575177D01*
X143918204Y-117415839D01*
X144338535Y-117415839D01*
X144338535Y-118256501D01*
X144128369Y-118256501D01*
X144112372Y-118256527D01*
X143979943Y-118268039D01*
X143927499Y-118325807D01*
X143918204Y-118466666D01*
X143918177Y-118482663D01*
X143906665Y-118615092D01*
X143848898Y-118667536D01*
X143708038Y-118676832D01*
X143692041Y-118676806D01*
X143559612Y-118665294D01*
X143507168Y-118607526D01*
X143497873Y-118466666D01*
X143497847Y-118450670D01*
X143486334Y-118318240D01*
X143428567Y-118265796D01*
X143287707Y-118256501D01*
X143271710Y-118256527D01*
X143139281Y-118268039D01*
X143086837Y-118325807D01*
X143077542Y-118466666D01*
X142657211Y-118466666D01*
X142657211Y-118256501D01*
X142867376Y-118256501D01*
X142883373Y-118256475D01*
X143015802Y-118244963D01*
X143068246Y-118187195D01*
X143077542Y-118046335D01*
X143077516Y-118030339D01*
X143066003Y-117897909D01*
X143008236Y-117845465D01*
X142867376Y-117836170D01*
X142657211Y-117836170D01*
X142657211Y-116995508D01*
X142867376Y-116995508D01*
X142883373Y-116995534D01*
X143015802Y-117007046D01*
X143068246Y-117064814D01*
X143077542Y-117205673D01*
X143077568Y-117221670D01*
X143089080Y-117354099D01*
X143146848Y-117406543D01*
X143287707Y-117415839D01*
X143497873Y-117415839D01*
X143497873Y-116575177D01*
X143077542Y-116575177D01*
X143077542Y-115734515D01*
X144758866Y-115734515D01*
X144758866Y-116575177D01*
X144969031Y-116575177D01*
X144985028Y-116575151D01*
X145117457Y-116563639D01*
X145169901Y-116505871D01*
X145179197Y-116365012D01*
X145179223Y-116349015D01*
X145190735Y-116216586D01*
X145248502Y-116164141D01*
X145389362Y-116154846D01*
X145405359Y-116154820D01*
X145537788Y-116143308D01*
X145590232Y-116085540D01*
X145599527Y-115944681D01*
X145599554Y-115928684D01*
X145611066Y-115796255D01*
X145668833Y-115743811D01*
X145809693Y-115734515D01*
X146019858Y-115734515D01*
X146019858Y-116995508D01*
X145809693Y-116995508D01*
X145793696Y-116995534D01*
X145661267Y-117007046D01*
X145608823Y-117064814D01*
X145599527Y-117205673D01*
X145599554Y-117221670D01*
X145611066Y-117354099D01*
X145668833Y-117406543D01*
X145809693Y-117415839D01*
X146019858Y-117415839D01*
X146019858Y-118256501D01*
X146440189Y-118256501D01*
X146440189Y-117415839D01*
X147280851Y-117415839D01*
X147280851Y-116575177D01*
X147070686Y-116575177D01*
X147054689Y-116575151D01*
X146922260Y-116563639D01*
X146869816Y-116505871D01*
X146860520Y-116365012D01*
X148121513Y-116365012D01*
X148121539Y-116381008D01*
X148133052Y-116513437D01*
X148190819Y-116565882D01*
X148331679Y-116575177D01*
X148347675Y-116575151D01*
X148480105Y-116563639D01*
X148532549Y-116505871D01*
X148541844Y-116365012D01*
X148541818Y-116349015D01*
X148530306Y-116216586D01*
X148472538Y-116164141D01*
X148331679Y-116154846D01*
X148315682Y-116154872D01*
X148183253Y-116166384D01*
X148130809Y-116224152D01*
X148121513Y-116365012D01*
X146860520Y-116365012D01*
X146860494Y-116349015D01*
X146848982Y-116216586D01*
X146791214Y-116164141D01*
X146650355Y-116154846D01*
X146634358Y-116154820D01*
X146501929Y-116143308D01*
X146449485Y-116085540D01*
X146440189Y-115944681D01*
X146440216Y-115928684D01*
X146451728Y-115796255D01*
X146509495Y-115743811D01*
X146650355Y-115734515D01*
X146666352Y-115734541D01*
X146798781Y-115746053D01*
X146851225Y-115803821D01*
X146860520Y-115944681D01*
X146860547Y-115960677D01*
X146872059Y-116093107D01*
X146929826Y-116145551D01*
X147070686Y-116154846D01*
X147086683Y-116154820D01*
X147219112Y-116143308D01*
X147271556Y-116085540D01*
X147280851Y-115944681D01*
X147280851Y-115734515D01*
X148541844Y-115734515D01*
X148541844Y-116154846D01*
X149382506Y-116154846D01*
X149382506Y-115944681D01*
X149382532Y-115928684D01*
X149394045Y-115796255D01*
X149451812Y-115743811D01*
X149592672Y-115734515D01*
X149802837Y-115734515D01*
X149802837Y-116575177D01*
X148962175Y-116575177D01*
X148962175Y-117415839D01*
X149802837Y-117415839D01*
X149802837Y-119937825D01*
X148541844Y-119937825D01*
G37*
G36*
X150223168Y-129605437D02*
G01*
X150223168Y-129185106D01*
X150643499Y-129185106D01*
X152745154Y-129185106D01*
X152745154Y-127083451D01*
X150643499Y-127083451D01*
X150643499Y-129185106D01*
X150223168Y-129185106D01*
X150223168Y-126663120D01*
X153165485Y-126663120D01*
X153165485Y-129605437D01*
X150223168Y-129605437D01*
G37*
G36*
X148541844Y-120147990D02*
G01*
X148541818Y-120163987D01*
X148530306Y-120296416D01*
X148472538Y-120348860D01*
X148331679Y-120358156D01*
X148315682Y-120358130D01*
X148183253Y-120346617D01*
X148130809Y-120288850D01*
X148121513Y-120147990D01*
X148121539Y-120131994D01*
X148133052Y-119999564D01*
X148190819Y-119947120D01*
X148331679Y-119937825D01*
X148541844Y-119937825D01*
X148541844Y-120147990D01*
G37*
%TD*%
M02*
