M48
; DRILL file {KiCad (6.0.9)} date Sun Jan 29 02:38:47 2023
; FORMAT={-:-/ absolute / metric / decimal}
; #@! TF.CreationDate,2023-01-29T02:38:47+01:00
; #@! TF.GenerationSoftware,Kicad,Pcbnew,(6.0.9)
; #@! TF.FileFunction,MixedPlating,1,2
FMAT,2
METRIC
; #@! TA.AperFunction,Plated,PTH,ViaDrill
T1C0.254
; #@! TA.AperFunction,Plated,PTH,ComponentDrill
T2C0.254
; #@! TA.AperFunction,Plated,PTH,ViaDrill
T3C0.500
; #@! TA.AperFunction,Plated,PTH,ComponentDrill
T4C0.900
; #@! TA.AperFunction,Plated,PTH,ComponentDrill
T5C1.000
; #@! TA.AperFunction,Plated,PTH,ComponentDrill
T6C1.300
; #@! TA.AperFunction,NonPlated,NPTH,ComponentDrill
T7C1.800
; #@! TA.AperFunction,NonPlated,NPTH,ComponentDrill
T8C3.200
; #@! TA.AperFunction,NonPlated,NPTH,ComponentDrill
T9C4.100
%
G90
G05
T1
X78.486Y-98.552
X79.248Y-77.47
X81.534Y-80.772
X82.042Y-100.584
X91.44Y-77.724
X101.346Y-78.486
X123.952Y-130.302
X125.984Y-130.302
X166.116Y-142.24
X179.401Y-130.137
X181.61Y-134.62
X185.877Y-123.622
X186.231Y-119.88
X190.805Y-123.571
X191.313Y-127.61
X192.786Y-110.49
T2
X133.597Y-106.489
X133.597Y-110.935
X134.369Y-102.111
X134.369Y-115.313
X135.89Y-97.934
X135.89Y-119.49
X138.112Y-94.084
X138.112Y-123.34
X140.97Y-90.678
X140.97Y-126.746
X144.376Y-129.604
X144.376Y-87.82
X148.226Y-131.826
X148.226Y-85.598
X152.403Y-133.347
X156.781Y-134.119
X161.227Y-134.119
X165.605Y-133.347
X169.782Y-131.826
X173.632Y-129.604
X177.038Y-126.746
X179.896Y-123.34
X182.118Y-97.934
X182.118Y-119.49
X183.639Y-102.111
X183.639Y-115.313
X184.411Y-106.489
X184.411Y-110.935
T3
X88.367Y-89.129
X97.892Y-115.519
X103.175Y-99.162
X103.226Y-102.718
X103.784Y-115.316
X107.442Y-67.056
X107.594Y-107.442
X107.747Y-110.693
X111.76Y-98.603
X123.19Y-124.46
X125.222Y-126.492
X125.476Y-121.412
X127.508Y-121.666
X131.877Y-133.198
X135.509Y-78.954
X138.43Y-75.692
X139.421Y-66.116
X141.91Y-132.613
X147.117Y-136.779
X150.444Y-57.633
X167.691Y-135.865
X170.485Y-135.712
X171.831Y-136.982
X173.304Y-134.696
X174.549Y-133.654
X176.555Y-130.149
X178.054Y-130.023
X183.491Y-124.206
X185.623Y-118.16
X185.953Y-127.814
X186.995Y-142.189
X189.713Y-113.83
X192.176Y-117.858
X194.462Y-98.196
X194.767Y-131.623
X195.326Y-117.805
T4
X192.959Y-101.847
X192.959Y-104.137
X192.959Y-113.277
X192.959Y-115.567
T5
X179.324Y-78.74
X180.131Y-143.028
X181.864Y-78.74
X182.671Y-143.028
X184.404Y-78.74
X186.944Y-78.74
X188.316Y-121.844
X188.316Y-124.384
X188.316Y-126.924
X188.316Y-129.464
X188.316Y-132.004
X188.316Y-134.544
X188.316Y-137.084
X188.316Y-139.624
X189.454Y-83.845
X189.454Y-86.385
X189.454Y-88.925
X189.454Y-91.465
X189.454Y-94.005
X189.454Y-96.545
X189.484Y-78.74
X192.176Y-121.793
X194.716Y-121.793
X197.256Y-121.793
X199.796Y-121.793
T6
X73.533Y-89.281
X73.66Y-67.31
X73.66Y-110.363
X73.66Y-131.318
X79.883Y-86.741
X80.01Y-64.77
X80.01Y-107.823
X80.01Y-128.778
X94.615Y-110.363
X94.742Y-89.281
X100.965Y-107.823
X101.092Y-86.741
X104.915Y-131.356
X107.188Y-56.896
X111.265Y-128.816
X113.538Y-54.356
X115.697Y-89.281
X115.697Y-110.363
X122.047Y-86.741
X122.047Y-107.823
X129.159Y-59.69
X135.509Y-57.15
X151.13Y-69.342
X157.48Y-66.802
T7
X70.993Y-84.201
X71.12Y-62.23
X71.12Y-105.283
X71.12Y-126.238
X81.153Y-84.201
X81.28Y-62.23
X81.28Y-105.283
X81.28Y-126.238
X92.075Y-105.283
X92.202Y-84.201
X102.235Y-105.283
X102.362Y-84.201
X102.375Y-126.276
X104.648Y-51.816
X112.535Y-126.276
X113.157Y-84.201
X113.157Y-105.283
X114.808Y-51.816
X123.317Y-84.201
X123.317Y-105.283
X126.619Y-54.61
X136.779Y-54.61
X148.59Y-64.262
X158.75Y-64.262
T8
X61.177Y-50.866
X61.189Y-90.881
X61.189Y-130.861
X78.943Y-148.641
X91.719Y-50.851
X118.948Y-148.615
X122.047Y-69.494
X158.953Y-148.641
T9
X76.073Y-84.201
X76.2Y-62.23
X76.2Y-105.283
X76.2Y-126.238
X97.155Y-105.283
X97.282Y-84.201
X107.455Y-126.276
X109.728Y-51.816
X118.237Y-84.201
X118.237Y-105.283
X131.699Y-54.61
X153.67Y-64.262
T4
G00X201.169Y-100.682
M15
G01X199.469Y-100.682
M16
G05
G00X201.169Y-116.732
M15
G01X199.469Y-116.732
M16
G05
T0
M30
