%TF.GenerationSoftware,KiCad,Pcbnew,(6.0.9)*%
%TF.CreationDate,2023-01-29T02:38:54+01:00*%
%TF.ProjectId,PICO DEV M3 KEYPAD,5049434f-2044-4455-9620-4d33204b4559,0.1*%
%TF.SameCoordinates,Original*%
%TF.FileFunction,Legend,Bot*%
%TF.FilePolarity,Positive*%
%FSLAX46Y46*%
G04 Gerber Fmt 4.6, Leading zero omitted, Abs format (unit mm)*
G04 Created by KiCad (PCBNEW (6.0.9)) date 2023-01-29 02:38:54*
%MOMM*%
%LPD*%
G01*
G04 APERTURE LIST*
G04 APERTURE END LIST*
%TO.C,G\u002A\u002A\u002A*%
G36*
X135430827Y-149584425D02*
G01*
X135497518Y-149599540D01*
X135550993Y-149633753D01*
X135589953Y-149682208D01*
X135613100Y-149740050D01*
X135619134Y-149802423D01*
X135606758Y-149864471D01*
X135574672Y-149921340D01*
X135521578Y-149968173D01*
X135496177Y-149981569D01*
X135455743Y-149991375D01*
X135401085Y-149991326D01*
X135374702Y-149988477D01*
X135303185Y-149965760D01*
X135249795Y-149923608D01*
X135216395Y-149863944D01*
X135204848Y-149788690D01*
X135208746Y-149745491D01*
X135233602Y-149679125D01*
X135278878Y-149628220D01*
X135341616Y-149595604D01*
X135418858Y-149584103D01*
X135430827Y-149584425D01*
G37*
G36*
X133663668Y-152471711D02*
G01*
X133335219Y-152471711D01*
X133335219Y-149556733D01*
X133663668Y-149556733D01*
X133663668Y-152471711D01*
G37*
G36*
X127600567Y-150517791D02*
G01*
X127696078Y-150523480D01*
X127773943Y-150535068D01*
X127803663Y-150542132D01*
X127954383Y-150593814D01*
X128092486Y-150667678D01*
X128216139Y-150761224D01*
X128323508Y-150871953D01*
X128412760Y-150997365D01*
X128482062Y-151134961D01*
X128529580Y-151282239D01*
X128553482Y-151436702D01*
X128551934Y-151595849D01*
X128544076Y-151663337D01*
X128511767Y-151816502D01*
X128459650Y-151954122D01*
X128385982Y-152080190D01*
X128289022Y-152198704D01*
X128190457Y-152292308D01*
X128064571Y-152382069D01*
X127928386Y-152447990D01*
X127778969Y-152491754D01*
X127743449Y-152497753D01*
X127683363Y-152504328D01*
X127615278Y-152509038D01*
X127546234Y-152511644D01*
X127483270Y-152511909D01*
X127433426Y-152509594D01*
X127403742Y-152504460D01*
X127398352Y-152500680D01*
X127393003Y-152490164D01*
X127388950Y-152470366D01*
X127386021Y-152438273D01*
X127384044Y-152390870D01*
X127382846Y-152325141D01*
X127382254Y-152238072D01*
X127382094Y-152126649D01*
X127382109Y-152076539D01*
X127382318Y-151977179D01*
X127382931Y-151901005D01*
X127384145Y-151845086D01*
X127386154Y-151806486D01*
X127389153Y-151782274D01*
X127393338Y-151769516D01*
X127398903Y-151765277D01*
X127406044Y-151766626D01*
X127480032Y-151788939D01*
X127568192Y-151796156D01*
X127647338Y-151780883D01*
X127714549Y-151744266D01*
X127766904Y-151687449D01*
X127801481Y-151611579D01*
X127803231Y-151605494D01*
X127814784Y-151555795D01*
X127816104Y-151516487D01*
X127807807Y-151474200D01*
X127799749Y-151448411D01*
X127761343Y-151374720D01*
X127707654Y-151317723D01*
X127643054Y-151278819D01*
X127571919Y-151259404D01*
X127498621Y-151260877D01*
X127427536Y-151284635D01*
X127363037Y-151332076D01*
X127349478Y-151345949D01*
X127329527Y-151368933D01*
X127313357Y-151393420D01*
X127300573Y-151422284D01*
X127290779Y-151458400D01*
X127283578Y-151504641D01*
X127278574Y-151563881D01*
X127275371Y-151638995D01*
X127273574Y-151732857D01*
X127272786Y-151848340D01*
X127272612Y-151988319D01*
X127272612Y-152471711D01*
X126545698Y-152471711D01*
X126550601Y-151879820D01*
X126550712Y-151866407D01*
X126552014Y-151717047D01*
X126553479Y-151591815D01*
X126555479Y-151487715D01*
X126558384Y-151401751D01*
X126562568Y-151330926D01*
X126568401Y-151272244D01*
X126576255Y-151222709D01*
X126586503Y-151179326D01*
X126599516Y-151139097D01*
X126615666Y-151099027D01*
X126635324Y-151056120D01*
X126658862Y-151007379D01*
X126663719Y-150997574D01*
X126740003Y-150875722D01*
X126837880Y-150766970D01*
X126953713Y-150674265D01*
X127083870Y-150600553D01*
X127224713Y-150548780D01*
X127298114Y-150533878D01*
X127392590Y-150523215D01*
X127496406Y-150517777D01*
X127600567Y-150517791D01*
G37*
G36*
X132835769Y-151508071D02*
G01*
X132830681Y-151634674D01*
X132817869Y-151754051D01*
X132797517Y-151857088D01*
X132768857Y-151954403D01*
X132734012Y-152042303D01*
X132690369Y-152122508D01*
X132633107Y-152205221D01*
X132568681Y-152280057D01*
X132461810Y-152369186D01*
X132336574Y-152438317D01*
X132192493Y-152487755D01*
X132190557Y-152488253D01*
X132145597Y-152498207D01*
X132098915Y-152504675D01*
X132044114Y-152508060D01*
X131974799Y-152508768D01*
X131884573Y-152507200D01*
X131869500Y-152506793D01*
X131741372Y-152500044D01*
X131632632Y-152487000D01*
X131536432Y-152466222D01*
X131445926Y-152436270D01*
X131354266Y-152395704D01*
X131255047Y-152347048D01*
X131255047Y-152032465D01*
X131313210Y-152072306D01*
X131322223Y-152078412D01*
X131448494Y-152150811D01*
X131578683Y-152202931D01*
X131709981Y-152235126D01*
X131839575Y-152247752D01*
X131964655Y-152241161D01*
X132082411Y-152215708D01*
X132190032Y-152171748D01*
X132284707Y-152109633D01*
X132363624Y-152029719D01*
X132423974Y-151932360D01*
X132448675Y-151872354D01*
X132475245Y-151786206D01*
X132493380Y-151700467D01*
X132500211Y-151626641D01*
X132500413Y-151568478D01*
X131114923Y-151568478D01*
X131121814Y-151352934D01*
X131123723Y-151300726D01*
X131124059Y-151294771D01*
X131446642Y-151294771D01*
X132501654Y-151294771D01*
X132492356Y-151243451D01*
X132471186Y-151162945D01*
X132433168Y-151069803D01*
X132384147Y-150980677D01*
X132328452Y-150903326D01*
X132270410Y-150845513D01*
X132204169Y-150800521D01*
X132097042Y-150751873D01*
X131984589Y-150726523D01*
X131872485Y-150726170D01*
X131862358Y-150727506D01*
X131784856Y-150746698D01*
X131706023Y-150779398D01*
X131635425Y-150820965D01*
X131582629Y-150866761D01*
X131577647Y-150872566D01*
X131525278Y-150951407D01*
X131483789Y-151046557D01*
X131456478Y-151148755D01*
X131446642Y-151248741D01*
X131446642Y-151294771D01*
X131124059Y-151294771D01*
X131128606Y-151214181D01*
X131135549Y-151145328D01*
X131145298Y-151087736D01*
X131158596Y-151034973D01*
X131168148Y-151003878D01*
X131226381Y-150861147D01*
X131301856Y-150739620D01*
X131394189Y-150639587D01*
X131502995Y-150561335D01*
X131627888Y-150505156D01*
X131768484Y-150471337D01*
X131924397Y-150460168D01*
X131971979Y-150461056D01*
X132099665Y-150473686D01*
X132213699Y-150502553D01*
X132321441Y-150549310D01*
X132367391Y-150575240D01*
X132492402Y-150666273D01*
X132601207Y-150777514D01*
X132691818Y-150906297D01*
X132762248Y-151049953D01*
X132810509Y-151205817D01*
X132822049Y-151269645D01*
X132824458Y-151294771D01*
X132832953Y-151383357D01*
X132835769Y-151508071D01*
G37*
G36*
X136082156Y-150504042D02*
G01*
X136254140Y-150507864D01*
X136526284Y-151257119D01*
X136564746Y-151363368D01*
X136613364Y-151498726D01*
X136658892Y-151626646D01*
X136700424Y-151744520D01*
X136737053Y-151849741D01*
X136767872Y-151939699D01*
X136791976Y-152011788D01*
X136808458Y-152063399D01*
X136816411Y-152091925D01*
X136834394Y-152177476D01*
X136850917Y-152115892D01*
X136858253Y-152089512D01*
X136868717Y-152054258D01*
X136882095Y-152011477D01*
X136899076Y-151959139D01*
X136920349Y-151895211D01*
X136946601Y-151817662D01*
X136978520Y-151724461D01*
X137016795Y-151613575D01*
X137062115Y-151482973D01*
X137115167Y-151330624D01*
X137176640Y-151154497D01*
X137404906Y-150501021D01*
X137580246Y-150501021D01*
X137591225Y-150501035D01*
X137655456Y-150501698D01*
X137707671Y-150503213D01*
X137742754Y-150505375D01*
X137755586Y-150507982D01*
X137752752Y-150516354D01*
X137741055Y-150548327D01*
X137721014Y-150602245D01*
X137693402Y-150676054D01*
X137658993Y-150767698D01*
X137618560Y-150875120D01*
X137572875Y-150996265D01*
X137522713Y-151129077D01*
X137468845Y-151271501D01*
X137412046Y-151421479D01*
X137371920Y-151527367D01*
X137315776Y-151675545D01*
X137262497Y-151816179D01*
X137212939Y-151947013D01*
X137167955Y-152065791D01*
X137128400Y-152170255D01*
X137095129Y-152258151D01*
X137068995Y-152327222D01*
X137050853Y-152375211D01*
X137041558Y-152399863D01*
X137014611Y-152471711D01*
X136694929Y-152471711D01*
X136374151Y-151667697D01*
X136373791Y-151666796D01*
X136315208Y-151519923D01*
X136257749Y-151375799D01*
X136202543Y-151237258D01*
X136150716Y-151107135D01*
X136103399Y-150988261D01*
X136061717Y-150883472D01*
X136026801Y-150795602D01*
X135999776Y-150727484D01*
X135981772Y-150681951D01*
X135910172Y-150500219D01*
X136082156Y-150504042D01*
G37*
G36*
X134515451Y-127688984D02*
G01*
X134559691Y-127705500D01*
X134617165Y-127740726D01*
X134688162Y-127794953D01*
X134772968Y-127868473D01*
X134871873Y-127961577D01*
X134985164Y-128074555D01*
X135113129Y-128207699D01*
X135256056Y-128361300D01*
X135414232Y-128535649D01*
X135587945Y-128731037D01*
X135777484Y-128947756D01*
X135983136Y-129186097D01*
X136078774Y-129297917D01*
X136299296Y-129558051D01*
X136526663Y-129829240D01*
X136758941Y-130109067D01*
X136994197Y-130395113D01*
X137230500Y-130684962D01*
X137465915Y-130976197D01*
X137698510Y-131266401D01*
X137926353Y-131553155D01*
X138147511Y-131834044D01*
X138360050Y-132106649D01*
X138562038Y-132368554D01*
X138751542Y-132617341D01*
X138926630Y-132850592D01*
X139085369Y-133065892D01*
X139193061Y-133214222D01*
X139523038Y-133678016D01*
X139834736Y-134130701D01*
X140127659Y-134571488D01*
X140401311Y-134999592D01*
X140655196Y-135414225D01*
X140888820Y-135814602D01*
X141101685Y-136199935D01*
X141293297Y-136569438D01*
X141368476Y-136721710D01*
X141547132Y-137103226D01*
X141705283Y-137472671D01*
X141843823Y-137833315D01*
X141963649Y-138188429D01*
X142065660Y-138541284D01*
X142150750Y-138895150D01*
X142219818Y-139253298D01*
X142273760Y-139618998D01*
X142313472Y-139995521D01*
X142339852Y-140386137D01*
X142340605Y-140401191D01*
X142347559Y-140550546D01*
X142352192Y-140677138D01*
X142354349Y-140785111D01*
X142353875Y-140878606D01*
X142350614Y-140961767D01*
X142344412Y-141038736D01*
X142335114Y-141113654D01*
X142322564Y-141190664D01*
X142306607Y-141273910D01*
X142272948Y-141434985D01*
X142138521Y-141992529D01*
X141977990Y-142542288D01*
X141791701Y-143083373D01*
X141580001Y-143614896D01*
X141343237Y-144135968D01*
X141081755Y-144645702D01*
X140795903Y-145143209D01*
X140650621Y-145378044D01*
X140453361Y-145683537D01*
X140249239Y-145985568D01*
X140040344Y-146281381D01*
X139828770Y-146568215D01*
X139616606Y-146843312D01*
X139405944Y-147103913D01*
X139198875Y-147347260D01*
X138997491Y-147570594D01*
X138803882Y-147771156D01*
X138700011Y-147872691D01*
X138596016Y-147969186D01*
X138505862Y-148046306D01*
X138427967Y-148105237D01*
X138360749Y-148147163D01*
X138302627Y-148173270D01*
X138252018Y-148184744D01*
X138229816Y-148186459D01*
X138194547Y-148184472D01*
X138163581Y-148171809D01*
X138124641Y-148144601D01*
X138086925Y-148111805D01*
X138020074Y-148035913D01*
X137949455Y-147935199D01*
X137875634Y-147811011D01*
X137799179Y-147664694D01*
X137720658Y-147497596D01*
X137640640Y-147311063D01*
X137559692Y-147106442D01*
X137478382Y-146885079D01*
X137397278Y-146648322D01*
X137316948Y-146397516D01*
X137237959Y-146134009D01*
X137160879Y-145859147D01*
X137129812Y-145742462D01*
X137081257Y-145548201D01*
X137041420Y-145369769D01*
X137009186Y-145201077D01*
X136983437Y-145036034D01*
X136963056Y-144868549D01*
X136946926Y-144692531D01*
X136944434Y-144657463D01*
X136938769Y-144533262D01*
X136936084Y-144390285D01*
X136936232Y-144234890D01*
X136939068Y-144073433D01*
X136944446Y-143912271D01*
X136952221Y-143757761D01*
X136962247Y-143616260D01*
X136974378Y-143494125D01*
X136999669Y-143299702D01*
X137049456Y-142987569D01*
X137111067Y-142674319D01*
X137185181Y-142357780D01*
X137272479Y-142035782D01*
X137373643Y-141706152D01*
X137489352Y-141366718D01*
X137620289Y-141015308D01*
X137767133Y-140649751D01*
X137930566Y-140267875D01*
X138111268Y-139867508D01*
X138167298Y-139746010D01*
X138220959Y-139628999D01*
X138265029Y-139531956D01*
X138300616Y-139452335D01*
X138328826Y-139387590D01*
X138350767Y-139335174D01*
X138367547Y-139292540D01*
X138380273Y-139257142D01*
X138390053Y-139226432D01*
X138398499Y-139194349D01*
X138403018Y-139155802D01*
X138394830Y-139136637D01*
X138373209Y-139137193D01*
X138337430Y-139157805D01*
X138286766Y-139198810D01*
X138220492Y-139260543D01*
X138137882Y-139343343D01*
X138052683Y-139433411D01*
X137933436Y-139566273D01*
X137802049Y-139719181D01*
X137659829Y-139890363D01*
X137508081Y-140078048D01*
X137348111Y-140280464D01*
X137181224Y-140495840D01*
X137008726Y-140722402D01*
X136831923Y-140958381D01*
X136652121Y-141202003D01*
X136470625Y-141451497D01*
X136288741Y-141705091D01*
X136107774Y-141961014D01*
X135929030Y-142217494D01*
X135753816Y-142472758D01*
X135583436Y-142725035D01*
X135419196Y-142972553D01*
X135262403Y-143213541D01*
X135114361Y-143446226D01*
X135056977Y-143537980D01*
X134976748Y-143667922D01*
X134898607Y-143796704D01*
X134821626Y-143926051D01*
X134744882Y-144057686D01*
X134667449Y-144193334D01*
X134588400Y-144334718D01*
X134506812Y-144483563D01*
X134421758Y-144641591D01*
X134332313Y-144810528D01*
X134237552Y-144992096D01*
X134136550Y-145188020D01*
X134028380Y-145400024D01*
X133912118Y-145629832D01*
X133786837Y-145879168D01*
X133651614Y-146149754D01*
X133505522Y-146443317D01*
X133411888Y-146631605D01*
X133311489Y-146832951D01*
X133221539Y-147012610D01*
X133141211Y-147172164D01*
X133069673Y-147313197D01*
X133006097Y-147437293D01*
X132949653Y-147546034D01*
X132899512Y-147641003D01*
X132854844Y-147723785D01*
X132814820Y-147795962D01*
X132778610Y-147859118D01*
X132745384Y-147914835D01*
X132714314Y-147964698D01*
X132684570Y-148010289D01*
X132683134Y-148012439D01*
X132640035Y-148076636D01*
X132608441Y-148122323D01*
X132584953Y-148153765D01*
X132566172Y-148175225D01*
X132548698Y-148190966D01*
X132529134Y-148205251D01*
X132528947Y-148205379D01*
X132504443Y-148219052D01*
X132481446Y-148219592D01*
X132447022Y-148207325D01*
X132381581Y-148174739D01*
X132295402Y-148122150D01*
X132193237Y-148052178D01*
X132076556Y-147966091D01*
X131946829Y-147865157D01*
X131805526Y-147750643D01*
X131654119Y-147623817D01*
X131494077Y-147485946D01*
X131326871Y-147338298D01*
X131153971Y-147182140D01*
X130976847Y-147018740D01*
X130796970Y-146849366D01*
X130615810Y-146675285D01*
X130434837Y-146497764D01*
X130255523Y-146318071D01*
X130247459Y-146309898D01*
X130019446Y-146076296D01*
X129808681Y-145855139D01*
X129611118Y-145641996D01*
X129422708Y-145432438D01*
X129239405Y-145222034D01*
X129057162Y-145006355D01*
X128912468Y-144829392D01*
X128581517Y-144399708D01*
X128261042Y-143948738D01*
X127953138Y-143480011D01*
X127659899Y-142997055D01*
X127383418Y-142503398D01*
X127125790Y-142002569D01*
X126889110Y-141498095D01*
X126675470Y-140993505D01*
X126654260Y-140939072D01*
X126594179Y-140762819D01*
X126548401Y-140586658D01*
X126514904Y-140401856D01*
X126491668Y-140199684D01*
X126485388Y-140105854D01*
X126481750Y-139946775D01*
X126485338Y-139781784D01*
X126495832Y-139621734D01*
X126512913Y-139477476D01*
X126521151Y-139427505D01*
X126547292Y-139297060D01*
X126581490Y-139154446D01*
X126622637Y-139002647D01*
X126669626Y-138844648D01*
X126721349Y-138683432D01*
X126776700Y-138521985D01*
X126834569Y-138363290D01*
X126893849Y-138210331D01*
X126953433Y-138066093D01*
X127012213Y-137933559D01*
X127069082Y-137815715D01*
X127122931Y-137715543D01*
X127172653Y-137636029D01*
X127217141Y-137580157D01*
X127219466Y-137577752D01*
X127258685Y-137540598D01*
X127286344Y-137522980D01*
X127306529Y-137522252D01*
X127317164Y-137528982D01*
X127333083Y-137548136D01*
X127351206Y-137580488D01*
X127372242Y-137627926D01*
X127396905Y-137692338D01*
X127425906Y-137775610D01*
X127459957Y-137879631D01*
X127499769Y-138006288D01*
X127546054Y-138157468D01*
X127595557Y-138319439D01*
X127703033Y-138661534D01*
X127807575Y-138979790D01*
X127910241Y-139276387D01*
X128012091Y-139553511D01*
X128114183Y-139813342D01*
X128217576Y-140058065D01*
X128323330Y-140289862D01*
X128432502Y-140510915D01*
X128546153Y-140723408D01*
X128665341Y-140929524D01*
X128791125Y-141131444D01*
X128924563Y-141331353D01*
X129066715Y-141531434D01*
X129218640Y-141733867D01*
X129381396Y-141940838D01*
X129428484Y-141999264D01*
X129539076Y-142134174D01*
X129644343Y-142258727D01*
X129748584Y-142377678D01*
X129856095Y-142495785D01*
X129971173Y-142617804D01*
X130098116Y-142748491D01*
X130241222Y-142892604D01*
X130419381Y-143068219D01*
X130590549Y-143231664D01*
X130755881Y-143383532D01*
X130920974Y-143528856D01*
X131091428Y-143672669D01*
X131272841Y-143820005D01*
X131306872Y-143847136D01*
X131406492Y-143925731D01*
X131489570Y-143989615D01*
X131559416Y-144041100D01*
X131619339Y-144082500D01*
X131672648Y-144116126D01*
X131722651Y-144144292D01*
X131772659Y-144169310D01*
X131804401Y-144183985D01*
X131838419Y-144197413D01*
X131871397Y-144205817D01*
X131910437Y-144210369D01*
X131962641Y-144212242D01*
X132035112Y-144212605D01*
X132047636Y-144212595D01*
X132120919Y-144211674D01*
X132176561Y-144208445D01*
X132223047Y-144201747D01*
X132268866Y-144190420D01*
X132322504Y-144173303D01*
X132396915Y-144145893D01*
X132574576Y-144062994D01*
X132758170Y-143953522D01*
X132947606Y-143817562D01*
X133142793Y-143655196D01*
X133343640Y-143466508D01*
X133550057Y-143251580D01*
X133761953Y-143010496D01*
X133979238Y-142743338D01*
X134201820Y-142450190D01*
X134263683Y-142365464D01*
X134417454Y-142148804D01*
X134565371Y-141930976D01*
X134709274Y-141708892D01*
X134851001Y-141479457D01*
X134992390Y-141239583D01*
X135135281Y-140986175D01*
X135281512Y-140716144D01*
X135432921Y-140426398D01*
X135591348Y-140113845D01*
X135677718Y-139939751D01*
X135913915Y-139447899D01*
X136138083Y-138956400D01*
X136351564Y-138461792D01*
X136555702Y-137960615D01*
X136751837Y-137449406D01*
X136941314Y-136924704D01*
X137125473Y-136383046D01*
X137305658Y-135820972D01*
X137483210Y-135235019D01*
X137596229Y-134851830D01*
X137597128Y-134639707D01*
X137597098Y-134588038D01*
X137595722Y-134520250D01*
X137591952Y-134457311D01*
X137584869Y-134397056D01*
X137573555Y-134337318D01*
X137557092Y-134275930D01*
X137534560Y-134210725D01*
X137505042Y-134139538D01*
X137467618Y-134060201D01*
X137421371Y-133970547D01*
X137365380Y-133868410D01*
X137298729Y-133751624D01*
X137220498Y-133618021D01*
X137129768Y-133465436D01*
X137025622Y-133291700D01*
X136998371Y-133246399D01*
X136857475Y-133014119D01*
X136722421Y-132794728D01*
X136593793Y-132589070D01*
X136472174Y-132397988D01*
X136358147Y-132222325D01*
X136252294Y-132062926D01*
X136155199Y-131920633D01*
X136067444Y-131796291D01*
X135989612Y-131690742D01*
X135922287Y-131604829D01*
X135866051Y-131539398D01*
X135821487Y-131495290D01*
X135789178Y-131473350D01*
X135769708Y-131474421D01*
X135768428Y-131475925D01*
X135762797Y-131488379D01*
X135757127Y-131511621D01*
X135751238Y-131547488D01*
X135744952Y-131597816D01*
X135738092Y-131664443D01*
X135730478Y-131749206D01*
X135721932Y-131853941D01*
X135712275Y-131980486D01*
X135701331Y-132130679D01*
X135688919Y-132306355D01*
X135687863Y-132321452D01*
X135677402Y-132468889D01*
X135666123Y-132624559D01*
X135654469Y-132782537D01*
X135642885Y-132936901D01*
X135631815Y-133081727D01*
X135621703Y-133211091D01*
X135612992Y-133319071D01*
X135554829Y-133967131D01*
X135487006Y-134610566D01*
X135411294Y-135227840D01*
X135327694Y-135818947D01*
X135236207Y-136383885D01*
X135136835Y-136922649D01*
X135029577Y-137435236D01*
X134914436Y-137921641D01*
X134791411Y-138381861D01*
X134660504Y-138815891D01*
X134521716Y-139223728D01*
X134375048Y-139605368D01*
X134220500Y-139960807D01*
X134058074Y-140290040D01*
X133887771Y-140593065D01*
X133876789Y-140611276D01*
X133776460Y-140771316D01*
X133677387Y-140916535D01*
X133574804Y-141052995D01*
X133463949Y-141186759D01*
X133340058Y-141323890D01*
X133198366Y-141470451D01*
X133149809Y-141518931D01*
X133026582Y-141637169D01*
X132913532Y-141737480D01*
X132806498Y-141823066D01*
X132701319Y-141897131D01*
X132593836Y-141962877D01*
X132479885Y-142023507D01*
X132408082Y-142058219D01*
X132290388Y-142108566D01*
X132182008Y-142144462D01*
X132075333Y-142167812D01*
X131962758Y-142180520D01*
X131836674Y-142184489D01*
X131833324Y-142184494D01*
X131749087Y-142183806D01*
X131683439Y-142180886D01*
X131627921Y-142174822D01*
X131574075Y-142164699D01*
X131513442Y-142149607D01*
X131479811Y-142140159D01*
X131300435Y-142074242D01*
X131123518Y-141982714D01*
X130948836Y-141865356D01*
X130776164Y-141721949D01*
X130605278Y-141552274D01*
X130435955Y-141356112D01*
X130267970Y-141133245D01*
X130101100Y-140883453D01*
X129935121Y-140606517D01*
X129888204Y-140522306D01*
X129808540Y-140372381D01*
X129723398Y-140204877D01*
X129635096Y-140024782D01*
X129545956Y-139837084D01*
X129458297Y-139646771D01*
X129374439Y-139458829D01*
X129296701Y-139278246D01*
X129227404Y-139110011D01*
X129168868Y-138959110D01*
X129114799Y-138809427D01*
X128978176Y-138382742D01*
X128861902Y-137942844D01*
X128766895Y-137494431D01*
X128694075Y-137042203D01*
X128644360Y-136590858D01*
X128618668Y-136145095D01*
X128617193Y-136088740D01*
X128616920Y-135841578D01*
X128627535Y-135618981D01*
X128649086Y-135420479D01*
X128681619Y-135245599D01*
X128725183Y-135093872D01*
X128729343Y-135082121D01*
X128782751Y-134947236D01*
X128853453Y-134792349D01*
X128940998Y-134618194D01*
X129044935Y-134425501D01*
X129164814Y-134215004D01*
X129300183Y-133987434D01*
X129450592Y-133743523D01*
X129615591Y-133484004D01*
X129794728Y-133209609D01*
X129987552Y-132921069D01*
X130193614Y-132619118D01*
X130412461Y-132304486D01*
X130643644Y-131977907D01*
X130681487Y-131925063D01*
X130920678Y-131598254D01*
X131175428Y-131261639D01*
X131442884Y-130918607D01*
X131720191Y-130572549D01*
X132004494Y-130226855D01*
X132292941Y-129884916D01*
X132582678Y-129550121D01*
X132870849Y-129225862D01*
X133154602Y-128915529D01*
X133431082Y-128622512D01*
X133697435Y-128350201D01*
X133739909Y-128307786D01*
X133890800Y-128159678D01*
X134024966Y-128032407D01*
X134142815Y-127925636D01*
X134244754Y-127839031D01*
X134331190Y-127772255D01*
X134402530Y-127724974D01*
X134459181Y-127696851D01*
X134501551Y-127687552D01*
X134515451Y-127688984D01*
G37*
G36*
X138566446Y-150463307D02*
G01*
X138698621Y-150477955D01*
X138815410Y-150505708D01*
X138896461Y-150536917D01*
X139004098Y-150595959D01*
X139095136Y-150668041D01*
X139164519Y-150749628D01*
X139177221Y-150769060D01*
X139212111Y-150830921D01*
X139233486Y-150889620D01*
X139244227Y-150955188D01*
X139247212Y-151037658D01*
X139243994Y-151108515D01*
X139229308Y-151190349D01*
X139200991Y-151263881D01*
X139157141Y-151330978D01*
X139095856Y-151393509D01*
X139015231Y-151453342D01*
X138913364Y-151512344D01*
X138788351Y-151572382D01*
X138638291Y-151635326D01*
X138545969Y-151674193D01*
X138450815Y-151721513D01*
X138378796Y-151768402D01*
X138327732Y-151817039D01*
X138295442Y-151869606D01*
X138279745Y-151928284D01*
X138278462Y-151995254D01*
X138296212Y-152075726D01*
X138336870Y-152141551D01*
X138400302Y-152192283D01*
X138486398Y-152227798D01*
X138533791Y-152236591D01*
X138602430Y-152242237D01*
X138681245Y-152244065D01*
X138761509Y-152242097D01*
X138834493Y-152236351D01*
X138891469Y-152226850D01*
X138950969Y-152208576D01*
X139021404Y-152181605D01*
X139093432Y-152150025D01*
X139157759Y-152117910D01*
X139205089Y-152089335D01*
X139209808Y-152086016D01*
X139237283Y-152068351D01*
X139252822Y-152061151D01*
X139253161Y-152061297D01*
X139256208Y-152076661D01*
X139258690Y-152113669D01*
X139260362Y-152167133D01*
X139260974Y-152231866D01*
X139260974Y-152402581D01*
X139223159Y-152422136D01*
X139213377Y-152426854D01*
X139163612Y-152446134D01*
X139098882Y-152466544D01*
X139028609Y-152485287D01*
X138962211Y-152499570D01*
X138941034Y-152502595D01*
X138878407Y-152506947D01*
X138799773Y-152508323D01*
X138712356Y-152506985D01*
X138623378Y-152503198D01*
X138540065Y-152497225D01*
X138469639Y-152489328D01*
X138419325Y-152479773D01*
X138373555Y-152466017D01*
X138249951Y-152413992D01*
X138143681Y-152345907D01*
X138057440Y-152263724D01*
X137993917Y-152169410D01*
X137976645Y-152132377D01*
X137962900Y-152089329D01*
X137954721Y-152038533D01*
X137949947Y-151970191D01*
X137950005Y-151894724D01*
X137963642Y-151799194D01*
X137994617Y-151714048D01*
X138044599Y-151637375D01*
X138115257Y-151567266D01*
X138208259Y-151501811D01*
X138325273Y-151439099D01*
X138467968Y-151377222D01*
X138501150Y-151363929D01*
X138618417Y-151314807D01*
X138712352Y-151270844D01*
X138785329Y-151230086D01*
X138839718Y-151190582D01*
X138877892Y-151150379D01*
X138902222Y-151107524D01*
X138915081Y-151060065D01*
X138918840Y-151006049D01*
X138909877Y-150937561D01*
X138876347Y-150867277D01*
X138817808Y-150807767D01*
X138734088Y-150758805D01*
X138718639Y-150752079D01*
X138682655Y-150739735D01*
X138643175Y-150732459D01*
X138592259Y-150729120D01*
X138521965Y-150728588D01*
X138462137Y-150730168D01*
X138339650Y-150743444D01*
X138229471Y-150771686D01*
X138123153Y-150816762D01*
X138083731Y-150836175D01*
X138051359Y-150851120D01*
X138036091Y-150856840D01*
X138033471Y-150844833D01*
X138031826Y-150810677D01*
X138031386Y-150759718D01*
X138032280Y-150697320D01*
X138036135Y-150537799D01*
X138107080Y-150513708D01*
X138163512Y-150497021D01*
X138290301Y-150472937D01*
X138427476Y-150461667D01*
X138566446Y-150463307D01*
G37*
G36*
X126174700Y-150764464D02*
G01*
X126170198Y-151684804D01*
X126132110Y-151807604D01*
X126117192Y-151853033D01*
X126053693Y-152002788D01*
X125973775Y-152131760D01*
X125875705Y-152242000D01*
X125757746Y-152335555D01*
X125618166Y-152414474D01*
X125554540Y-152442003D01*
X125482917Y-152468457D01*
X125419728Y-152487686D01*
X125409359Y-152490257D01*
X125356536Y-152500734D01*
X125300022Y-152506720D01*
X125231972Y-152508781D01*
X125144541Y-152507479D01*
X125076096Y-152504165D01*
X124930266Y-152485189D01*
X124800217Y-152448659D01*
X124680666Y-152392315D01*
X124566330Y-152313897D01*
X124451927Y-152211145D01*
X124427712Y-152186763D01*
X124376494Y-152131703D01*
X124337493Y-152082114D01*
X124304319Y-152029307D01*
X124270584Y-151964595D01*
X124251594Y-151924265D01*
X124202493Y-151792215D01*
X124174760Y-151658758D01*
X124166038Y-151513737D01*
X124170081Y-151418342D01*
X124197044Y-151256695D01*
X124249059Y-151105578D01*
X124325814Y-150965792D01*
X124427001Y-150838139D01*
X124446027Y-150818129D01*
X124563545Y-150710923D01*
X124685262Y-150629055D01*
X124814922Y-150570779D01*
X124956266Y-150534348D01*
X125113040Y-150518015D01*
X125172086Y-150516236D01*
X125233047Y-150515874D01*
X125280709Y-150517203D01*
X125308056Y-150520149D01*
X125342978Y-150528913D01*
X125342978Y-151322698D01*
X125291658Y-151296720D01*
X125232877Y-151271736D01*
X125164568Y-151258855D01*
X125098409Y-151266925D01*
X125092470Y-151268602D01*
X125021085Y-151302756D01*
X124965056Y-151355527D01*
X124926502Y-151421869D01*
X124907538Y-151496736D01*
X124910285Y-151575081D01*
X124936858Y-151651859D01*
X124957567Y-151684746D01*
X125011989Y-151739162D01*
X125078385Y-151776101D01*
X125151257Y-151794548D01*
X125225108Y-151793489D01*
X125294440Y-151771910D01*
X125353756Y-151728795D01*
X125368287Y-151713927D01*
X125384230Y-151697028D01*
X125397823Y-151680110D01*
X125409262Y-151661067D01*
X125418747Y-151637796D01*
X125426475Y-151608194D01*
X125432644Y-151570157D01*
X125437451Y-151521580D01*
X125441095Y-151460360D01*
X125443774Y-151384393D01*
X125445686Y-151291576D01*
X125447027Y-151179804D01*
X125447997Y-151046974D01*
X125448793Y-150890981D01*
X125449614Y-150709723D01*
X125453609Y-149844125D01*
X126179202Y-149844125D01*
X126174700Y-150764464D01*
G37*
G36*
X122910954Y-150584715D02*
G01*
X123047333Y-150596835D01*
X123165105Y-150622094D01*
X123268496Y-150661907D01*
X123361731Y-150717692D01*
X123449037Y-150790866D01*
X123458938Y-150800557D01*
X123537703Y-150893837D01*
X123595818Y-150994410D01*
X123630045Y-151096806D01*
X123630071Y-151096929D01*
X123636835Y-151137727D01*
X123644606Y-151197733D01*
X123652427Y-151268890D01*
X123659339Y-151343142D01*
X123667963Y-151432193D01*
X123682399Y-151531283D01*
X123701857Y-151608292D01*
X123728375Y-151666242D01*
X123763991Y-151708153D01*
X123810741Y-151737045D01*
X123870664Y-151755941D01*
X123945797Y-151767859D01*
X124029185Y-151777294D01*
X124029185Y-152530281D01*
X123841012Y-152522702D01*
X123731575Y-152515806D01*
X123601764Y-152498446D01*
X123489997Y-152470411D01*
X123391555Y-152430064D01*
X123301718Y-152375770D01*
X123215768Y-152305892D01*
X123205606Y-152296444D01*
X123118659Y-152199251D01*
X123047669Y-152086390D01*
X122991662Y-151955636D01*
X122949664Y-151804764D01*
X122920702Y-151631547D01*
X122918099Y-151611756D01*
X122908240Y-151551264D01*
X122897111Y-151498892D01*
X122886657Y-151464201D01*
X122883202Y-151456636D01*
X122845161Y-151409082D01*
X122786573Y-151374141D01*
X122711971Y-151354654D01*
X122646965Y-151345987D01*
X122646965Y-150583133D01*
X122829528Y-150583133D01*
X122910954Y-150584715D01*
G37*
G36*
X144762482Y-152471711D02*
G01*
X144434034Y-152471711D01*
X144433872Y-151852449D01*
X144433783Y-151755073D01*
X144433338Y-151614241D01*
X144432464Y-151497069D01*
X144431096Y-151401246D01*
X144429171Y-151324459D01*
X144426624Y-151264396D01*
X144423390Y-151218743D01*
X144419405Y-151185189D01*
X144414604Y-151161420D01*
X144398953Y-151110517D01*
X144347920Y-150999071D01*
X144280005Y-150903992D01*
X144197944Y-150827112D01*
X144104475Y-150770264D01*
X144002334Y-150735282D01*
X143894258Y-150724000D01*
X143782984Y-150738252D01*
X143760070Y-150744322D01*
X143670948Y-150778999D01*
X143600761Y-150828293D01*
X143544290Y-150895644D01*
X143532917Y-150913436D01*
X143511697Y-150951529D01*
X143493727Y-150992824D01*
X143478745Y-151039735D01*
X143466492Y-151094680D01*
X143456708Y-151160075D01*
X143449130Y-151238335D01*
X143443500Y-151331877D01*
X143439557Y-151443118D01*
X143437039Y-151574473D01*
X143435688Y-151728358D01*
X143435241Y-151907191D01*
X143435004Y-152471711D01*
X143118707Y-152471711D01*
X143123548Y-151742966D01*
X143123742Y-151713885D01*
X143124874Y-151551420D01*
X143126084Y-151413367D01*
X143127597Y-151297181D01*
X143129638Y-151200321D01*
X143132431Y-151120242D01*
X143136202Y-151054401D01*
X143141177Y-151000257D01*
X143147579Y-150955265D01*
X143155634Y-150916882D01*
X143165567Y-150882566D01*
X143177603Y-150849774D01*
X143191967Y-150815961D01*
X143208884Y-150778587D01*
X143236467Y-150727288D01*
X143305822Y-150639285D01*
X143394174Y-150565238D01*
X143496969Y-150508621D01*
X143609654Y-150472907D01*
X143638110Y-150468033D01*
X143720015Y-150461453D01*
X143811949Y-150461994D01*
X143904670Y-150469082D01*
X143988935Y-150482145D01*
X144055500Y-150500606D01*
X144081005Y-150511028D01*
X144190064Y-150569789D01*
X144288860Y-150645422D01*
X144369029Y-150731760D01*
X144434034Y-150817363D01*
X144434034Y-149556733D01*
X144762482Y-149556733D01*
X144762482Y-152471711D01*
G37*
G36*
X147280574Y-151676497D02*
G01*
X147335380Y-151819964D01*
X147386682Y-151954319D01*
X147433694Y-152077508D01*
X147475631Y-152187473D01*
X147511706Y-152282160D01*
X147541133Y-152359512D01*
X147563126Y-152417472D01*
X147576898Y-152453986D01*
X147581663Y-152466998D01*
X147580821Y-152467450D01*
X147561910Y-152469121D01*
X147521891Y-152470474D01*
X147465771Y-152471380D01*
X147398560Y-152471711D01*
X147215456Y-152471711D01*
X147078429Y-152085100D01*
X146941401Y-151698489D01*
X146360716Y-151694923D01*
X145780031Y-151691356D01*
X145638665Y-152071270D01*
X145627612Y-152100932D01*
X145592255Y-152195221D01*
X145560049Y-152280229D01*
X145532259Y-152352676D01*
X145510150Y-152409284D01*
X145494987Y-152446772D01*
X145488034Y-152461860D01*
X145486978Y-152462585D01*
X145466310Y-152466102D01*
X145424660Y-152468426D01*
X145367451Y-152469359D01*
X145300106Y-152468703D01*
X145121444Y-152464868D01*
X145529365Y-151404254D01*
X145885895Y-151404254D01*
X146357432Y-151404254D01*
X146448669Y-151404093D01*
X146551866Y-151403492D01*
X146643300Y-151402499D01*
X146719848Y-151401170D01*
X146778390Y-151399563D01*
X146815804Y-151397733D01*
X146828969Y-151395736D01*
X146825233Y-151383898D01*
X146812987Y-151348627D01*
X146793115Y-151292550D01*
X146766538Y-151218241D01*
X146734182Y-151128274D01*
X146696968Y-151025223D01*
X146655822Y-150911660D01*
X146611666Y-150790160D01*
X146575020Y-150689090D01*
X146531824Y-150568945D01*
X146491863Y-150456706D01*
X146456171Y-150355337D01*
X146425785Y-150267801D01*
X146401740Y-150197062D01*
X146385070Y-150146084D01*
X146376811Y-150117832D01*
X146359261Y-150042562D01*
X146342134Y-150124674D01*
X146339370Y-150135795D01*
X146326931Y-150177055D01*
X146306548Y-150239309D01*
X146279321Y-150319377D01*
X146246353Y-150414080D01*
X146208745Y-150520238D01*
X146167599Y-150634671D01*
X146124017Y-150754200D01*
X146101875Y-150814509D01*
X146059542Y-150929841D01*
X146020102Y-151037325D01*
X145984644Y-151133987D01*
X145954261Y-151216853D01*
X145930042Y-151282949D01*
X145913078Y-151329301D01*
X145904460Y-151352934D01*
X145885895Y-151404254D01*
X145529365Y-151404254D01*
X145650425Y-151089491D01*
X146179407Y-149714114D01*
X146352344Y-149710294D01*
X146525280Y-149706473D01*
X146587678Y-149867675D01*
X146607036Y-149917807D01*
X146635839Y-149992621D01*
X146671359Y-150085053D01*
X146712810Y-150193045D01*
X146759406Y-150314542D01*
X146810361Y-150447489D01*
X146864888Y-150589827D01*
X146922202Y-150739503D01*
X146981517Y-150894460D01*
X147042045Y-151052641D01*
X147103001Y-151211992D01*
X147163599Y-151370455D01*
X147173263Y-151395736D01*
X147223052Y-151525976D01*
X147280574Y-151676497D01*
G37*
G36*
X129773638Y-150798678D02*
G01*
X129773610Y-150804174D01*
X129772633Y-150990084D01*
X129771654Y-151150745D01*
X129770618Y-151288222D01*
X129769464Y-151404580D01*
X129768136Y-151501885D01*
X129766574Y-151582200D01*
X129764720Y-151647593D01*
X129762517Y-151700126D01*
X129759906Y-151741865D01*
X129756829Y-151774876D01*
X129753227Y-151801223D01*
X129749043Y-151822971D01*
X129744218Y-151842185D01*
X129735497Y-151872063D01*
X129677882Y-152018802D01*
X129601312Y-152145978D01*
X129506177Y-152253213D01*
X129392868Y-152340130D01*
X129261776Y-152406353D01*
X129113291Y-152451503D01*
X129110042Y-152452188D01*
X129062489Y-152459047D01*
X128996619Y-152464796D01*
X128920702Y-152468850D01*
X128843005Y-152470623D01*
X128654832Y-152471711D01*
X128654832Y-151708420D01*
X128747208Y-151702850D01*
X128786041Y-151699490D01*
X128856057Y-151684994D01*
X128908114Y-151658884D01*
X128947836Y-151618805D01*
X128951399Y-151613853D01*
X128956680Y-151605023D01*
X128961180Y-151593708D01*
X128964971Y-151577835D01*
X128968128Y-151555330D01*
X128970726Y-151524118D01*
X128972838Y-151482127D01*
X128974538Y-151427282D01*
X128975901Y-151357510D01*
X128977001Y-151270736D01*
X128977911Y-151164887D01*
X128978707Y-151037889D01*
X128979462Y-150887668D01*
X128980250Y-150712151D01*
X128984063Y-149844125D01*
X129778404Y-149844125D01*
X129773638Y-150798678D01*
G37*
G36*
X134621642Y-152471711D02*
G01*
X134293194Y-152471711D01*
X134293194Y-149556733D01*
X134621642Y-149556733D01*
X134621642Y-152471711D01*
G37*
G36*
X135579616Y-152471711D02*
G01*
X135251168Y-152471711D01*
X135251168Y-150501021D01*
X135579616Y-150501021D01*
X135579616Y-152471711D01*
G37*
G36*
X140489410Y-150465008D02*
G01*
X140550655Y-150472907D01*
X140560478Y-150475037D01*
X140679605Y-150515395D01*
X140792078Y-150579699D01*
X140893369Y-150664833D01*
X140978951Y-150767680D01*
X141031482Y-150843952D01*
X141065764Y-150771705D01*
X141101348Y-150711327D01*
X141167675Y-150632903D01*
X141248744Y-150563741D01*
X141337399Y-150510719D01*
X141371417Y-150494998D01*
X141405246Y-150481719D01*
X141438032Y-150473489D01*
X141476880Y-150469143D01*
X141528891Y-150467516D01*
X141601168Y-150467442D01*
X141663343Y-150468119D01*
X141724818Y-150470701D01*
X141771515Y-150476029D01*
X141810521Y-150484988D01*
X141848923Y-150498468D01*
X141941818Y-150544091D01*
X142047088Y-150619114D01*
X142134896Y-150709319D01*
X142196480Y-150786609D01*
X142200365Y-150643815D01*
X142204249Y-150501021D01*
X142531771Y-150501021D01*
X142531771Y-152471711D01*
X142203323Y-152471711D01*
X142203323Y-151849701D01*
X142203254Y-151770586D01*
X142202551Y-151602466D01*
X142201093Y-151460151D01*
X142198887Y-151343953D01*
X142195941Y-151254183D01*
X142192261Y-151191152D01*
X142187855Y-151155170D01*
X142177935Y-151114498D01*
X142135564Y-151001742D01*
X142076479Y-150905813D01*
X142003081Y-150828453D01*
X141917773Y-150771403D01*
X141822957Y-150736403D01*
X141721035Y-150725195D01*
X141614408Y-150739519D01*
X141551492Y-150759241D01*
X141475998Y-150798075D01*
X141415676Y-150852475D01*
X141366580Y-150926308D01*
X141324766Y-151023440D01*
X141318004Y-151042866D01*
X141312055Y-151062691D01*
X141307124Y-151084549D01*
X141303093Y-151110976D01*
X141299844Y-151144504D01*
X141297261Y-151187667D01*
X141295225Y-151242999D01*
X141293619Y-151313034D01*
X141292325Y-151400304D01*
X141291226Y-151507343D01*
X141290204Y-151636686D01*
X141289141Y-151790865D01*
X141284577Y-152471711D01*
X140973581Y-152471711D01*
X140968551Y-151838764D01*
X140968272Y-151803800D01*
X140967060Y-151660797D01*
X140965850Y-151541909D01*
X140964513Y-151444468D01*
X140962920Y-151365806D01*
X140960945Y-151303255D01*
X140958457Y-151254147D01*
X140955330Y-151215813D01*
X140951435Y-151185585D01*
X140946644Y-151160797D01*
X140940828Y-151138778D01*
X140933859Y-151116862D01*
X140931249Y-151109178D01*
X140880917Y-150996087D01*
X140814347Y-150897205D01*
X140734874Y-150816679D01*
X140645832Y-150758658D01*
X140627715Y-150750311D01*
X140585590Y-150736325D01*
X140537209Y-150729510D01*
X140472127Y-150728025D01*
X140382658Y-150735042D01*
X140286623Y-150762000D01*
X140207947Y-150809708D01*
X140145970Y-150878746D01*
X140100033Y-150969695D01*
X140069477Y-151083138D01*
X140069385Y-151083643D01*
X140065684Y-151119009D01*
X140062467Y-151180138D01*
X140059763Y-151265461D01*
X140057606Y-151373410D01*
X140056026Y-151502416D01*
X140055055Y-151650911D01*
X140054724Y-151817328D01*
X140054724Y-152471711D01*
X139726276Y-152471711D01*
X139726379Y-151797708D01*
X139726515Y-151700730D01*
X139727189Y-151556947D01*
X139728384Y-151425088D01*
X139730054Y-151307726D01*
X139732150Y-151207438D01*
X139734624Y-151126796D01*
X139737429Y-151068375D01*
X139740517Y-151034750D01*
X139752115Y-150972401D01*
X139792662Y-150834898D01*
X139850423Y-150717656D01*
X139925014Y-150621218D01*
X140016051Y-150546127D01*
X140123151Y-150492929D01*
X140123472Y-150492812D01*
X140176333Y-150479603D01*
X140247844Y-150469821D01*
X140329518Y-150463862D01*
X140412869Y-150462126D01*
X140489410Y-150465008D01*
G37*
G36*
X90902221Y-133957583D02*
G01*
X91019566Y-134036212D01*
X91044443Y-134249542D01*
X91035216Y-134408506D01*
X90956587Y-134525851D01*
X90743257Y-134550727D01*
X90584292Y-134541500D01*
X90466948Y-134462871D01*
X90442071Y-134249542D01*
X90451298Y-134090577D01*
X90529927Y-133973232D01*
X90743257Y-133948356D01*
X90902221Y-133957583D01*
G37*
G36*
X88634956Y-145092229D02*
G01*
X88644183Y-145251194D01*
X88722812Y-145368538D01*
X88936142Y-145393415D01*
X89095107Y-145402642D01*
X89212451Y-145481271D01*
X89237328Y-145694601D01*
X89237328Y-145995787D01*
X88032585Y-145995787D01*
X88032585Y-145694601D01*
X88023358Y-145535636D01*
X87944729Y-145418292D01*
X87731399Y-145393415D01*
X87572435Y-145384188D01*
X87455090Y-145305559D01*
X87430213Y-145092229D01*
X87430213Y-144791044D01*
X88634956Y-144791044D01*
X88634956Y-145092229D01*
G37*
G36*
X82523385Y-151392254D02*
G01*
X82310055Y-151417130D01*
X82008870Y-151417130D01*
X82008870Y-152621874D01*
X80804126Y-152621874D01*
X80804126Y-152320688D01*
X80813353Y-152161723D01*
X80891982Y-152044379D01*
X81105312Y-152019502D01*
X81264277Y-152010275D01*
X81381621Y-151931646D01*
X81406498Y-151718316D01*
X81397271Y-151559352D01*
X81318642Y-151442007D01*
X81105312Y-151417130D01*
X80804126Y-151417130D01*
X80804126Y-151115945D01*
X81406498Y-151115945D01*
X81415725Y-151274909D01*
X81494354Y-151392254D01*
X81707684Y-151417130D01*
X81866648Y-151407904D01*
X81983993Y-151329274D01*
X82008870Y-151115945D01*
X81999643Y-150956980D01*
X81921014Y-150839636D01*
X81707684Y-150814759D01*
X81548719Y-150823986D01*
X81431375Y-150902615D01*
X81406498Y-151115945D01*
X80804126Y-151115945D01*
X80804126Y-150212387D01*
X82008870Y-150212387D01*
X82008870Y-150513573D01*
X82018096Y-150672538D01*
X82096726Y-150789882D01*
X82310055Y-150814759D01*
X82469020Y-150823986D01*
X82586364Y-150902615D01*
X82611241Y-151115945D01*
X82602014Y-151274909D01*
X82523385Y-151392254D01*
G37*
G36*
X83673763Y-142390784D02*
G01*
X83791107Y-142469413D01*
X83815984Y-142682743D01*
X83806757Y-142841708D01*
X83728128Y-142959052D01*
X83514798Y-142983929D01*
X83355834Y-142974702D01*
X83238489Y-142896073D01*
X83213613Y-142682743D01*
X83222840Y-142523779D01*
X83301469Y-142406434D01*
X83514798Y-142381557D01*
X83673763Y-142390784D01*
G37*
G36*
X83815984Y-133345984D02*
G01*
X82008870Y-133345984D01*
X82008870Y-131538870D01*
X83815984Y-131538870D01*
X83815984Y-133345984D01*
G37*
G36*
X92709336Y-152028729D02*
G01*
X92826681Y-152107358D01*
X92851557Y-152320688D01*
X92842330Y-152479652D01*
X92763701Y-152596997D01*
X92550372Y-152621874D01*
X92391407Y-152612647D01*
X92274062Y-152534018D01*
X92249186Y-152320688D01*
X92258413Y-152161723D01*
X92337042Y-152044379D01*
X92550372Y-152019502D01*
X92709336Y-152028729D01*
G37*
G36*
X90442071Y-136357842D02*
G01*
X90140885Y-136357842D01*
X89981921Y-136367069D01*
X89864576Y-136445698D01*
X89839700Y-136659028D01*
X89830473Y-136817992D01*
X89751844Y-136935337D01*
X89538514Y-136960213D01*
X89379549Y-136969440D01*
X89262205Y-137048069D01*
X89237328Y-137261399D01*
X89246555Y-137420364D01*
X89325184Y-137537708D01*
X89538514Y-137562585D01*
X89697478Y-137571812D01*
X89814823Y-137650441D01*
X89839700Y-137863771D01*
X89830473Y-138022735D01*
X89751844Y-138140080D01*
X89538514Y-138164957D01*
X89379549Y-138155730D01*
X89262205Y-138077101D01*
X89237328Y-137863771D01*
X89228101Y-137704806D01*
X89149472Y-137587462D01*
X88936142Y-137562585D01*
X88777178Y-137553358D01*
X88659833Y-137474729D01*
X88634956Y-137261399D01*
X88634956Y-136960213D01*
X86827842Y-136960213D01*
X86827842Y-136357842D01*
X88634956Y-136357842D01*
X88634956Y-135755470D01*
X89839700Y-135755470D01*
X89839700Y-135454285D01*
X89848926Y-135295320D01*
X89927556Y-135177976D01*
X90140885Y-135153099D01*
X90442071Y-135153099D01*
X90442071Y-136357842D01*
G37*
G36*
X84878506Y-148414500D02*
G01*
X84995851Y-148493129D01*
X85020727Y-148706459D01*
X85011500Y-148865423D01*
X84932871Y-148982768D01*
X84719541Y-149007644D01*
X84560577Y-148998417D01*
X84443232Y-148919788D01*
X84418356Y-148706459D01*
X84427583Y-148547494D01*
X84506212Y-148430149D01*
X84719541Y-148405273D01*
X84878506Y-148414500D01*
G37*
G36*
X95562229Y-135755470D02*
G01*
X95403265Y-135746243D01*
X95285920Y-135667614D01*
X95261043Y-135454285D01*
X95251817Y-135295320D01*
X95173187Y-135177976D01*
X94959858Y-135153099D01*
X94800893Y-135162326D01*
X94683549Y-135240955D01*
X94658672Y-135454285D01*
X94649445Y-135613249D01*
X94570816Y-135730594D01*
X94357486Y-135755470D01*
X94198522Y-135764697D01*
X94081177Y-135843326D01*
X94056300Y-136056656D01*
X94056300Y-136357842D01*
X92851557Y-136357842D01*
X92851557Y-135755470D01*
X91646814Y-135755470D01*
X91646814Y-136056656D01*
X91637587Y-136215621D01*
X91558958Y-136332965D01*
X91345628Y-136357842D01*
X91186664Y-136367069D01*
X91069319Y-136445698D01*
X91044443Y-136659028D01*
X91044443Y-136960213D01*
X93453929Y-136960213D01*
X93453929Y-137261399D01*
X93444702Y-137420364D01*
X93366073Y-137537708D01*
X93152743Y-137562585D01*
X92993778Y-137571812D01*
X92876434Y-137650441D01*
X92851557Y-137863771D01*
X92842330Y-138022735D01*
X92763701Y-138140080D01*
X92550372Y-138164957D01*
X92391407Y-138155730D01*
X92274062Y-138077101D01*
X92249186Y-137863771D01*
X92249186Y-137562585D01*
X91044443Y-137562585D01*
X91044443Y-138767328D01*
X89839700Y-138767328D01*
X89839700Y-139369700D01*
X91646814Y-139369700D01*
X91646814Y-138767328D01*
X92851557Y-138767328D01*
X92851557Y-139068514D01*
X92842330Y-139227478D01*
X92763701Y-139344823D01*
X92550372Y-139369700D01*
X92391407Y-139378927D01*
X92274062Y-139457556D01*
X92249186Y-139670885D01*
X92249186Y-139972071D01*
X89839700Y-139972071D01*
X89839700Y-140574443D01*
X91044443Y-140574443D01*
X91044443Y-141779186D01*
X91345628Y-141779186D01*
X91504593Y-141769959D01*
X91621938Y-141691330D01*
X91646814Y-141478000D01*
X91646814Y-141176814D01*
X94056300Y-141176814D01*
X94056300Y-141478000D01*
X94065527Y-141636965D01*
X94144156Y-141754309D01*
X94357486Y-141779186D01*
X94516451Y-141788413D01*
X94633795Y-141867042D01*
X94658672Y-142080372D01*
X94649445Y-142239336D01*
X94570816Y-142356681D01*
X94357486Y-142381557D01*
X94198522Y-142390784D01*
X94081177Y-142469413D01*
X94056300Y-142682743D01*
X94056300Y-142983929D01*
X95863415Y-142983929D01*
X95863415Y-141779186D01*
X95562229Y-141779186D01*
X95403265Y-141769959D01*
X95285920Y-141691330D01*
X95261043Y-141478000D01*
X95261043Y-141176814D01*
X96465787Y-141176814D01*
X96465787Y-141478000D01*
X96475013Y-141636965D01*
X96553643Y-141754309D01*
X96766972Y-141779186D01*
X97068158Y-141779186D01*
X97068158Y-140875628D01*
X98875273Y-140875628D01*
X98884500Y-141034593D01*
X98963129Y-141151938D01*
X99176458Y-141176814D01*
X99335423Y-141167587D01*
X99452768Y-141088958D01*
X99477644Y-140875628D01*
X99468417Y-140716664D01*
X99389788Y-140599319D01*
X99176458Y-140574443D01*
X99017494Y-140583670D01*
X98900149Y-140662299D01*
X98875273Y-140875628D01*
X97068158Y-140875628D01*
X97068158Y-139972071D01*
X100080016Y-139972071D01*
X100080016Y-139670885D01*
X100089243Y-139511921D01*
X100167872Y-139394576D01*
X100381202Y-139369700D01*
X100540166Y-139360473D01*
X100657511Y-139281844D01*
X100682387Y-139068514D01*
X100682387Y-138767328D01*
X101887130Y-138767328D01*
X101887130Y-138466142D01*
X101877904Y-138307178D01*
X101799274Y-138189833D01*
X101585945Y-138164957D01*
X101426980Y-138155730D01*
X101309636Y-138077101D01*
X101284759Y-137863771D01*
X101293986Y-137704806D01*
X101372615Y-137587462D01*
X101585945Y-137562585D01*
X101744909Y-137553358D01*
X101862254Y-137474729D01*
X101887130Y-137261399D01*
X101877904Y-137102435D01*
X101799274Y-136985090D01*
X101585945Y-136960213D01*
X101426980Y-136969440D01*
X101309636Y-137048069D01*
X101284759Y-137261399D01*
X101275532Y-137420364D01*
X101196903Y-137537708D01*
X100983573Y-137562585D01*
X100682387Y-137562585D01*
X100682387Y-138767328D01*
X100080016Y-138767328D01*
X100080016Y-137562585D01*
X99778830Y-137562585D01*
X99619865Y-137553358D01*
X99502521Y-137474729D01*
X99477644Y-137261399D01*
X99468417Y-137102435D01*
X99389788Y-136985090D01*
X99176458Y-136960213D01*
X99017494Y-136950987D01*
X98900149Y-136872357D01*
X98875273Y-136659028D01*
X98884500Y-136500063D01*
X98963129Y-136382719D01*
X99176458Y-136357842D01*
X99335423Y-136348615D01*
X99452768Y-136269986D01*
X99477644Y-136056656D01*
X100080016Y-136056656D01*
X100089243Y-136215621D01*
X100167872Y-136332965D01*
X100381202Y-136357842D01*
X101284759Y-136357842D01*
X102489502Y-136357842D01*
X102489502Y-135755470D01*
X101284759Y-135755470D01*
X101284759Y-136357842D01*
X100381202Y-136357842D01*
X100540166Y-136348615D01*
X100657511Y-136269986D01*
X100682387Y-136056656D01*
X100673160Y-135897692D01*
X100594531Y-135780347D01*
X100381202Y-135755470D01*
X100222237Y-135764697D01*
X100104892Y-135843326D01*
X100080016Y-136056656D01*
X99477644Y-136056656D01*
X99468417Y-135897692D01*
X99389788Y-135780347D01*
X99176458Y-135755470D01*
X99017494Y-135764697D01*
X98900149Y-135843326D01*
X98875273Y-136056656D01*
X98866046Y-136215621D01*
X98787417Y-136332965D01*
X98574087Y-136357842D01*
X98415122Y-136348615D01*
X98297778Y-136269986D01*
X98272901Y-136056656D01*
X98263674Y-135897692D01*
X98185045Y-135780347D01*
X97971715Y-135755470D01*
X97812751Y-135764697D01*
X97695406Y-135843326D01*
X97670530Y-136056656D01*
X97679757Y-136215621D01*
X97758386Y-136332965D01*
X97971715Y-136357842D01*
X98130680Y-136367069D01*
X98248024Y-136445698D01*
X98272901Y-136659028D01*
X98282128Y-136817992D01*
X98360757Y-136935337D01*
X98574087Y-136960213D01*
X98733051Y-136969440D01*
X98850396Y-137048069D01*
X98875273Y-137261399D01*
X98866046Y-137420364D01*
X98787417Y-137537708D01*
X98574087Y-137562585D01*
X98272901Y-137562585D01*
X98272901Y-138767328D01*
X97971715Y-138767328D01*
X97812751Y-138776555D01*
X97695406Y-138855184D01*
X97670530Y-139068514D01*
X97661303Y-139227478D01*
X97582674Y-139344823D01*
X97369344Y-139369700D01*
X97210379Y-139378927D01*
X97093035Y-139457556D01*
X97068158Y-139670885D01*
X97068158Y-139972071D01*
X96465787Y-139972071D01*
X96465787Y-138767328D01*
X97670530Y-138767328D01*
X97670530Y-137562585D01*
X97369344Y-137562585D01*
X97210379Y-137553358D01*
X97093035Y-137474729D01*
X97068158Y-137261399D01*
X97058931Y-137102435D01*
X96980302Y-136985090D01*
X96766972Y-136960213D01*
X96465787Y-136960213D01*
X96465787Y-138164957D01*
X96164601Y-138164957D01*
X96005636Y-138174183D01*
X95888292Y-138252813D01*
X95863415Y-138466142D01*
X95854188Y-138625107D01*
X95775559Y-138742451D01*
X95562229Y-138767328D01*
X95403265Y-138776555D01*
X95285920Y-138855184D01*
X95261043Y-139068514D01*
X95270270Y-139227478D01*
X95348899Y-139344823D01*
X95562229Y-139369700D01*
X95863415Y-139369700D01*
X95863415Y-140574443D01*
X95562229Y-140574443D01*
X95403265Y-140565216D01*
X95285920Y-140486587D01*
X95261043Y-140273257D01*
X95251817Y-140114292D01*
X95173187Y-139996948D01*
X94959858Y-139972071D01*
X94800893Y-139981298D01*
X94683549Y-140059927D01*
X94658672Y-140273257D01*
X94658672Y-140574443D01*
X92851557Y-140574443D01*
X92851557Y-140273257D01*
X92860784Y-140114292D01*
X92939413Y-139996948D01*
X93152743Y-139972071D01*
X93453929Y-139972071D01*
X93453929Y-139670885D01*
X94056300Y-139670885D01*
X94065527Y-139829850D01*
X94144156Y-139947195D01*
X94357486Y-139972071D01*
X94516451Y-139962844D01*
X94633795Y-139884215D01*
X94658672Y-139670885D01*
X94649445Y-139511921D01*
X94570816Y-139394576D01*
X94357486Y-139369700D01*
X94198522Y-139378927D01*
X94081177Y-139457556D01*
X94056300Y-139670885D01*
X93453929Y-139670885D01*
X93453929Y-138164957D01*
X95863415Y-138164957D01*
X95863415Y-136960213D01*
X95562229Y-136960213D01*
X95403265Y-136950987D01*
X95285920Y-136872357D01*
X95261043Y-136659028D01*
X95261043Y-136357842D01*
X97068158Y-136357842D01*
X97068158Y-136056656D01*
X97058931Y-135897692D01*
X96980302Y-135780347D01*
X96766972Y-135755470D01*
X96608008Y-135746243D01*
X96490663Y-135667614D01*
X96465787Y-135454285D01*
X96465787Y-135153099D01*
X99477644Y-135153099D01*
X99477644Y-135454285D01*
X99486871Y-135613249D01*
X99565500Y-135730594D01*
X99778830Y-135755470D01*
X99937795Y-135746243D01*
X100055139Y-135667614D01*
X100080016Y-135454285D01*
X100080016Y-135153099D01*
X103091873Y-135153099D01*
X103091873Y-140574443D01*
X101887130Y-140574443D01*
X101887130Y-139369700D01*
X101284759Y-139369700D01*
X101284759Y-140574443D01*
X100983573Y-140574443D01*
X100824609Y-140565216D01*
X100707264Y-140486587D01*
X100682387Y-140273257D01*
X100673160Y-140114292D01*
X100594531Y-139996948D01*
X100381202Y-139972071D01*
X100080016Y-139972071D01*
X100080016Y-141176814D01*
X99778830Y-141176814D01*
X99619865Y-141186041D01*
X99502521Y-141264670D01*
X99477644Y-141478000D01*
X99477644Y-141779186D01*
X100682387Y-141779186D01*
X100682387Y-142080372D01*
X100691614Y-142239336D01*
X100770243Y-142356681D01*
X100983573Y-142381557D01*
X101142538Y-142372330D01*
X101259882Y-142293701D01*
X101284759Y-142080372D01*
X101293986Y-141921407D01*
X101372615Y-141804062D01*
X101585945Y-141779186D01*
X101744909Y-141788413D01*
X101862254Y-141867042D01*
X101887130Y-142080372D01*
X101896357Y-142239336D01*
X101974986Y-142356681D01*
X102188316Y-142381557D01*
X102347281Y-142372330D01*
X102464625Y-142293701D01*
X102489502Y-142080372D01*
X102498729Y-141921407D01*
X102577358Y-141804062D01*
X102790688Y-141779186D01*
X102949652Y-141788413D01*
X103066997Y-141867042D01*
X103091873Y-142080372D01*
X103082647Y-142239336D01*
X103004017Y-142356681D01*
X102790688Y-142381557D01*
X102489502Y-142381557D01*
X102489502Y-143586300D01*
X102188316Y-143586300D01*
X102029352Y-143577074D01*
X101912007Y-143498444D01*
X101887130Y-143285115D01*
X101887130Y-142983929D01*
X100682387Y-142983929D01*
X100682387Y-143586300D01*
X99477644Y-143586300D01*
X99477644Y-144188672D01*
X101284759Y-144188672D01*
X101284759Y-144791044D01*
X100080016Y-144791044D01*
X100080016Y-145393415D01*
X98875273Y-145393415D01*
X98875273Y-145092229D01*
X98884500Y-144933265D01*
X98963129Y-144815920D01*
X99176458Y-144791044D01*
X99335423Y-144781817D01*
X99452768Y-144703188D01*
X99477644Y-144489858D01*
X99468417Y-144330893D01*
X99389788Y-144213549D01*
X99176458Y-144188672D01*
X99017494Y-144179445D01*
X98900149Y-144100816D01*
X98875273Y-143887486D01*
X98884500Y-143728522D01*
X98963129Y-143611177D01*
X99176458Y-143586300D01*
X99335423Y-143577074D01*
X99452768Y-143498444D01*
X99477644Y-143285115D01*
X99468417Y-143126150D01*
X99389788Y-143008806D01*
X99176458Y-142983929D01*
X99017494Y-142974702D01*
X98900149Y-142896073D01*
X98875273Y-142682743D01*
X98884500Y-142523779D01*
X98963129Y-142406434D01*
X99176458Y-142381557D01*
X99335423Y-142372330D01*
X99452768Y-142293701D01*
X99477644Y-142080372D01*
X99468417Y-141921407D01*
X99389788Y-141804062D01*
X99176458Y-141779186D01*
X99017494Y-141788413D01*
X98900149Y-141867042D01*
X98875273Y-142080372D01*
X98866046Y-142239336D01*
X98787417Y-142356681D01*
X98574087Y-142381557D01*
X98415122Y-142372330D01*
X98297778Y-142293701D01*
X98272901Y-142080372D01*
X98272901Y-141779186D01*
X97068158Y-141779186D01*
X97068158Y-142080372D01*
X97058931Y-142239336D01*
X96980302Y-142356681D01*
X96766972Y-142381557D01*
X96608008Y-142390784D01*
X96490663Y-142469413D01*
X96465787Y-142682743D01*
X96456560Y-142841708D01*
X96377931Y-142959052D01*
X96164601Y-142983929D01*
X96005636Y-142993156D01*
X95888292Y-143071785D01*
X95863415Y-143285115D01*
X95854188Y-143444079D01*
X95775559Y-143561424D01*
X95562229Y-143586300D01*
X95403265Y-143595527D01*
X95285920Y-143674156D01*
X95261043Y-143887486D01*
X95270270Y-144046451D01*
X95348899Y-144163795D01*
X95562229Y-144188672D01*
X95863415Y-144188672D01*
X95863415Y-145393415D01*
X95562229Y-145393415D01*
X95403265Y-145384188D01*
X95285920Y-145305559D01*
X95261043Y-145092229D01*
X95251817Y-144933265D01*
X95173187Y-144815920D01*
X94959858Y-144791044D01*
X94800893Y-144781817D01*
X94683549Y-144703188D01*
X94658672Y-144489858D01*
X94649445Y-144330893D01*
X94570816Y-144213549D01*
X94357486Y-144188672D01*
X94198522Y-144179445D01*
X94081177Y-144100816D01*
X94056300Y-143887486D01*
X94056300Y-143586300D01*
X92851557Y-143586300D01*
X92851557Y-143285115D01*
X92842330Y-143126150D01*
X92763701Y-143008806D01*
X92550372Y-142983929D01*
X92391407Y-142993156D01*
X92274062Y-143071785D01*
X92249186Y-143285115D01*
X92258413Y-143444079D01*
X92337042Y-143561424D01*
X92550372Y-143586300D01*
X92709336Y-143595527D01*
X92826681Y-143674156D01*
X92851557Y-143887486D01*
X92851557Y-144188672D01*
X91646814Y-144188672D01*
X91646814Y-144489858D01*
X91656041Y-144648822D01*
X91734670Y-144766167D01*
X91948000Y-144791044D01*
X92249186Y-144791044D01*
X92249186Y-145995787D01*
X91646814Y-145995787D01*
X91646814Y-144791044D01*
X91345628Y-144791044D01*
X91186664Y-144800270D01*
X91069319Y-144878900D01*
X91044443Y-145092229D01*
X91035216Y-145251194D01*
X90956587Y-145368538D01*
X90743257Y-145393415D01*
X90584292Y-145402642D01*
X90466948Y-145481271D01*
X90442071Y-145694601D01*
X90432844Y-145853565D01*
X90354215Y-145970910D01*
X90140885Y-145995787D01*
X89981921Y-146005013D01*
X89864576Y-146083643D01*
X89839700Y-146296972D01*
X89839700Y-146598158D01*
X92249186Y-146598158D01*
X92249186Y-147200530D01*
X91044443Y-147200530D01*
X91044443Y-148405273D01*
X91345628Y-148405273D01*
X91504593Y-148396046D01*
X91621938Y-148317417D01*
X91646814Y-148104087D01*
X91656041Y-147945122D01*
X91734670Y-147827778D01*
X91948000Y-147802901D01*
X92106965Y-147812128D01*
X92224309Y-147890757D01*
X92249186Y-148104087D01*
X92239959Y-148263052D01*
X92161330Y-148380396D01*
X91948000Y-148405273D01*
X91789035Y-148414500D01*
X91671691Y-148493129D01*
X91646814Y-148706459D01*
X91656041Y-148865423D01*
X91734670Y-148982768D01*
X91948000Y-149007644D01*
X92106965Y-149016871D01*
X92224309Y-149095500D01*
X92249186Y-149308830D01*
X92249186Y-149610016D01*
X91044443Y-149610016D01*
X91044443Y-149911202D01*
X91053670Y-150070166D01*
X91132299Y-150187511D01*
X91345628Y-150212387D01*
X91646814Y-150212387D01*
X91646814Y-152019502D01*
X91345628Y-152019502D01*
X91186664Y-152028729D01*
X91069319Y-152107358D01*
X91044443Y-152320688D01*
X91044443Y-152621874D01*
X89237328Y-152621874D01*
X89237328Y-152320688D01*
X89228101Y-152161723D01*
X89149472Y-152044379D01*
X88936142Y-152019502D01*
X88777178Y-152010275D01*
X88659833Y-151931646D01*
X88634956Y-151718316D01*
X89237328Y-151718316D01*
X89246555Y-151877281D01*
X89325184Y-151994625D01*
X89538514Y-152019502D01*
X89697478Y-152010275D01*
X89814823Y-151931646D01*
X89839700Y-151718316D01*
X89848926Y-151559352D01*
X89927556Y-151442007D01*
X90140885Y-151417130D01*
X90299850Y-151426357D01*
X90417194Y-151504986D01*
X90442071Y-151718316D01*
X90451298Y-151877281D01*
X90529927Y-151994625D01*
X90743257Y-152019502D01*
X91044443Y-152019502D01*
X91044443Y-150814759D01*
X89839700Y-150814759D01*
X89839700Y-151115945D01*
X89830473Y-151274909D01*
X89751844Y-151392254D01*
X89538514Y-151417130D01*
X89379549Y-151426357D01*
X89262205Y-151504986D01*
X89237328Y-151718316D01*
X88634956Y-151718316D01*
X88644183Y-151559352D01*
X88722812Y-151442007D01*
X88936142Y-151417130D01*
X89237328Y-151417130D01*
X89237328Y-149610016D01*
X88936142Y-149610016D01*
X88777178Y-149619243D01*
X88659833Y-149697872D01*
X88634956Y-149911202D01*
X88634956Y-150212387D01*
X87430213Y-150212387D01*
X87430213Y-149911202D01*
X87420987Y-149752237D01*
X87342357Y-149634893D01*
X87129028Y-149610016D01*
X86970063Y-149619243D01*
X86852719Y-149697872D01*
X86827842Y-149911202D01*
X86818615Y-150070166D01*
X86739986Y-150187511D01*
X86526656Y-150212387D01*
X86367692Y-150221614D01*
X86250347Y-150300243D01*
X86225470Y-150513573D01*
X86216243Y-150672538D01*
X86137614Y-150789882D01*
X85924285Y-150814759D01*
X85765320Y-150823986D01*
X85647975Y-150902615D01*
X85623099Y-151115945D01*
X85632326Y-151274909D01*
X85710955Y-151392254D01*
X85924285Y-151417130D01*
X86083249Y-151426357D01*
X86200594Y-151504986D01*
X86225470Y-151718316D01*
X86225470Y-152019502D01*
X87430213Y-152019502D01*
X87430213Y-151718316D01*
X87420987Y-151559352D01*
X87342357Y-151442007D01*
X87129028Y-151417130D01*
X86970063Y-151407904D01*
X86852719Y-151329274D01*
X86827842Y-151115945D01*
X86827842Y-150814759D01*
X88032585Y-150814759D01*
X88032585Y-152621874D01*
X86225470Y-152621874D01*
X86225470Y-152320688D01*
X86216243Y-152161723D01*
X86137614Y-152044379D01*
X85924285Y-152019502D01*
X85765320Y-152028729D01*
X85647975Y-152107358D01*
X85623099Y-152320688D01*
X85613872Y-152479652D01*
X85535243Y-152596997D01*
X85321913Y-152621874D01*
X85162948Y-152612647D01*
X85045604Y-152534018D01*
X85020727Y-152320688D01*
X85011500Y-152161723D01*
X84932871Y-152044379D01*
X84719541Y-152019502D01*
X84560577Y-152028729D01*
X84443232Y-152107358D01*
X84418356Y-152320688D01*
X84409129Y-152479652D01*
X84330500Y-152596997D01*
X84117170Y-152621874D01*
X83958205Y-152612647D01*
X83840861Y-152534018D01*
X83815984Y-152320688D01*
X83806757Y-152161723D01*
X83728128Y-152044379D01*
X83514798Y-152019502D01*
X83355834Y-152028729D01*
X83238489Y-152107358D01*
X83213613Y-152320688D01*
X83204386Y-152479652D01*
X83125757Y-152596997D01*
X82912427Y-152621874D01*
X82753462Y-152612647D01*
X82636118Y-152534018D01*
X82611241Y-152320688D01*
X82620468Y-152161723D01*
X82699097Y-152044379D01*
X82912427Y-152019502D01*
X83213613Y-152019502D01*
X83213613Y-150814759D01*
X83815984Y-150814759D01*
X83815984Y-152019502D01*
X84418356Y-152019502D01*
X84418356Y-150814759D01*
X84719541Y-150814759D01*
X84878506Y-150805532D01*
X84995851Y-150726903D01*
X85020727Y-150513573D01*
X85020727Y-150212387D01*
X83213613Y-150212387D01*
X83213613Y-149610016D01*
X83815984Y-149610016D01*
X85623099Y-149610016D01*
X86225470Y-149610016D01*
X86827842Y-149610016D01*
X86827842Y-148405273D01*
X86225470Y-148405273D01*
X86225470Y-149610016D01*
X85623099Y-149610016D01*
X85623099Y-147802901D01*
X83815984Y-147802901D01*
X83815984Y-149610016D01*
X83213613Y-149610016D01*
X82008870Y-149610016D01*
X82008870Y-149007644D01*
X80804126Y-149007644D01*
X80804126Y-144791044D01*
X82008870Y-144791044D01*
X82008870Y-143586300D01*
X82310055Y-143586300D01*
X82469020Y-143577074D01*
X82586364Y-143498444D01*
X82611241Y-143285115D01*
X82611241Y-142983929D01*
X82912427Y-142983929D01*
X83071391Y-142993156D01*
X83188736Y-143071785D01*
X83213613Y-143285115D01*
X83222840Y-143444079D01*
X83301469Y-143561424D01*
X83514798Y-143586300D01*
X83673763Y-143595527D01*
X83791107Y-143674156D01*
X83815984Y-143887486D01*
X83815984Y-144188672D01*
X82611241Y-144188672D01*
X82611241Y-145393415D01*
X82310055Y-145393415D01*
X82151091Y-145402642D01*
X82033746Y-145481271D01*
X82008870Y-145694601D01*
X81999643Y-145853565D01*
X81921014Y-145970910D01*
X81707684Y-145995787D01*
X81548719Y-146005013D01*
X81431375Y-146083643D01*
X81406498Y-146296972D01*
X81415725Y-146455937D01*
X81494354Y-146573281D01*
X81707684Y-146598158D01*
X81866648Y-146607385D01*
X81983993Y-146686014D01*
X82008870Y-146899344D01*
X82018096Y-147058308D01*
X82096726Y-147175653D01*
X82310055Y-147200530D01*
X82469020Y-147209757D01*
X82586364Y-147288386D01*
X82611241Y-147501715D01*
X82611241Y-147802901D01*
X81406498Y-147802901D01*
X81406498Y-148405273D01*
X83213613Y-148405273D01*
X83213613Y-147200530D01*
X83514798Y-147200530D01*
X83673763Y-147191303D01*
X83791107Y-147112674D01*
X83815984Y-146899344D01*
X83815984Y-146598158D01*
X82008870Y-146598158D01*
X82008870Y-145995787D01*
X83815984Y-145995787D01*
X83815984Y-144188672D01*
X84418356Y-144188672D01*
X84418356Y-145393415D01*
X84719541Y-145393415D01*
X84878506Y-145402642D01*
X84995851Y-145481271D01*
X85020727Y-145694601D01*
X85029954Y-145853565D01*
X85108583Y-145970910D01*
X85321913Y-145995787D01*
X85480878Y-146005013D01*
X85598222Y-146083643D01*
X85623099Y-146296972D01*
X85623099Y-146598158D01*
X84418356Y-146598158D01*
X84418356Y-147200530D01*
X85623099Y-147200530D01*
X85623099Y-146899344D01*
X85632326Y-146740379D01*
X85710955Y-146623035D01*
X85924285Y-146598158D01*
X86083249Y-146607385D01*
X86200594Y-146686014D01*
X86225470Y-146899344D01*
X86234697Y-147058308D01*
X86313326Y-147175653D01*
X86526656Y-147200530D01*
X86827842Y-147200530D01*
X86827842Y-145995787D01*
X86526656Y-145995787D01*
X86367692Y-145986560D01*
X86250347Y-145907931D01*
X86225470Y-145694601D01*
X86216243Y-145535636D01*
X86137614Y-145418292D01*
X85924285Y-145393415D01*
X85623099Y-145393415D01*
X85623099Y-144188672D01*
X85924285Y-144188672D01*
X86083249Y-144197899D01*
X86200594Y-144276528D01*
X86225470Y-144489858D01*
X86234697Y-144648822D01*
X86313326Y-144766167D01*
X86526656Y-144791044D01*
X86685621Y-144800270D01*
X86802965Y-144878900D01*
X86827842Y-145092229D01*
X86837069Y-145251194D01*
X86915698Y-145368538D01*
X87129028Y-145393415D01*
X87430213Y-145393415D01*
X87430213Y-146598158D01*
X88032585Y-146598158D01*
X88032585Y-147802901D01*
X87731399Y-147802901D01*
X87572435Y-147812128D01*
X87455090Y-147890757D01*
X87430213Y-148104087D01*
X87439440Y-148263052D01*
X87518069Y-148380396D01*
X87731399Y-148405273D01*
X87890364Y-148396046D01*
X88007708Y-148317417D01*
X88032585Y-148104087D01*
X88041812Y-147945122D01*
X88120441Y-147827778D01*
X88333771Y-147802901D01*
X88634956Y-147802901D01*
X88634956Y-149007644D01*
X87430213Y-149007644D01*
X87430213Y-149610016D01*
X88634956Y-149610016D01*
X88634956Y-149308830D01*
X88644183Y-149149866D01*
X88722812Y-149032521D01*
X88936142Y-149007644D01*
X89095107Y-149016871D01*
X89212451Y-149095500D01*
X89237328Y-149308830D01*
X89246555Y-149467795D01*
X89325184Y-149585139D01*
X89538514Y-149610016D01*
X89697478Y-149600789D01*
X89814823Y-149522160D01*
X89839700Y-149308830D01*
X89839700Y-149007644D01*
X91044443Y-149007644D01*
X91044443Y-148405273D01*
X89839700Y-148405273D01*
X89839700Y-148104087D01*
X89848926Y-147945122D01*
X89927556Y-147827778D01*
X90140885Y-147802901D01*
X90299850Y-147793674D01*
X90417194Y-147715045D01*
X90442071Y-147501715D01*
X90442071Y-147200530D01*
X88634956Y-147200530D01*
X88634956Y-146899344D01*
X88644183Y-146740379D01*
X88722812Y-146623035D01*
X88936142Y-146598158D01*
X89095107Y-146588931D01*
X89212451Y-146510302D01*
X89237328Y-146296972D01*
X89246555Y-146138008D01*
X89325184Y-146020663D01*
X89538514Y-145995787D01*
X89697478Y-145986560D01*
X89814823Y-145907931D01*
X89839700Y-145694601D01*
X89830473Y-145535636D01*
X89751844Y-145418292D01*
X89538514Y-145393415D01*
X89379549Y-145384188D01*
X89262205Y-145305559D01*
X89237328Y-145092229D01*
X89228101Y-144933265D01*
X89149472Y-144815920D01*
X88936142Y-144791044D01*
X88634956Y-144791044D01*
X88634956Y-143586300D01*
X89237328Y-143586300D01*
X89237328Y-142381557D01*
X89538514Y-142381557D01*
X89697478Y-142390784D01*
X89814823Y-142469413D01*
X89839700Y-142682743D01*
X89848926Y-142841708D01*
X89927556Y-142959052D01*
X90140885Y-142983929D01*
X90299850Y-142993156D01*
X90417194Y-143071785D01*
X90442071Y-143285115D01*
X90432844Y-143444079D01*
X90354215Y-143561424D01*
X90140885Y-143586300D01*
X89981921Y-143595527D01*
X89864576Y-143674156D01*
X89839700Y-143887486D01*
X89848926Y-144046451D01*
X89927556Y-144163795D01*
X90140885Y-144188672D01*
X90299850Y-144179445D01*
X90417194Y-144100816D01*
X90442071Y-143887486D01*
X90451298Y-143728522D01*
X90529927Y-143611177D01*
X90743257Y-143586300D01*
X90902221Y-143595527D01*
X91019566Y-143674156D01*
X91044443Y-143887486D01*
X91053670Y-144046451D01*
X91132299Y-144163795D01*
X91345628Y-144188672D01*
X91504593Y-144179445D01*
X91621938Y-144100816D01*
X91646814Y-143887486D01*
X91637587Y-143728522D01*
X91558958Y-143611177D01*
X91345628Y-143586300D01*
X91186664Y-143577074D01*
X91069319Y-143498444D01*
X91044443Y-143285115D01*
X91053670Y-143126150D01*
X91132299Y-143008806D01*
X91345628Y-142983929D01*
X91504593Y-142974702D01*
X91621938Y-142896073D01*
X91646814Y-142682743D01*
X91646814Y-142381557D01*
X94056300Y-142381557D01*
X94056300Y-141779186D01*
X91646814Y-141779186D01*
X91646814Y-142080372D01*
X91637587Y-142239336D01*
X91558958Y-142356681D01*
X91345628Y-142381557D01*
X91186664Y-142390784D01*
X91069319Y-142469413D01*
X91044443Y-142682743D01*
X91035216Y-142841708D01*
X90956587Y-142959052D01*
X90743257Y-142983929D01*
X90442071Y-142983929D01*
X90442071Y-141176814D01*
X89237328Y-141176814D01*
X89237328Y-141478000D01*
X89228101Y-141636965D01*
X89149472Y-141754309D01*
X88936142Y-141779186D01*
X88634956Y-141779186D01*
X88634956Y-140574443D01*
X88936142Y-140574443D01*
X89095107Y-140565216D01*
X89212451Y-140486587D01*
X89237328Y-140273257D01*
X89246555Y-140114292D01*
X89325184Y-139996948D01*
X89538514Y-139972071D01*
X89697478Y-139962844D01*
X89814823Y-139884215D01*
X89839700Y-139670885D01*
X89830473Y-139511921D01*
X89751844Y-139394576D01*
X89538514Y-139369700D01*
X89379549Y-139360473D01*
X89262205Y-139281844D01*
X89237328Y-139068514D01*
X89246555Y-138909549D01*
X89325184Y-138792205D01*
X89538514Y-138767328D01*
X89697478Y-138758101D01*
X89814823Y-138679472D01*
X89839700Y-138466142D01*
X89848926Y-138307178D01*
X89927556Y-138189833D01*
X90140885Y-138164957D01*
X90442071Y-138164957D01*
X90442071Y-136357842D01*
X90743257Y-136357842D01*
X90902221Y-136348615D01*
X91019566Y-136269986D01*
X91044443Y-136056656D01*
X91053670Y-135897692D01*
X91132299Y-135780347D01*
X91345628Y-135755470D01*
X91504593Y-135746243D01*
X91621938Y-135667614D01*
X91646814Y-135454285D01*
X91637587Y-135295320D01*
X91558958Y-135177976D01*
X91345628Y-135153099D01*
X91186664Y-135143872D01*
X91069319Y-135065243D01*
X91044443Y-134851913D01*
X91053670Y-134692949D01*
X91132299Y-134575604D01*
X91345628Y-134550727D01*
X91504593Y-134541500D01*
X91621938Y-134462871D01*
X91646814Y-134249542D01*
X91656041Y-134090577D01*
X91734670Y-133973232D01*
X91948000Y-133948356D01*
X92249186Y-133948356D01*
X92249186Y-135153099D01*
X92550372Y-135153099D01*
X92709336Y-135162326D01*
X92826681Y-135240955D01*
X92851557Y-135454285D01*
X92860784Y-135613249D01*
X92939413Y-135730594D01*
X93152743Y-135755470D01*
X93453929Y-135755470D01*
X93453929Y-134550727D01*
X93755115Y-134550727D01*
X93914079Y-134559954D01*
X94031424Y-134638583D01*
X94056300Y-134851913D01*
X94065527Y-135010878D01*
X94144156Y-135128222D01*
X94357486Y-135153099D01*
X94516451Y-135143872D01*
X94633795Y-135065243D01*
X94658672Y-134851913D01*
X94667899Y-134692949D01*
X94746528Y-134575604D01*
X94959858Y-134550727D01*
X95118822Y-134541500D01*
X95236167Y-134462871D01*
X95261043Y-134249542D01*
X95251817Y-134090577D01*
X95173187Y-133973232D01*
X94959858Y-133948356D01*
X94800893Y-133957583D01*
X94683549Y-134036212D01*
X94658672Y-134249542D01*
X94649445Y-134408506D01*
X94570816Y-134525851D01*
X94357486Y-134550727D01*
X94198522Y-134541500D01*
X94081177Y-134462871D01*
X94056300Y-134249542D01*
X94047073Y-134090577D01*
X93968444Y-133973232D01*
X93755115Y-133948356D01*
X93596150Y-133957583D01*
X93478805Y-134036212D01*
X93453929Y-134249542D01*
X93444702Y-134408506D01*
X93366073Y-134525851D01*
X93152743Y-134550727D01*
X92851557Y-134550727D01*
X92851557Y-133345984D01*
X93152743Y-133345984D01*
X93311708Y-133336757D01*
X93429052Y-133258128D01*
X93453929Y-133044798D01*
X93444702Y-132885834D01*
X93366073Y-132768489D01*
X93152743Y-132743613D01*
X92993778Y-132734386D01*
X92876434Y-132655757D01*
X92851557Y-132442427D01*
X92842330Y-132283462D01*
X92763701Y-132166118D01*
X92550372Y-132141241D01*
X92391407Y-132150468D01*
X92274062Y-132229097D01*
X92249186Y-132442427D01*
X92239959Y-132601391D01*
X92161330Y-132718736D01*
X91948000Y-132743613D01*
X91646814Y-132743613D01*
X91646814Y-133948356D01*
X91345628Y-133948356D01*
X91186664Y-133939129D01*
X91069319Y-133860500D01*
X91044443Y-133647170D01*
X91044443Y-133345984D01*
X89839700Y-133345984D01*
X89839700Y-133044798D01*
X89830473Y-132885834D01*
X89751844Y-132768489D01*
X89538514Y-132743613D01*
X89379549Y-132734386D01*
X89262205Y-132655757D01*
X89237328Y-132442427D01*
X89246555Y-132283462D01*
X89325184Y-132166118D01*
X89538514Y-132141241D01*
X89697478Y-132132014D01*
X89814823Y-132053385D01*
X89839700Y-131840055D01*
X89848926Y-131681091D01*
X89927556Y-131563746D01*
X90140885Y-131538870D01*
X90299850Y-131529643D01*
X90417194Y-131451014D01*
X90442071Y-131237684D01*
X90432844Y-131078719D01*
X90354215Y-130961375D01*
X90140885Y-130936498D01*
X89981921Y-130945725D01*
X89864576Y-131024354D01*
X89839700Y-131237684D01*
X89830473Y-131396648D01*
X89751844Y-131513993D01*
X89538514Y-131538870D01*
X89379549Y-131548096D01*
X89262205Y-131626726D01*
X89237328Y-131840055D01*
X89228101Y-131999020D01*
X89149472Y-132116364D01*
X88936142Y-132141241D01*
X88777178Y-132132014D01*
X88659833Y-132053385D01*
X88634956Y-131840055D01*
X88634956Y-131538870D01*
X86225470Y-131538870D01*
X86225470Y-132141241D01*
X88032585Y-132141241D01*
X88032585Y-132442427D01*
X88023358Y-132601391D01*
X87944729Y-132718736D01*
X87731399Y-132743613D01*
X87572435Y-132752840D01*
X87455090Y-132831469D01*
X87430213Y-133044798D01*
X87439440Y-133203763D01*
X87518069Y-133321108D01*
X87731399Y-133345984D01*
X87890364Y-133336757D01*
X88007708Y-133258128D01*
X88032585Y-133044798D01*
X88032585Y-132743613D01*
X89237328Y-132743613D01*
X89237328Y-133044798D01*
X89228101Y-133203763D01*
X89149472Y-133321108D01*
X88936142Y-133345984D01*
X88634956Y-133345984D01*
X88634956Y-134550727D01*
X88333771Y-134550727D01*
X88174806Y-134541500D01*
X88057462Y-134462871D01*
X88032585Y-134249542D01*
X88023358Y-134090577D01*
X87944729Y-133973232D01*
X87731399Y-133948356D01*
X87572435Y-133957583D01*
X87455090Y-134036212D01*
X87430213Y-134249542D01*
X87420987Y-134408506D01*
X87342357Y-134525851D01*
X87129028Y-134550727D01*
X86970063Y-134559954D01*
X86852719Y-134638583D01*
X86827842Y-134851913D01*
X86837069Y-135010878D01*
X86915698Y-135128222D01*
X87129028Y-135153099D01*
X87287992Y-135143872D01*
X87405337Y-135065243D01*
X87430213Y-134851913D01*
X87439440Y-134692949D01*
X87518069Y-134575604D01*
X87731399Y-134550727D01*
X87890364Y-134559954D01*
X88007708Y-134638583D01*
X88032585Y-134851913D01*
X88041812Y-135010878D01*
X88120441Y-135128222D01*
X88333771Y-135153099D01*
X88492735Y-135162326D01*
X88610080Y-135240955D01*
X88634956Y-135454285D01*
X88634956Y-135755470D01*
X86225470Y-135755470D01*
X86225470Y-136056656D01*
X86216243Y-136215621D01*
X86137614Y-136332965D01*
X85924285Y-136357842D01*
X85765320Y-136367069D01*
X85647975Y-136445698D01*
X85623099Y-136659028D01*
X85623099Y-136960213D01*
X84418356Y-136960213D01*
X84418356Y-136659028D01*
X84409129Y-136500063D01*
X84330500Y-136382719D01*
X84117170Y-136357842D01*
X83958205Y-136367069D01*
X83840861Y-136445698D01*
X83815984Y-136659028D01*
X83806757Y-136817992D01*
X83728128Y-136935337D01*
X83514798Y-136960213D01*
X83355834Y-136969440D01*
X83238489Y-137048069D01*
X83213613Y-137261399D01*
X83204386Y-137420364D01*
X83125757Y-137537708D01*
X82912427Y-137562585D01*
X82753462Y-137553358D01*
X82636118Y-137474729D01*
X82611241Y-137261399D01*
X82602014Y-137102435D01*
X82523385Y-136985090D01*
X82310055Y-136960213D01*
X82151091Y-136969440D01*
X82033746Y-137048069D01*
X82008870Y-137261399D01*
X82018096Y-137420364D01*
X82096726Y-137537708D01*
X82310055Y-137562585D01*
X82469020Y-137571812D01*
X82586364Y-137650441D01*
X82611241Y-137863771D01*
X82611241Y-138164957D01*
X81406498Y-138164957D01*
X81406498Y-138767328D01*
X82611241Y-138767328D01*
X82611241Y-139068514D01*
X82620468Y-139227478D01*
X82699097Y-139344823D01*
X82912427Y-139369700D01*
X83071391Y-139378927D01*
X83188736Y-139457556D01*
X83213613Y-139670885D01*
X83222840Y-139829850D01*
X83301469Y-139947195D01*
X83514798Y-139972071D01*
X83673763Y-139981298D01*
X83791107Y-140059927D01*
X83815984Y-140273257D01*
X83825211Y-140432222D01*
X83903840Y-140549566D01*
X84117170Y-140574443D01*
X84276134Y-140583670D01*
X84393479Y-140662299D01*
X84418356Y-140875628D01*
X84409129Y-141034593D01*
X84330500Y-141151938D01*
X84117170Y-141176814D01*
X83958205Y-141186041D01*
X83840861Y-141264670D01*
X83815984Y-141478000D01*
X83815984Y-141779186D01*
X82611241Y-141779186D01*
X82611241Y-142983929D01*
X81406498Y-142983929D01*
X81406498Y-143285115D01*
X81397271Y-143444079D01*
X81318642Y-143561424D01*
X81105312Y-143586300D01*
X80804126Y-143586300D01*
X80804126Y-142381557D01*
X81105312Y-142381557D01*
X81264277Y-142372330D01*
X81381621Y-142293701D01*
X81406498Y-142080372D01*
X81397271Y-141921407D01*
X81318642Y-141804062D01*
X81105312Y-141779186D01*
X80804126Y-141779186D01*
X80804126Y-141176814D01*
X81406498Y-141176814D01*
X82611241Y-141176814D01*
X82611241Y-140574443D01*
X81406498Y-140574443D01*
X81406498Y-141176814D01*
X80804126Y-141176814D01*
X80804126Y-139972071D01*
X81105312Y-139972071D01*
X81264277Y-139962844D01*
X81381621Y-139884215D01*
X81406498Y-139670885D01*
X81397271Y-139511921D01*
X81318642Y-139394576D01*
X81105312Y-139369700D01*
X80804126Y-139369700D01*
X80804126Y-137562585D01*
X81105312Y-137562585D01*
X81264277Y-137553358D01*
X81381621Y-137474729D01*
X81406498Y-137261399D01*
X81397271Y-137102435D01*
X81318642Y-136985090D01*
X81105312Y-136960213D01*
X80804126Y-136960213D01*
X80804126Y-135755470D01*
X81105312Y-135755470D01*
X81264277Y-135746243D01*
X81381621Y-135667614D01*
X81406498Y-135454285D01*
X81415725Y-135295320D01*
X81494354Y-135177976D01*
X81707684Y-135153099D01*
X81866648Y-135162326D01*
X81983993Y-135240955D01*
X82008870Y-135454285D01*
X81999643Y-135613249D01*
X81921014Y-135730594D01*
X81707684Y-135755470D01*
X81406498Y-135755470D01*
X81406498Y-136960213D01*
X81707684Y-136960213D01*
X81866648Y-136950987D01*
X81983993Y-136872357D01*
X82008870Y-136659028D01*
X82018096Y-136500063D01*
X82096726Y-136382719D01*
X82310055Y-136357842D01*
X82469020Y-136367069D01*
X82586364Y-136445698D01*
X82611241Y-136659028D01*
X82620468Y-136817992D01*
X82699097Y-136935337D01*
X82912427Y-136960213D01*
X83213613Y-136960213D01*
X83213613Y-135755470D01*
X82912427Y-135755470D01*
X82753462Y-135746243D01*
X82636118Y-135667614D01*
X82611241Y-135454285D01*
X82620468Y-135295320D01*
X82699097Y-135177976D01*
X82912427Y-135153099D01*
X83071391Y-135162326D01*
X83188736Y-135240955D01*
X83213613Y-135454285D01*
X83222840Y-135613249D01*
X83301469Y-135730594D01*
X83514798Y-135755470D01*
X83673763Y-135746243D01*
X83791107Y-135667614D01*
X83815984Y-135454285D01*
X83825211Y-135295320D01*
X83903840Y-135177976D01*
X84117170Y-135153099D01*
X84418356Y-135153099D01*
X84418356Y-136357842D01*
X85020727Y-136357842D01*
X85020727Y-135153099D01*
X85623099Y-135153099D01*
X85623099Y-133948356D01*
X85924285Y-133948356D01*
X86083249Y-133957583D01*
X86200594Y-134036212D01*
X86225470Y-134249542D01*
X86234697Y-134408506D01*
X86313326Y-134525851D01*
X86526656Y-134550727D01*
X86827842Y-134550727D01*
X86827842Y-133345984D01*
X85623099Y-133345984D01*
X85623099Y-131538870D01*
X86225470Y-131538870D01*
X86225470Y-130334127D01*
X87430213Y-130334127D01*
X87430213Y-130936498D01*
X88634956Y-130936498D01*
X88634956Y-130334127D01*
X90442071Y-130334127D01*
X90442071Y-130635312D01*
X90451298Y-130794277D01*
X90529927Y-130911621D01*
X90743257Y-130936498D01*
X91044443Y-130936498D01*
X91044443Y-132743613D01*
X91646814Y-132743613D01*
X91646814Y-131538870D01*
X93453929Y-131538870D01*
X93453929Y-132743613D01*
X95863415Y-132743613D01*
X95863415Y-132442427D01*
X96465787Y-132442427D01*
X96475013Y-132601391D01*
X96553643Y-132718736D01*
X96766972Y-132743613D01*
X96925937Y-132734386D01*
X97043281Y-132655757D01*
X97068158Y-132442427D01*
X97058931Y-132283462D01*
X96980302Y-132166118D01*
X96766972Y-132141241D01*
X96608008Y-132150468D01*
X96490663Y-132229097D01*
X96465787Y-132442427D01*
X95863415Y-132442427D01*
X95863415Y-131538870D01*
X95562229Y-131538870D01*
X95403265Y-131529643D01*
X95285920Y-131451014D01*
X95261043Y-131237684D01*
X95261043Y-130936498D01*
X96465787Y-130936498D01*
X96465787Y-131237684D01*
X96475013Y-131396648D01*
X96553643Y-131513993D01*
X96766972Y-131538870D01*
X97068158Y-131538870D01*
X97068158Y-130334127D01*
X97369344Y-130334127D01*
X97528308Y-130343353D01*
X97645653Y-130421983D01*
X97670530Y-130635312D01*
X97679757Y-130794277D01*
X97758386Y-130911621D01*
X97971715Y-130936498D01*
X98130680Y-130945725D01*
X98248024Y-131024354D01*
X98272901Y-131237684D01*
X98263674Y-131396648D01*
X98185045Y-131513993D01*
X97971715Y-131538870D01*
X97812751Y-131548096D01*
X97695406Y-131626726D01*
X97670530Y-131840055D01*
X97679757Y-131999020D01*
X97758386Y-132116364D01*
X97971715Y-132141241D01*
X98130680Y-132150468D01*
X98248024Y-132229097D01*
X98272901Y-132442427D01*
X98272901Y-132743613D01*
X97068158Y-132743613D01*
X97068158Y-134550727D01*
X96465787Y-134550727D01*
X96465787Y-132743613D01*
X96164601Y-132743613D01*
X96005636Y-132752840D01*
X95888292Y-132831469D01*
X95863415Y-133044798D01*
X95854188Y-133203763D01*
X95775559Y-133321108D01*
X95562229Y-133345984D01*
X95403265Y-133355211D01*
X95285920Y-133433840D01*
X95261043Y-133647170D01*
X95270270Y-133806135D01*
X95348899Y-133923479D01*
X95562229Y-133948356D01*
X95863415Y-133948356D01*
X95863415Y-135755470D01*
X95562229Y-135755470D01*
G37*
G36*
X97971715Y-152621874D02*
G01*
X97812751Y-152612647D01*
X97695406Y-152534018D01*
X97670530Y-152320688D01*
X97661303Y-152161723D01*
X97582674Y-152044379D01*
X97369344Y-152019502D01*
X97210379Y-152028729D01*
X97093035Y-152107358D01*
X97068158Y-152320688D01*
X97068158Y-152621874D01*
X95863415Y-152621874D01*
X95863415Y-151417130D01*
X95562229Y-151417130D01*
X95403265Y-151407904D01*
X95285920Y-151329274D01*
X95261043Y-151115945D01*
X95261043Y-150814759D01*
X96465787Y-150814759D01*
X96465787Y-151417130D01*
X97670530Y-151417130D01*
X97670530Y-151115945D01*
X97661303Y-150956980D01*
X97582674Y-150839636D01*
X97369344Y-150814759D01*
X97210379Y-150805532D01*
X97093035Y-150726903D01*
X97068158Y-150513573D01*
X97058931Y-150354609D01*
X96980302Y-150237264D01*
X96766972Y-150212387D01*
X96465787Y-150212387D01*
X96465787Y-149911202D01*
X97068158Y-149911202D01*
X97077385Y-150070166D01*
X97156014Y-150187511D01*
X97369344Y-150212387D01*
X97528308Y-150203160D01*
X97645653Y-150124531D01*
X97670530Y-149911202D01*
X97661303Y-149752237D01*
X97582674Y-149634893D01*
X97369344Y-149610016D01*
X97210379Y-149619243D01*
X97093035Y-149697872D01*
X97068158Y-149911202D01*
X96465787Y-149911202D01*
X96465787Y-148405273D01*
X96766972Y-148405273D01*
X96925937Y-148396046D01*
X97043281Y-148317417D01*
X97068158Y-148104087D01*
X97068158Y-147802901D01*
X95863415Y-147802901D01*
X95863415Y-148104087D01*
X95854188Y-148263052D01*
X95775559Y-148380396D01*
X95562229Y-148405273D01*
X95403265Y-148414500D01*
X95285920Y-148493129D01*
X95261043Y-148706459D01*
X95270270Y-148865423D01*
X95348899Y-148982768D01*
X95562229Y-149007644D01*
X95863415Y-149007644D01*
X95863415Y-150212387D01*
X95562229Y-150212387D01*
X95403265Y-150203160D01*
X95285920Y-150124531D01*
X95261043Y-149911202D01*
X95251817Y-149752237D01*
X95173187Y-149634893D01*
X94959858Y-149610016D01*
X94800893Y-149619243D01*
X94683549Y-149697872D01*
X94658672Y-149911202D01*
X94649445Y-150070166D01*
X94570816Y-150187511D01*
X94357486Y-150212387D01*
X94056300Y-150212387D01*
X94056300Y-151417130D01*
X94357486Y-151417130D01*
X94516451Y-151426357D01*
X94633795Y-151504986D01*
X94658672Y-151718316D01*
X94649445Y-151877281D01*
X94570816Y-151994625D01*
X94357486Y-152019502D01*
X94198522Y-152028729D01*
X94081177Y-152107358D01*
X94056300Y-152320688D01*
X94047073Y-152479652D01*
X93968444Y-152596997D01*
X93755115Y-152621874D01*
X93596150Y-152612647D01*
X93478805Y-152534018D01*
X93453929Y-152320688D01*
X93463156Y-152161723D01*
X93541785Y-152044379D01*
X93755115Y-152019502D01*
X93914079Y-152010275D01*
X94031424Y-151931646D01*
X94056300Y-151718316D01*
X94047073Y-151559352D01*
X93968444Y-151442007D01*
X93755115Y-151417130D01*
X93596150Y-151407904D01*
X93478805Y-151329274D01*
X93453929Y-151115945D01*
X93444702Y-150956980D01*
X93366073Y-150839636D01*
X93152743Y-150814759D01*
X92851557Y-150814759D01*
X92851557Y-149610016D01*
X94658672Y-149610016D01*
X94658672Y-149007644D01*
X92851557Y-149007644D01*
X92851557Y-148405273D01*
X94056300Y-148405273D01*
X94056300Y-148104087D01*
X94047073Y-147945122D01*
X93968444Y-147827778D01*
X93755115Y-147802901D01*
X93596150Y-147793674D01*
X93478805Y-147715045D01*
X93453929Y-147501715D01*
X93463156Y-147342751D01*
X93541785Y-147225406D01*
X93755115Y-147200530D01*
X93914079Y-147191303D01*
X94031424Y-147112674D01*
X94056300Y-146899344D01*
X94056300Y-146598158D01*
X92851557Y-146598158D01*
X92851557Y-146296972D01*
X92860784Y-146138008D01*
X92939413Y-146020663D01*
X93152743Y-145995787D01*
X93453929Y-145995787D01*
X93453929Y-144791044D01*
X93152743Y-144791044D01*
X92993778Y-144781817D01*
X92876434Y-144703188D01*
X92851557Y-144489858D01*
X92851557Y-144188672D01*
X94056300Y-144188672D01*
X94056300Y-144489858D01*
X94065527Y-144648822D01*
X94144156Y-144766167D01*
X94357486Y-144791044D01*
X94516451Y-144800270D01*
X94633795Y-144878900D01*
X94658672Y-145092229D01*
X94649445Y-145251194D01*
X94570816Y-145368538D01*
X94357486Y-145393415D01*
X94056300Y-145393415D01*
X94056300Y-146598158D01*
X94357486Y-146598158D01*
X94516451Y-146607385D01*
X94633795Y-146686014D01*
X94658672Y-146899344D01*
X94649445Y-147058308D01*
X94570816Y-147175653D01*
X94357486Y-147200530D01*
X94198522Y-147209757D01*
X94081177Y-147288386D01*
X94056300Y-147501715D01*
X94056300Y-147802901D01*
X95863415Y-147802901D01*
X95863415Y-147200530D01*
X96465787Y-147200530D01*
X97670530Y-147200530D01*
X97670530Y-146899344D01*
X97661303Y-146740379D01*
X97582674Y-146623035D01*
X97369344Y-146598158D01*
X97210379Y-146588931D01*
X97093035Y-146510302D01*
X97068158Y-146296972D01*
X97077385Y-146138008D01*
X97156014Y-146020663D01*
X97369344Y-145995787D01*
X97528308Y-145986560D01*
X97645653Y-145907931D01*
X97670530Y-145694601D01*
X97661303Y-145535636D01*
X97582674Y-145418292D01*
X97369344Y-145393415D01*
X97210379Y-145402642D01*
X97093035Y-145481271D01*
X97068158Y-145694601D01*
X97058931Y-145853565D01*
X96980302Y-145970910D01*
X96766972Y-145995787D01*
X96465787Y-145995787D01*
X96465787Y-147200530D01*
X95863415Y-147200530D01*
X95863415Y-146598158D01*
X95562229Y-146598158D01*
X95403265Y-146588931D01*
X95285920Y-146510302D01*
X95261043Y-146296972D01*
X95261043Y-145995787D01*
X96465787Y-145995787D01*
X96465787Y-144791044D01*
X97670530Y-144791044D01*
X97670530Y-142381557D01*
X97971715Y-142381557D01*
X98130680Y-142390784D01*
X98248024Y-142469413D01*
X98272901Y-142682743D01*
X98282128Y-142841708D01*
X98360757Y-142959052D01*
X98574087Y-142983929D01*
X98733051Y-142993156D01*
X98850396Y-143071785D01*
X98875273Y-143285115D01*
X98866046Y-143444079D01*
X98787417Y-143561424D01*
X98574087Y-143586300D01*
X98272901Y-143586300D01*
X98272901Y-145995787D01*
X100080016Y-145995787D01*
X100080016Y-146296972D01*
X100089243Y-146455937D01*
X100167872Y-146573281D01*
X100381202Y-146598158D01*
X100540166Y-146588931D01*
X100657511Y-146510302D01*
X100682387Y-146296972D01*
X100691614Y-146138008D01*
X100770243Y-146020663D01*
X100983573Y-145995787D01*
X101284759Y-145995787D01*
X101284759Y-144791044D01*
X102489502Y-144791044D01*
X102489502Y-145092229D01*
X102498729Y-145251194D01*
X102577358Y-145368538D01*
X102790688Y-145393415D01*
X103091873Y-145393415D01*
X103091873Y-147802901D01*
X102489502Y-147802901D01*
X102489502Y-145393415D01*
X102188316Y-145393415D01*
X102029352Y-145402642D01*
X101912007Y-145481271D01*
X101887130Y-145694601D01*
X101877904Y-145853565D01*
X101799274Y-145970910D01*
X101585945Y-145995787D01*
X101426980Y-146005013D01*
X101309636Y-146083643D01*
X101284759Y-146296972D01*
X101293986Y-146455937D01*
X101372615Y-146573281D01*
X101585945Y-146598158D01*
X101887130Y-146598158D01*
X101887130Y-147802901D01*
X101284759Y-147802901D01*
X101284759Y-146598158D01*
X100983573Y-146598158D01*
X100824609Y-146607385D01*
X100707264Y-146686014D01*
X100682387Y-146899344D01*
X100673160Y-147058308D01*
X100594531Y-147175653D01*
X100381202Y-147200530D01*
X100222237Y-147191303D01*
X100104892Y-147112674D01*
X100080016Y-146899344D01*
X100080016Y-146598158D01*
X98875273Y-146598158D01*
X98875273Y-146899344D01*
X98884500Y-147058308D01*
X98963129Y-147175653D01*
X99176458Y-147200530D01*
X99335423Y-147209757D01*
X99452768Y-147288386D01*
X99477644Y-147501715D01*
X99477644Y-147802901D01*
X98272901Y-147802901D01*
X98272901Y-149007644D01*
X97971715Y-149007644D01*
X97812751Y-149016871D01*
X97695406Y-149095500D01*
X97670530Y-149308830D01*
X97679757Y-149467795D01*
X97758386Y-149585139D01*
X97971715Y-149610016D01*
X98272901Y-149610016D01*
X98272901Y-152621874D01*
X97971715Y-152621874D01*
G37*
G36*
X80804126Y-134550727D02*
G01*
X80804126Y-133948356D01*
X81406498Y-133948356D01*
X84418356Y-133948356D01*
X84418356Y-130936498D01*
X81406498Y-130936498D01*
X81406498Y-133948356D01*
X80804126Y-133948356D01*
X80804126Y-130334127D01*
X85020727Y-130334127D01*
X85020727Y-134550727D01*
X80804126Y-134550727D01*
G37*
G36*
X98875273Y-134550727D02*
G01*
X98875273Y-133948356D01*
X99477644Y-133948356D01*
X102489502Y-133948356D01*
X102489502Y-130936498D01*
X99477644Y-130936498D01*
X99477644Y-133948356D01*
X98875273Y-133948356D01*
X98875273Y-130334127D01*
X103091873Y-130334127D01*
X103091873Y-134550727D01*
X98875273Y-134550727D01*
G37*
G36*
X94056300Y-130936498D02*
G01*
X92851557Y-130936498D01*
X92851557Y-130334127D01*
X94056300Y-130334127D01*
X94056300Y-130936498D01*
G37*
G36*
X88032585Y-142381557D02*
G01*
X87731399Y-142381557D01*
X87572435Y-142372330D01*
X87455090Y-142293701D01*
X87430213Y-142080372D01*
X87420987Y-141921407D01*
X87342357Y-141804062D01*
X87129028Y-141779186D01*
X86970063Y-141769959D01*
X86852719Y-141691330D01*
X86827842Y-141478000D01*
X86827842Y-141176814D01*
X88032585Y-141176814D01*
X88032585Y-142381557D01*
G37*
G36*
X94516451Y-136969440D02*
G01*
X94633795Y-137048069D01*
X94658672Y-137261399D01*
X94649445Y-137420364D01*
X94570816Y-137537708D01*
X94357486Y-137562585D01*
X94198522Y-137553358D01*
X94081177Y-137474729D01*
X94056300Y-137261399D01*
X94065527Y-137102435D01*
X94144156Y-136985090D01*
X94357486Y-136960213D01*
X94516451Y-136969440D01*
G37*
G36*
X89839700Y-134550727D02*
G01*
X89538514Y-134550727D01*
X89379549Y-134559954D01*
X89262205Y-134638583D01*
X89237328Y-134851913D01*
X89228101Y-135010878D01*
X89149472Y-135128222D01*
X88936142Y-135153099D01*
X88777178Y-135143872D01*
X88659833Y-135065243D01*
X88634956Y-134851913D01*
X88644183Y-134692949D01*
X88722812Y-134575604D01*
X88936142Y-134550727D01*
X89237328Y-134550727D01*
X89237328Y-133345984D01*
X89839700Y-133345984D01*
X89839700Y-134550727D01*
G37*
G36*
X101887130Y-151417130D02*
G01*
X100080016Y-151417130D01*
X100080016Y-149610016D01*
X101887130Y-149610016D01*
X101887130Y-151417130D01*
G37*
G36*
X94516451Y-131548096D02*
G01*
X94633795Y-131626726D01*
X94658672Y-131840055D01*
X94649445Y-131999020D01*
X94570816Y-132116364D01*
X94357486Y-132141241D01*
X94198522Y-132132014D01*
X94081177Y-132053385D01*
X94056300Y-131840055D01*
X94065527Y-131681091D01*
X94144156Y-131563746D01*
X94357486Y-131538870D01*
X94516451Y-131548096D01*
G37*
G36*
X101887130Y-133345984D02*
G01*
X100080016Y-133345984D01*
X100080016Y-131538870D01*
X101887130Y-131538870D01*
X101887130Y-133345984D01*
G37*
G36*
X89697478Y-148414500D02*
G01*
X89814823Y-148493129D01*
X89839700Y-148706459D01*
X89830473Y-148865423D01*
X89751844Y-148982768D01*
X89538514Y-149007644D01*
X89379549Y-148998417D01*
X89262205Y-148919788D01*
X89237328Y-148706459D01*
X89246555Y-148547494D01*
X89325184Y-148430149D01*
X89538514Y-148405273D01*
X89697478Y-148414500D01*
G37*
G36*
X87129028Y-140574443D02*
G01*
X86970063Y-140583670D01*
X86852719Y-140662299D01*
X86827842Y-140875628D01*
X86827842Y-141176814D01*
X85623099Y-141176814D01*
X85623099Y-141478000D01*
X85632326Y-141636965D01*
X85710955Y-141754309D01*
X85924285Y-141779186D01*
X86083249Y-141788413D01*
X86200594Y-141867042D01*
X86225470Y-142080372D01*
X86234697Y-142239336D01*
X86313326Y-142356681D01*
X86526656Y-142381557D01*
X86685621Y-142390784D01*
X86802965Y-142469413D01*
X86827842Y-142682743D01*
X86837069Y-142841708D01*
X86915698Y-142959052D01*
X87129028Y-142983929D01*
X87287992Y-142993156D01*
X87405337Y-143071785D01*
X87430213Y-143285115D01*
X87439440Y-143444079D01*
X87518069Y-143561424D01*
X87731399Y-143586300D01*
X87890364Y-143577074D01*
X88007708Y-143498444D01*
X88032585Y-143285115D01*
X88041812Y-143126150D01*
X88120441Y-143008806D01*
X88333771Y-142983929D01*
X88492735Y-142993156D01*
X88610080Y-143071785D01*
X88634956Y-143285115D01*
X88625730Y-143444079D01*
X88547100Y-143561424D01*
X88333771Y-143586300D01*
X88174806Y-143595527D01*
X88057462Y-143674156D01*
X88032585Y-143887486D01*
X88032585Y-144188672D01*
X86827842Y-144188672D01*
X86827842Y-143586300D01*
X85623099Y-143586300D01*
X85623099Y-144188672D01*
X84418356Y-144188672D01*
X84418356Y-142381557D01*
X84719541Y-142381557D01*
X84878506Y-142390784D01*
X84995851Y-142469413D01*
X85020727Y-142682743D01*
X85020727Y-142983929D01*
X86225470Y-142983929D01*
X86225470Y-142682743D01*
X86216243Y-142523779D01*
X86137614Y-142406434D01*
X85924285Y-142381557D01*
X85765320Y-142372330D01*
X85647975Y-142293701D01*
X85623099Y-142080372D01*
X85623099Y-141779186D01*
X84418356Y-141779186D01*
X84418356Y-141478000D01*
X84427583Y-141319035D01*
X84506212Y-141201691D01*
X84719541Y-141176814D01*
X85020727Y-141176814D01*
X85020727Y-140273257D01*
X85623099Y-140273257D01*
X85632326Y-140432222D01*
X85710955Y-140549566D01*
X85924285Y-140574443D01*
X86083249Y-140565216D01*
X86200594Y-140486587D01*
X86225470Y-140273257D01*
X86234697Y-140114292D01*
X86313326Y-139996948D01*
X86526656Y-139972071D01*
X86685621Y-139962844D01*
X86802965Y-139884215D01*
X86827842Y-139670885D01*
X86818615Y-139511921D01*
X86739986Y-139394576D01*
X86526656Y-139369700D01*
X86367692Y-139378927D01*
X86250347Y-139457556D01*
X86225470Y-139670885D01*
X86216243Y-139829850D01*
X86137614Y-139947195D01*
X85924285Y-139972071D01*
X85765320Y-139981298D01*
X85647975Y-140059927D01*
X85623099Y-140273257D01*
X85020727Y-140273257D01*
X85020727Y-139972071D01*
X85321913Y-139972071D01*
X85480878Y-139962844D01*
X85598222Y-139884215D01*
X85623099Y-139670885D01*
X85632326Y-139511921D01*
X85710955Y-139394576D01*
X85924285Y-139369700D01*
X86083249Y-139360473D01*
X86200594Y-139281844D01*
X86225470Y-139068514D01*
X86225470Y-138767328D01*
X85020727Y-138767328D01*
X85020727Y-139068514D01*
X85011500Y-139227478D01*
X84932871Y-139344823D01*
X84719541Y-139369700D01*
X84560577Y-139378927D01*
X84443232Y-139457556D01*
X84418356Y-139670885D01*
X84409129Y-139829850D01*
X84330500Y-139947195D01*
X84117170Y-139972071D01*
X83958205Y-139962844D01*
X83840861Y-139884215D01*
X83815984Y-139670885D01*
X83806757Y-139511921D01*
X83728128Y-139394576D01*
X83514798Y-139369700D01*
X83355834Y-139360473D01*
X83238489Y-139281844D01*
X83213613Y-139068514D01*
X83204386Y-138909549D01*
X83125757Y-138792205D01*
X82912427Y-138767328D01*
X82753462Y-138758101D01*
X82636118Y-138679472D01*
X82611241Y-138466142D01*
X83213613Y-138466142D01*
X83222840Y-138625107D01*
X83301469Y-138742451D01*
X83514798Y-138767328D01*
X83673763Y-138776555D01*
X83791107Y-138855184D01*
X83815984Y-139068514D01*
X83825211Y-139227478D01*
X83903840Y-139344823D01*
X84117170Y-139369700D01*
X84418356Y-139369700D01*
X84418356Y-138164957D01*
X83213613Y-138164957D01*
X83213613Y-138466142D01*
X82611241Y-138466142D01*
X82620468Y-138307178D01*
X82699097Y-138189833D01*
X82912427Y-138164957D01*
X83071391Y-138155730D01*
X83188736Y-138077101D01*
X83213613Y-137863771D01*
X83222840Y-137704806D01*
X83301469Y-137587462D01*
X83514798Y-137562585D01*
X83673763Y-137553358D01*
X83791107Y-137474729D01*
X83815984Y-137261399D01*
X83825211Y-137102435D01*
X83903840Y-136985090D01*
X84117170Y-136960213D01*
X84418356Y-136960213D01*
X84418356Y-138164957D01*
X84719541Y-138164957D01*
X84878506Y-138155730D01*
X84995851Y-138077101D01*
X85020727Y-137863771D01*
X85020727Y-137562585D01*
X87430213Y-137562585D01*
X87430213Y-138767328D01*
X88634956Y-138767328D01*
X88634956Y-139068514D01*
X88644183Y-139227478D01*
X88722812Y-139344823D01*
X88936142Y-139369700D01*
X89095107Y-139378927D01*
X89212451Y-139457556D01*
X89237328Y-139670885D01*
X89228101Y-139829850D01*
X89149472Y-139947195D01*
X88936142Y-139972071D01*
X88777178Y-139962844D01*
X88659833Y-139884215D01*
X88634956Y-139670885D01*
X88634956Y-139369700D01*
X87430213Y-139369700D01*
X87430213Y-140574443D01*
X87129028Y-140574443D01*
G37*
G36*
X92106965Y-130343353D02*
G01*
X92224309Y-130421983D01*
X92249186Y-130635312D01*
X92239959Y-130794277D01*
X92161330Y-130911621D01*
X91948000Y-130936498D01*
X91789035Y-130927271D01*
X91671691Y-130848642D01*
X91646814Y-130635312D01*
X91656041Y-130476348D01*
X91734670Y-130359003D01*
X91948000Y-130334127D01*
X92106965Y-130343353D01*
G37*
G36*
X99335423Y-137571812D02*
G01*
X99452768Y-137650441D01*
X99477644Y-137863771D01*
X99468417Y-138022735D01*
X99389788Y-138140080D01*
X99176458Y-138164957D01*
X99017494Y-138155730D01*
X98900149Y-138077101D01*
X98875273Y-137863771D01*
X98884500Y-137704806D01*
X98963129Y-137587462D01*
X99176458Y-137562585D01*
X99335423Y-137571812D01*
G37*
G36*
X100080016Y-139369700D02*
G01*
X98875273Y-139369700D01*
X98875273Y-138767328D01*
X100080016Y-138767328D01*
X100080016Y-139369700D01*
G37*
G36*
X98875273Y-152621874D02*
G01*
X98875273Y-152019502D01*
X99477644Y-152019502D01*
X102489502Y-152019502D01*
X102489502Y-149007644D01*
X99477644Y-149007644D01*
X99477644Y-152019502D01*
X98875273Y-152019502D01*
X98875273Y-148405273D01*
X103091873Y-148405273D01*
X103091873Y-152621874D01*
X98875273Y-152621874D01*
G37*
G36*
X98272901Y-134550727D02*
G01*
X97670530Y-134550727D01*
X97670530Y-133345984D01*
X98272901Y-133345984D01*
X98272901Y-134550727D01*
G37*
%TD*%
M02*
