%TF.GenerationSoftware,KiCad,Pcbnew,(6.0.9)*%
%TF.CreationDate,2023-01-29T02:38:54+01:00*%
%TF.ProjectId,PICO DEV M3 KEYPAD,5049434f-2044-4455-9620-4d33204b4559,0.1*%
%TF.SameCoordinates,Original*%
%TF.FileFunction,Profile,NP*%
%FSLAX46Y46*%
G04 Gerber Fmt 4.6, Leading zero omitted, Abs format (unit mm)*
G04 Created by KiCad (PCBNEW (6.0.9)) date 2023-01-29 02:38:54*
%MOMM*%
%LPD*%
G01*
G04 APERTURE LIST*
%TA.AperFunction,Profile*%
%ADD10C,0.180000*%
%TD*%
G04 APERTURE END LIST*
D10*
%TO.C,*%
X195455600Y-114120400D02*
X194105600Y-114120400D01*
X167751017Y-64259280D02*
X168661958Y-59628823D01*
X80774666Y-154033718D02*
X159004268Y-154033718D01*
X195455600Y-101625400D02*
X203555600Y-101625400D01*
X107362956Y-22150524D02*
X93383177Y-30497674D01*
X129391743Y-27972747D02*
X119678811Y-22157768D01*
X55774666Y-46050647D02*
X55774666Y-129033718D01*
X203555600Y-115815400D02*
X195455600Y-115815400D01*
X195455600Y-103320400D02*
X195455600Y-101625400D01*
X194105600Y-103320400D02*
X195455600Y-103320400D01*
X194105600Y-114120400D02*
X194105600Y-103320400D01*
X67242027Y-31214472D02*
X60366169Y-36610617D01*
X164327519Y-47897168D02*
X163116186Y-46939986D01*
X195455600Y-115815400D02*
X195455600Y-114120400D01*
X172328901Y-89934781D02*
X180111400Y-68630800D01*
X203555600Y-101625400D02*
X203555600Y-100445400D01*
X160872169Y-85764872D02*
X167751017Y-64259280D01*
X203555600Y-116995400D02*
X203555600Y-115815400D01*
X159163329Y-41293694D02*
X157730910Y-36963884D01*
X81351187Y-30655145D02*
X80530645Y-30193901D01*
X145164635Y-28790430D02*
X136729266Y-29619339D01*
X160872169Y-85764872D02*
G75*
G03*
X172328901Y-89934781I-1867901J-22955528D01*
G01*
X203555600Y-100445400D02*
G75*
G03*
X180111400Y-68630800I-44533799J-8271663D01*
G01*
X157730910Y-36963884D02*
G75*
G03*
X145164635Y-28790430I-11392742J-3769033D01*
G01*
X119678811Y-22157768D02*
G75*
G03*
X107362956Y-22150524I-6163986J-10295903D01*
G01*
X159163329Y-41293694D02*
G75*
G03*
X163116186Y-46939986I11392476J3768842D01*
G01*
X55774666Y-129033718D02*
G75*
G03*
X80774666Y-154033718I24999992J-8D01*
G01*
X60366169Y-36610617D02*
G75*
G03*
X55774666Y-46050647I7408544J-9440053D01*
G01*
X80530645Y-30193901D02*
G75*
G03*
X67242027Y-31214472I-5880116J-10460671D01*
G01*
X159004268Y-154033718D02*
G75*
G03*
X203555600Y-116995400I-3J45313322D01*
G01*
X168661958Y-59628823D02*
G75*
G03*
X164327519Y-47897168I-11774308J2316342D01*
G01*
X81351187Y-30655146D02*
G75*
G03*
X93383177Y-30497674I5880120J10460594D01*
G01*
X129391743Y-27972747D02*
G75*
G03*
X136729266Y-29619339I6163975J10295843D01*
G01*
%TD*%
M02*
