%TF.GenerationSoftware,KiCad,Pcbnew,(6.0.9)*%
%TF.CreationDate,2023-01-29T02:38:54+01:00*%
%TF.ProjectId,PICO DEV M3 KEYPAD,5049434f-2044-4455-9620-4d33204b4559,0.1*%
%TF.SameCoordinates,Original*%
%TF.FileFunction,Soldermask,Top*%
%TF.FilePolarity,Negative*%
%FSLAX46Y46*%
G04 Gerber Fmt 4.6, Leading zero omitted, Abs format (unit mm)*
G04 Created by KiCad (PCBNEW (6.0.9)) date 2023-01-29 02:38:54*
%MOMM*%
%LPD*%
G01*
G04 APERTURE LIST*
G04 Aperture macros list*
%AMRoundRect*
0 Rectangle with rounded corners*
0 $1 Rounding radius*
0 $2 $3 $4 $5 $6 $7 $8 $9 X,Y pos of 4 corners*
0 Add a 4 corners polygon primitive as box body*
4,1,4,$2,$3,$4,$5,$6,$7,$8,$9,$2,$3,0*
0 Add four circle primitives for the rounded corners*
1,1,$1+$1,$2,$3*
1,1,$1+$1,$4,$5*
1,1,$1+$1,$6,$7*
1,1,$1+$1,$8,$9*
0 Add four rect primitives between the rounded corners*
20,1,$1+$1,$2,$3,$4,$5,0*
20,1,$1+$1,$4,$5,$6,$7,0*
20,1,$1+$1,$6,$7,$8,$9,0*
20,1,$1+$1,$8,$9,$2,$3,0*%
G04 Aperture macros list end*
%ADD10C,3.200000*%
%ADD11RoundRect,0.225000X-0.225000X-0.250000X0.225000X-0.250000X0.225000X0.250000X-0.225000X0.250000X0*%
%ADD12R,1.700000X1.700000*%
%ADD13O,1.700000X1.700000*%
%ADD14C,4.100000*%
%ADD15C,1.524000*%
%ADD16R,0.850000X0.400000*%
%ADD17R,1.750000X0.400000*%
%ADD18R,0.500000X1.100000*%
%ADD19C,2.500000*%
%ADD20RoundRect,0.200000X0.275000X-0.200000X0.275000X0.200000X-0.275000X0.200000X-0.275000X-0.200000X0*%
%ADD21RoundRect,0.039370X-0.635630X0.260630X-0.635630X-0.260630X0.635630X-0.260630X0.635630X0.260630X0*%
%ADD22C,1.500000*%
%ADD23RoundRect,0.375000X-1.225000X0.375000X-1.225000X-0.375000X1.225000X-0.375000X1.225000X0.375000X0*%
%ADD24RoundRect,0.200000X-0.275000X0.200000X-0.275000X-0.200000X0.275000X-0.200000X0.275000X0.200000X0*%
%ADD25RoundRect,0.550000X-0.942469X0.718854X-0.054307X-1.184082X0.942469X-0.718854X0.054307X1.184082X0*%
%ADD26RoundRect,0.550000X-1.052979X0.544275X0.152132X-1.175524X1.052979X-0.544275X-0.152132X1.175524X0*%
%ADD27RoundRect,0.550000X-1.131494X0.353158X0.353948X-1.131247X1.131494X-0.353158X-0.353948X1.131247X0*%
%ADD28RoundRect,0.550000X-1.175630X0.151311X0.545010X-1.052599X1.175630X-0.151311X-0.545010X1.052599X0*%
%ADD29RoundRect,0.550000X-1.184044X-0.055133X0.719512X-0.941967X1.184044X0.055133X-0.719512X0.941967X0*%
%ADD30RoundRect,0.550000X-1.156482X-0.259903X0.872152X-0.802715X1.156482X0.259903X-0.872152X0.802715X0*%
%ADD31RoundRect,0.550000X-1.093781X-0.456775X0.998292X-0.639072X1.093781X0.456775X-0.998292X0.639072X0*%
%ADD32RoundRect,0.550000X-0.997846X-0.639769X1.094099X-0.456012X0.997846X0.639769X-1.094099X0.456012X0*%
%ADD33RoundRect,0.550000X-0.871591X-0.803323X1.156663X-0.259095X0.871591X0.803323X-1.156663X0.259095X0*%
%ADD34RoundRect,0.550000X-0.718854X-0.942469X1.184082X-0.054307X0.718854X0.942469X-1.184082X0.054307X0*%
%ADD35RoundRect,0.550000X-0.544275X-1.052979X1.175524X0.152132X0.544275X1.052979X-1.175524X-0.152132X0*%
%ADD36RoundRect,0.550000X-0.353158X-1.131494X1.131247X0.353948X0.353158X1.131494X-1.131247X-0.353948X0*%
%ADD37RoundRect,0.550000X-0.151311X-1.175630X1.052599X0.545010X0.151311X1.175630X-1.052599X-0.545010X0*%
%ADD38RoundRect,0.550000X0.055133X-1.184044X0.941967X0.719512X-0.055133X1.184044X-0.941967X-0.719512X0*%
%ADD39RoundRect,0.550000X0.259903X-1.156482X0.802715X0.872152X-0.259903X1.156482X-0.802715X-0.872152X0*%
%ADD40RoundRect,0.550000X0.456775X-1.093781X0.639072X0.998292X-0.456775X1.093781X-0.639072X-0.998292X0*%
%ADD41RoundRect,0.550000X0.639769X-0.997846X0.456012X1.094099X-0.639769X0.997846X-0.456012X-1.094099X0*%
%ADD42RoundRect,0.550000X0.803323X-0.871591X0.259095X1.156663X-0.803323X0.871591X-0.259095X-1.156663X0*%
%ADD43RoundRect,0.550000X0.942469X-0.718854X0.054307X1.184082X-0.942469X0.718854X-0.054307X-1.184082X0*%
%ADD44RoundRect,0.550000X1.052979X-0.544275X-0.152132X1.175524X-1.052979X0.544275X0.152132X-1.175524X0*%
%ADD45RoundRect,0.550000X1.131494X-0.353158X-0.353948X1.131247X-1.131494X0.353158X0.353948X-1.131247X0*%
%ADD46RoundRect,0.550000X1.175630X-0.151311X-0.545010X1.052599X-1.175630X0.151311X0.545010X-1.052599X0*%
%ADD47RoundRect,0.550000X1.184044X0.055133X-0.719512X0.941967X-1.184044X-0.055133X0.719512X-0.941967X0*%
%ADD48RoundRect,0.550000X1.156482X0.259903X-0.872152X0.802715X-1.156482X-0.259903X0.872152X-0.802715X0*%
%ADD49RoundRect,0.550000X1.093781X0.456775X-0.998292X0.639072X-1.093781X-0.456775X0.998292X-0.639072X0*%
%ADD50RoundRect,0.550000X0.997846X0.639769X-1.094099X0.456012X-0.997846X-0.639769X1.094099X-0.456012X0*%
%ADD51RoundRect,0.550000X0.871591X0.803323X-1.156663X0.259095X-0.871591X-0.803323X1.156663X-0.259095X0*%
%ADD52RoundRect,0.550000X0.718854X0.942469X-1.184082X0.054307X-0.718854X-0.942469X1.184082X-0.054307X0*%
G04 APERTURE END LIST*
D10*
%TO.C,*%
X61188600Y-130860800D03*
X158953200Y-148640800D03*
X61188600Y-90881200D03*
X61176600Y-50866400D03*
X91719400Y-50850800D03*
X118948200Y-148615400D03*
X122047000Y-69494400D03*
X78943200Y-148640800D03*
%TD*%
D11*
%TO.C,C10*%
X75412000Y-98806000D03*
X76962000Y-98806000D03*
%TD*%
D12*
%TO.C,J4*%
X179324000Y-78740000D03*
D13*
X181864000Y-78740000D03*
X184404000Y-78740000D03*
X186944000Y-78740000D03*
X189484000Y-78740000D03*
%TD*%
D14*
%TO.C,MK8*%
X118237000Y-105283000D03*
D15*
X113157000Y-105283000D03*
X123317000Y-105283000D03*
D16*
X116734704Y-100283000D03*
D17*
X117184703Y-100983000D03*
D18*
X117809703Y-100633000D03*
D16*
X119734703Y-100283000D03*
D17*
X119284704Y-100983000D03*
D18*
X118659704Y-100633000D03*
D19*
X122047000Y-107823000D03*
X115697000Y-110363000D03*
%TD*%
D20*
%TO.C,R4*%
X141097000Y-50990000D03*
X141097000Y-49340000D03*
%TD*%
D12*
%TO.C,J1*%
X192176400Y-121793000D03*
D13*
X194716400Y-121793000D03*
X197256400Y-121793000D03*
X199796400Y-121793000D03*
%TD*%
D20*
%TO.C,R7*%
X127762000Y-80898000D03*
X127762000Y-79248000D03*
%TD*%
D11*
%TO.C,C1*%
X152882000Y-57785000D03*
X154432000Y-57785000D03*
%TD*%
D15*
%TO.C,MK2*%
X136779000Y-54610000D03*
D14*
X131699000Y-54610000D03*
D15*
X126619000Y-54610000D03*
D16*
X130196704Y-49610000D03*
D18*
X131271703Y-49960000D03*
D17*
X130646703Y-50310000D03*
D16*
X133196703Y-49610000D03*
D17*
X132746704Y-50310000D03*
D18*
X132121704Y-49960000D03*
D19*
X135509000Y-57150000D03*
X129159000Y-59690000D03*
%TD*%
D11*
%TO.C,C5*%
X117449000Y-77724000D03*
X118999000Y-77724000D03*
%TD*%
%TO.C,C6*%
X96469200Y-77851000D03*
X98019200Y-77851000D03*
%TD*%
D20*
%TO.C,R10*%
X127254000Y-100393000D03*
X127254000Y-98743000D03*
%TD*%
%TO.C,R11*%
X106680000Y-100837000D03*
X106680000Y-99187000D03*
%TD*%
%TO.C,R8*%
X106807000Y-80771000D03*
X106807000Y-79121000D03*
%TD*%
D15*
%TO.C,MK1*%
X158750000Y-64262000D03*
X148590000Y-64262000D03*
D14*
X153670000Y-64262000D03*
D16*
X152167704Y-59262000D03*
D18*
X153242703Y-59612000D03*
D17*
X152617703Y-59962000D03*
D16*
X155167703Y-59262000D03*
D17*
X154717704Y-59962000D03*
D18*
X154092704Y-59612000D03*
D19*
X157480000Y-66802000D03*
X151130000Y-69342000D03*
%TD*%
D12*
%TO.C,J5*%
X189454000Y-83845000D03*
D13*
X189454000Y-86385000D03*
X189454000Y-88925000D03*
X189454000Y-91465000D03*
X189454000Y-94005000D03*
X189454000Y-96545000D03*
%TD*%
D21*
%TO.C,SERIAL_CONN1*%
X190474800Y-105138600D03*
X190474800Y-106158600D03*
X190474800Y-107178600D03*
X190474800Y-108198600D03*
X190474800Y-109218600D03*
X190474800Y-110238600D03*
X190474800Y-111258600D03*
X190474800Y-112278600D03*
D22*
X192958800Y-115566600D03*
X192958800Y-113276600D03*
X192958800Y-104136600D03*
X192958800Y-101846600D03*
D23*
X200318800Y-116731600D03*
X200318800Y-100681600D03*
%TD*%
D15*
%TO.C,MK5*%
X113157000Y-84201000D03*
D14*
X118237000Y-84201000D03*
D15*
X123317000Y-84201000D03*
D16*
X116734704Y-79201000D03*
D18*
X117809703Y-79551000D03*
D17*
X117184703Y-79901000D03*
D16*
X119734703Y-79201000D03*
D18*
X118659704Y-79551000D03*
D17*
X119284704Y-79901000D03*
D19*
X122047000Y-86741000D03*
X115697000Y-89281000D03*
%TD*%
D24*
%TO.C,R15*%
X191770000Y-124905000D03*
X191770000Y-126555000D03*
%TD*%
D11*
%TO.C,C4*%
X75412000Y-55753000D03*
X76962000Y-55753000D03*
%TD*%
D15*
%TO.C,MK12*%
X71120000Y-126238000D03*
X81280000Y-126238000D03*
D14*
X76200000Y-126238000D03*
D16*
X74697704Y-121238000D03*
D18*
X75772703Y-121588000D03*
D17*
X75147703Y-121938000D03*
D16*
X77697703Y-121238000D03*
D17*
X77247704Y-121938000D03*
D18*
X76622704Y-121588000D03*
D19*
X80010000Y-128778000D03*
X73660000Y-131318000D03*
%TD*%
D25*
%TO.C,U1*%
X148225575Y-85597592D03*
D26*
X144375549Y-87820406D03*
D27*
X140970000Y-90678000D03*
D28*
X138112406Y-94083548D03*
D29*
X135889592Y-97933574D03*
D30*
X134369098Y-102111098D03*
D31*
X133597123Y-106489186D03*
D32*
X133597123Y-110934813D03*
D33*
X134369098Y-115312902D03*
D34*
X135889592Y-119490425D03*
D35*
X138112406Y-123340451D03*
D36*
X140970000Y-126746000D03*
D37*
X144375548Y-129603594D03*
D38*
X148225574Y-131826408D03*
D39*
X152403098Y-133346902D03*
D40*
X156781186Y-134118877D03*
D41*
X161226813Y-134118877D03*
D42*
X165604902Y-133346902D03*
D43*
X169782425Y-131826408D03*
D44*
X173632451Y-129603594D03*
D45*
X177038000Y-126746000D03*
D46*
X179895594Y-123340452D03*
D47*
X182118408Y-119490426D03*
D48*
X183638902Y-115312902D03*
D49*
X184410877Y-110934814D03*
D50*
X184410877Y-106489187D03*
D51*
X183638902Y-102111098D03*
D52*
X182118408Y-97933575D03*
%TD*%
D20*
%TO.C,R6*%
X85725000Y-58292000D03*
X85725000Y-56642000D03*
%TD*%
D12*
%TO.C,J3*%
X188315600Y-121843800D03*
D13*
X188315600Y-124383800D03*
X188315600Y-126923800D03*
X188315600Y-129463800D03*
X188315600Y-132003800D03*
X188315600Y-134543800D03*
X188315600Y-137083800D03*
X188315600Y-139623800D03*
%TD*%
D20*
%TO.C,R14*%
X85725000Y-124396000D03*
X85725000Y-122746000D03*
%TD*%
D11*
%TO.C,C11*%
X106654000Y-119888000D03*
X108204000Y-119888000D03*
%TD*%
D15*
%TO.C,MK7*%
X81153000Y-84201000D03*
D14*
X76073000Y-84201000D03*
D15*
X70993000Y-84201000D03*
D16*
X74570704Y-79201000D03*
D18*
X75645703Y-79551000D03*
D17*
X75020703Y-79901000D03*
D16*
X77570703Y-79201000D03*
D18*
X76495704Y-79551000D03*
D17*
X77120704Y-79901000D03*
D19*
X79883000Y-86741000D03*
X73533000Y-89281000D03*
%TD*%
D20*
%TO.C,R3*%
X163068000Y-61086000D03*
X163068000Y-59436000D03*
%TD*%
%TO.C,R9*%
X85598000Y-81089000D03*
X85598000Y-79439000D03*
%TD*%
D12*
%TO.C,J2*%
X180131400Y-143027800D03*
D13*
X182671400Y-143027800D03*
%TD*%
D14*
%TO.C,MK6*%
X97282000Y-84201000D03*
D15*
X102362000Y-84201000D03*
X92202000Y-84201000D03*
D16*
X95779704Y-79201000D03*
D18*
X96854703Y-79551000D03*
D17*
X96229703Y-79901000D03*
D16*
X98779703Y-79201000D03*
D17*
X98329704Y-79901000D03*
D18*
X97704704Y-79551000D03*
D19*
X101092000Y-86741000D03*
X94742000Y-89281000D03*
%TD*%
D14*
%TO.C,MK3*%
X109728000Y-51816000D03*
D15*
X114808000Y-51816000D03*
X104648000Y-51816000D03*
D16*
X108225704Y-46816000D03*
D18*
X109300703Y-47166000D03*
D17*
X108675703Y-47516000D03*
D16*
X111225703Y-46816000D03*
D17*
X110775704Y-47516000D03*
D18*
X110150704Y-47166000D03*
D19*
X113538000Y-54356000D03*
X107188000Y-56896000D03*
%TD*%
D14*
%TO.C,MK11*%
X107454700Y-126276100D03*
D15*
X102374700Y-126276100D03*
X112534700Y-126276100D03*
D16*
X105952404Y-121276100D03*
D18*
X107027403Y-121626100D03*
D17*
X106402403Y-121976100D03*
D16*
X108952403Y-121276100D03*
D18*
X107877404Y-121626100D03*
D17*
X108502404Y-121976100D03*
D19*
X111264700Y-128816100D03*
X104914700Y-131356100D03*
%TD*%
D11*
%TO.C,C12*%
X75425000Y-119761000D03*
X76975000Y-119761000D03*
%TD*%
%TO.C,C8*%
X117462000Y-98831400D03*
X119012000Y-98831400D03*
%TD*%
%TO.C,C9*%
X96380000Y-98806000D03*
X97930000Y-98806000D03*
%TD*%
D20*
%TO.C,R12*%
X85725000Y-101155000D03*
X85725000Y-99505000D03*
%TD*%
D14*
%TO.C,MK9*%
X97155000Y-105283000D03*
D15*
X92075000Y-105283000D03*
X102235000Y-105283000D03*
D16*
X95652704Y-100283000D03*
D18*
X96727703Y-100633000D03*
D17*
X96102703Y-100983000D03*
D16*
X98652703Y-100283000D03*
D18*
X97577704Y-100633000D03*
D17*
X98202704Y-100983000D03*
D19*
X100965000Y-107823000D03*
X94615000Y-110363000D03*
%TD*%
D11*
%TO.C,C7*%
X75311000Y-77774800D03*
X76861000Y-77774800D03*
%TD*%
D20*
%TO.C,R13*%
X116967000Y-123698000D03*
X116967000Y-122048000D03*
%TD*%
D11*
%TO.C,C3*%
X109093000Y-45339000D03*
X110643000Y-45339000D03*
%TD*%
%TO.C,C2*%
X130937000Y-48133000D03*
X132487000Y-48133000D03*
%TD*%
D15*
%TO.C,MK4*%
X71120000Y-62230000D03*
X81280000Y-62230000D03*
D14*
X76200000Y-62230000D03*
D16*
X74697704Y-57230000D03*
D17*
X75147703Y-57930000D03*
D18*
X75772703Y-57580000D03*
D16*
X77697703Y-57230000D03*
D17*
X77247704Y-57930000D03*
D18*
X76622704Y-57580000D03*
D19*
X80010000Y-64770000D03*
X73660000Y-67310000D03*
%TD*%
D24*
%TO.C,R2*%
X190195200Y-100152200D03*
X190195200Y-101802200D03*
%TD*%
D20*
%TO.C,R1*%
X190169800Y-117144800D03*
X190169800Y-115494800D03*
%TD*%
D14*
%TO.C,MK10*%
X76200000Y-105283000D03*
D15*
X81280000Y-105283000D03*
X71120000Y-105283000D03*
D16*
X74697704Y-100283000D03*
D18*
X75772703Y-100633000D03*
D17*
X75147703Y-100983000D03*
D16*
X77697703Y-100283000D03*
D17*
X77247704Y-100983000D03*
D18*
X76622704Y-100633000D03*
D19*
X80010000Y-107823000D03*
X73660000Y-110363000D03*
%TD*%
D20*
%TO.C,R5*%
X119253000Y-48513000D03*
X119253000Y-46863000D03*
%TD*%
M02*
